<svg data-name="Layer 1" xmlns="http://www.w3.org/2000/svg" xmlns:xlink="http://www.w3.org/1999/xlink" width="210" height="95.84" viewBox="0 0 210 95.84"><defs><linearGradient id="Naamloos_verloop_2" x1="108.23" y1="10.6" x2="145.39" y2="47.76" gradientUnits="userSpaceOnUse"><stop offset="0" stop-color="#ff006c" stop-opacity="0.5"/><stop offset="1" stop-color="#8713e0"/></linearGradient></defs><path d="M12.7,67.88a33.13,33.13,0,0,1-5.33-1.8,3.83,3.83,0,0,1-2.12-3.54,4.47,4.47,0,0,1,1.37-3.31,4.47,4.47,0,0,1,3.31-1.37H16a2.48,2.48,0,0,0,2.49-2.49v-.13a2.4,2.4,0,0,0-.72-1.75A2.43,2.43,0,0,0,16,52.75h-5.9a9.48,9.48,0,0,0-6.93,2.86A9.48,9.48,0,0,0,.35,62.55a8,8,0,0,0,2.53,6.22,15.1,15.1,0,0,0,5.4,2.74,34.58,34.58,0,0,1,5.33,1.95A3.94,3.94,0,0,1,15.75,77a4.47,4.47,0,0,1-1.37,3.31,4.52,4.52,0,0,1-3.32,1.37H2.49a2.4,2.4,0,0,0-1.75.74A2.4,2.4,0,0,0,0,84.19v.13a2.4,2.4,0,0,0,.74,1.75,2.4,2.4,0,0,0,1.75.74h8.36A9.46,9.46,0,0,0,17.75,84,9.44,9.44,0,0,0,20.64,77a8.35,8.35,0,0,0-2.53-6.49A14.27,14.27,0,0,0,12.7,67.88Z" style="fill:#0e2344"/><path d="M35.66,61.88a12.47,12.47,0,0,0-8.82,21.29,12.45,12.45,0,0,0,16.24,1.2,2.35,2.35,0,0,0,.74,1.72,2.45,2.45,0,0,0,1.82.74,2.39,2.39,0,0,0,1.75-.73,2.35,2.35,0,0,0,.74-1.76v-10A12.48,12.48,0,0,0,35.66,61.88ZM40.9,79.61a7.07,7.07,0,0,1-5.24,2.16,7.42,7.42,0,1,1,0-14.85A7.43,7.43,0,0,1,40.9,79.61Z" style="fill:#0e2344"/><path d="M87.74,67.88a33.13,33.13,0,0,1-5.33-1.8,3.83,3.83,0,0,1-2.12-3.54A4.67,4.67,0,0,1,85,57.87h6.12a2.48,2.48,0,0,0,2.49-2.49v-.13a2.4,2.4,0,0,0-.72-1.75,2.43,2.43,0,0,0-1.78-.74h-5.9a9.78,9.78,0,0,0-9.79,9.79,8,8,0,0,0,2.53,6.22,15.1,15.1,0,0,0,5.4,2.74,34.58,34.58,0,0,1,5.33,1.95A3.94,3.94,0,0,1,90.79,77a4.47,4.47,0,0,1-1.37,3.31,4.52,4.52,0,0,1-3.32,1.37H77.53A2.52,2.52,0,0,0,75,84.19v.13a2.52,2.52,0,0,0,2.49,2.49h8.36A9.82,9.82,0,0,0,95.68,77a8.35,8.35,0,0,0-2.53-6.49A14.27,14.27,0,0,0,87.74,67.88Z" style="fill:#0e2344"/><path d="M101.53,52.9a2.82,2.82,0,0,0-2.06.85,2.9,2.9,0,1,0,5,2,2.75,2.75,0,0,0-.87-2A2.79,2.79,0,0,0,101.53,52.9Z" style="fill:#0e2344"/><path d="M101.55,61.88h0A2.52,2.52,0,0,0,99,64.39V84.33a2.35,2.35,0,0,0,.74,1.75,2.46,2.46,0,0,0,1.82.74A2.52,2.52,0,0,0,104,84.33V64.39a2.42,2.42,0,0,0-.73-1.77A2.36,2.36,0,0,0,101.55,61.88Z" style="fill:#0e2344"/><path d="M134.93,61.88a9.83,9.83,0,0,0-7.85,3.61,9.89,9.89,0,0,0-7.87-3.61,10.38,10.38,0,0,0-10.39,10.39V84.33a2.35,2.35,0,0,0,.74,1.75,2.45,2.45,0,0,0,1.82.74,2.4,2.4,0,0,0,1.75-.73,2.36,2.36,0,0,0,.74-1.76V72.26a5.34,5.34,0,0,1,10.68,0V84.33a2.35,2.35,0,0,0,.74,1.75,2.46,2.46,0,0,0,1.82.74,2.52,2.52,0,0,0,2.49-2.49V72.26a5.35,5.35,0,0,1,10.7,0V84.33a2.34,2.34,0,0,0,.73,1.75,2.38,2.38,0,0,0,1.8.74,2.43,2.43,0,0,0,1.78-.74,2.39,2.39,0,0,0,.72-1.75V72.26a10.38,10.38,0,0,0-10.39-10.39Z" style="fill:#0e2344"/><path d="M161.72,61.88A12.48,12.48,0,0,0,149.25,74.3v19a2.52,2.52,0,0,0,2.49,2.49h.07a2.52,2.52,0,0,0,2.49-2.49v-9a12.47,12.47,0,0,0,16.24-18.83A12.07,12.07,0,0,0,161.72,61.88ZM167,79.55h0a7,7,0,0,1-5.24,2.18A7.44,7.44,0,1,1,167,79.55Z" style="fill:#0e2344"/><path d="M179.91,52.88h-.07a2.48,2.48,0,0,0-2.49,2.49v29a2.35,2.35,0,0,0,.74,1.75,2.44,2.44,0,0,0,1.82.74,2.4,2.4,0,0,0,1.75-.73,2.36,2.36,0,0,0,.74-1.76v-29a2.48,2.48,0,0,0-2.49-2.49Z" style="fill:#0e2344"/><path d="M209.88,70.73A12.48,12.48,0,0,0,199.64,62a12,12,0,0,0-9.23,2.44,12.56,12.56,0,0,0-4.82,8.36,12,12,0,0,0,2.24,8.82,12.58,12.58,0,0,0,8.23,5.06,13,13,0,0,0,2,.15,12.61,12.61,0,0,0,9.69-4.68,2.47,2.47,0,0,0,.47-2.07,2.52,2.52,0,0,0-1.33-1.71,2.47,2.47,0,0,0-3.07.65,7.46,7.46,0,0,1-7,2.74,6.91,6.91,0,0,1-4.85-3L201,76l7.25-2.15a2.47,2.47,0,0,0,1.66-3.11Zm-19.33,3.11c0-.14,0-.29,0-.43a7.15,7.15,0,0,1,2.85-4.93,7.07,7.07,0,0,1,4.4-1.53,8.31,8.31,0,0,1,1.11.08,7,7,0,0,1,4.9,2.85Z" style="fill:#0e2344"/><path d="M72.62,63.06a2.47,2.47,0,0,0-2.19-1.19h0A2.45,2.45,0,0,0,68,63.47l-6.86,16-6.84-16a2.41,2.41,0,0,0-2.4-1.6h-.06a2.47,2.47,0,0,0-2.19,1.19,2.57,2.57,0,0,0-.45,1.43,2.79,2.79,0,0,0,.22,1L57.42,84.3a4.17,4.17,0,0,0,1,1.54l-2.7,6.33a2.47,2.47,0,0,0,0,2,2.58,2.58,0,0,0,1.45,1.46,2.64,2.64,0,0,0,3.43-1.38L72.83,65.53a2.62,2.62,0,0,0,.24-1.06A2.47,2.47,0,0,0,72.62,63.06Z" style="fill:#0e2344"/><path d="M129.71,0A26.27,26.27,0,0,0,108.2,41.35l-2.43,9.15A1,1,0,0,0,107,51.68l9-3A26.28,26.28,0,1,0,129.71,0Zm-4.48,32.49a1.55,1.55,0,0,1-3.11,0V20.06a1.55,1.55,0,1,1,3.11,0Zm6,4.5a1.55,1.55,0,1,1-3.11,0V15.56a1.55,1.55,0,0,1,3.11,0Zm6-6.69a1.55,1.55,0,1,1-3.11,0v-8a1.55,1.55,0,0,1,3.11,0Z" style="fill:url(#Naamloos_verloop_2)"/></svg>