<svg data-name="Layer 1" xmlns="http://www.w3.org/2000/svg" width="281" height="59.27" viewBox="0 0 281 59.27"><path d="M49.12,15.85A16.38,16.38,0,0,0,20.81,5.48a13.71,13.71,0,0,1,8.62-3,13.57,13.57,0,0,1,13.63,13c8.55.37,15.35,6.48,15.35,14,0,6.85-5.67,12.55-13.16,13.77l-2.34.25H19.57l-2.34,0C9.1,43,2.64,36.91,2.64,29.43A13,13,0,0,1,5.37,21.5,15.82,15.82,0,0,0,.74,32.59c0,8.95,7.73,16.25,17.46,16.74l2.8.05H48.94l2.8-.31c9-1.46,15.75-8.28,15.75-16.48C67.49,23.6,59.35,16.29,49.12,15.85Z" style="fill:#3c3c3b"/><path d="M31.36,23a7.19,7.19,0,1,1-7.19-7.18A7.19,7.19,0,0,1,31.36,23Z" style="fill:#009fe3;opacity:0.6000000000000001"/><path d="M32.66,17.18A10.43,10.43,0,0,1,17.78,31.36,10.44,10.44,0,1,0,32.66,17.18Z" style="fill:#3c3c3b"/><path d="M16.72,7.9a6.38,6.38,0,0,1-9.09,8.66A6.38,6.38,0,1,0,16.72,7.9Z" style="fill:#3c3c3b"/><path d="M6.35.63A4.17,4.17,0,0,1,.4,6.3,4.17,4.17,0,1,0,6.35.63Z" style="fill:#3c3c3b"/><path d="M16.31,11.38A4.68,4.68,0,1,1,11.63,6.7,4.68,4.68,0,0,1,16.31,11.38Z" style="fill:#009fe3;opacity:0.6000000000000001"/><path d="M5.77,2.89A2.89,2.89,0,1,1,2.89,0,2.88,2.88,0,0,1,5.77,2.89Z" style="fill:#009fe3;opacity:0.6000000000000001"/><path d="M100.8,43.45H94.56V30.09a6.37,6.37,0,0,0-.88-3.71,3.19,3.19,0,0,0-2.8-1.24,4.21,4.21,0,0,0-3.79,1.75c-.78,1.17-1.16,3.1-1.16,5.8V43.45H79.68V20.58h4.77l.84,2.92h.35A6.53,6.53,0,0,1,88.51,21a9.74,9.74,0,0,1,4.17-.85q4,0,6,2.16a8.65,8.65,0,0,1,2.07,6.23Z" style="fill:#3c3c3b"/><path d="M117.58,43.86c-3.69,0-6.56-1-8.64-3s-3.11-4.91-3.11-8.63,1-6.8,2.88-8.89a10.23,10.23,0,0,1,8-3.14,10.08,10.08,0,0,1,7.55,2.76,10.46,10.46,0,0,1,2.7,7.63v3H112.16a6,6,0,0,0,1.57,4.15,5.52,5.52,0,0,0,4.13,1.5,17,17,0,0,0,3.91-.43,19.66,19.66,0,0,0,3.85-1.37v4.83a14.63,14.63,0,0,1-3.5,1.21A21.79,21.79,0,0,1,117.58,43.86Zm-.88-19.27a4,4,0,0,0-3.11,1.26,5.84,5.84,0,0,0-1.29,3.57h8.76a5.21,5.21,0,0,0-1.21-3.57A4.09,4.09,0,0,0,116.7,24.59Z" style="fill:#3c3c3b"/><path d="M141.62,38.89a13.49,13.49,0,0,0,3.93-.72v4.65a14,14,0,0,1-5.73,1q-3.75,0-5.45-1.89t-1.71-5.68v-11h-3V22.62l3.44-2.08,1.8-4.83h4v4.87h6.4v4.68h-6.4v11a2.48,2.48,0,0,0,.74,2A3,3,0,0,0,141.62,38.89Z" style="fill:#3c3c3b"/><path d="M164.7,43.45l-1.21-3.11h-.16a9.21,9.21,0,0,1-3.25,2.76,10.49,10.49,0,0,1-4.34.76A7,7,0,0,1,150.55,42a7.22,7.22,0,0,1-1.89-5.36,6,6,0,0,1,2.55-5.37q2.53-1.72,7.68-1.91l4-.13v-1q0-3.48-3.56-3.48a16.16,16.16,0,0,0-6.45,1.66l-2.06-4.22a18.66,18.66,0,0,1,8.75-2.06q4.61,0,7.06,2t2.46,6.1V43.45Zm-1.84-10.59-2.42.08a7.71,7.71,0,0,0-4.05,1,3.07,3.07,0,0,0-1.33,2.74q0,2.64,3,2.64a4.81,4.81,0,0,0,3.47-1.25,4.39,4.39,0,0,0,1.3-3.31Z" style="fill:#009fe3;opacity:0.6000000000000001"/><path d="M188.13,25.26h-5.4V43.45h-6.25V25.26h-3.43v-3l3.43-1.68V18.9c0-2.6.65-4.51,1.93-5.71s3.33-1.8,6.16-1.8a16.08,16.08,0,0,1,5.75,1l-1.6,4.59a11.47,11.47,0,0,0-3.48-.6,2.25,2.25,0,0,0-1.92.79,3.25,3.25,0,0,0-.59,2v1.43h5.4Z" style="fill:#009fe3;opacity:0.6000000000000001"/><path d="M206.86,25.26h-5.4V43.45h-6.25V25.26h-3.43v-3l3.43-1.68V18.9c0-2.6.65-4.51,1.93-5.71s3.33-1.8,6.16-1.8a16.08,16.08,0,0,1,5.75,1l-1.6,4.59a11.47,11.47,0,0,0-3.48-.6,2.25,2.25,0,0,0-1.92.79,3.25,3.25,0,0,0-.59,2v1.43h5.4Z" style="fill:#009fe3;opacity:0.6000000000000001"/><path d="M224.12,43.45l-1.21-3.11h-.16a9.29,9.29,0,0,1-3.25,2.76,10.51,10.51,0,0,1-4.35.76A7,7,0,0,1,210,42a7.22,7.22,0,0,1-1.89-5.36,6,6,0,0,1,2.54-5.37q2.55-1.72,7.69-1.91l4-.13v-1q0-3.48-3.56-3.48a16.16,16.16,0,0,0-6.45,1.66l-2.07-4.22A18.73,18.73,0,0,1,219,20.11q4.6,0,7.06,2t2.46,6.1V43.45Zm-1.84-10.59-2.42.08a7.71,7.71,0,0,0-4.05,1,3.07,3.07,0,0,0-1.33,2.74q0,2.64,3,2.64A4.83,4.83,0,0,0,221,38.05a4.39,4.39,0,0,0,1.3-3.31Z" style="fill:#009fe3;opacity:0.6000000000000001"/><path d="M233,14.67c0-2,1.13-3.05,3.39-3.05s3.4,1,3.4,3.05a3,3,0,0,1-.85,2.26,3.55,3.55,0,0,1-2.55.8Q233,17.73,233,14.67Zm6.5,28.78h-6.24V20.58h6.24Z" style="fill:#009fe3;opacity:0.6000000000000001"/><path d="M258.78,20.15a10.36,10.36,0,0,1,2.11.18l-.47,5.85a7.53,7.53,0,0,0-1.85-.2,6.62,6.62,0,0,0-4.65,1.53,5.57,5.57,0,0,0-1.67,4.3V43.45H246V20.58h4.73l.92,3.85H252a8.47,8.47,0,0,1,2.87-3.1A7.05,7.05,0,0,1,258.78,20.15Z" style="fill:#009fe3;opacity:0.6000000000000001"/><path d="M281,36.66A6.3,6.3,0,0,1,278.55,42c-1.63,1.23-4.06,1.84-7.31,1.84a23.63,23.63,0,0,1-4.26-.33,16.16,16.16,0,0,1-3.29-1V37.38a22.45,22.45,0,0,0,3.92,1.37,15.73,15.73,0,0,0,3.83.55c2.27,0,3.4-.65,3.4-2a1.64,1.64,0,0,0-.45-1.2,6.27,6.27,0,0,0-1.55-1c-.74-.39-1.72-.85-2.95-1.36A18.68,18.68,0,0,1,266,31.69a5.89,5.89,0,0,1-1.8-2.16,7.2,7.2,0,0,1-.56-3A5.43,5.43,0,0,1,266,21.82a11.53,11.53,0,0,1,6.7-1.67,19,19,0,0,1,8,1.8l-1.88,4.5c-1.14-.49-2.22-.89-3.21-1.21a10.22,10.22,0,0,0-3.05-.47q-2.76,0-2.76,1.5a1.74,1.74,0,0,0,.89,1.45,23.44,23.44,0,0,0,3.9,1.82,17.86,17.86,0,0,1,3.92,2,5.91,5.91,0,0,1,1.85,2.17A6.7,6.7,0,0,1,281,36.66Z" style="fill:#009fe3;opacity:0.6000000000000001"/></svg>