<svg data-name="Layer 1" xmlns="http://www.w3.org/2000/svg" width="216" height="78.01" viewBox="0 0 216 78.01"><g style="opacity:0.6900000000000001"><path d="M172,30.78a4.7,4.7,0,1,1-4.7-4.7A4.71,4.71,0,0,1,172,30.78Z" style="fill:#ef7d00"/><path d="M186.33,21.23a.48.48,0,0,1-.43-.26,21,21,0,0,0-37.17,0,.5.5,0,0,1-.88-.46,22,22,0,0,1,38.92,0,.49.49,0,0,1-.21.66.46.46,0,0,1-.23.06Z" style="fill:#ef7d00"/><path d="M179.78,27.78a.48.48,0,0,1-.47-.36,12.46,12.46,0,0,0-24,0,.48.48,0,0,1-.61.34.49.49,0,0,1-.34-.6,13.45,13.45,0,0,1,25.9,0,.49.49,0,0,1-.35.6.27.27,0,0,1-.13,0Z" style="fill:#ef7d00"/><path d="M192.73,14.83a.49.49,0,0,1-.41-.22,29.77,29.77,0,0,0-50,0,.49.49,0,0,1-.68.14.5.5,0,0,1-.15-.68,30.76,30.76,0,0,1,51.68,0,.49.49,0,0,1-.15.68.45.45,0,0,1-.27.08Z" style="fill:#ef7d00"/></g><path d="M6.71,33.82V68.36H0V33.82Z" style="fill:#363e42"/><path d="M12.09,50.84c0-2.72-.1-5.13-.2-7.54h5.79L18,46.17h.1a7.17,7.17,0,0,1,6.05-3.28c4.76,0,6.66,3.79,6.66,9.38V68.36H24.14V52.68c0-2.1-.52-4.15-2.46-4.15-1.13,0-2.05.77-2.52,2.25a6.79,6.79,0,0,0-.35,2.31V68.36H12.09Z" style="fill:#363e42"/><path d="M36.74,68.36V48.07H33.36V43.3h3.38v-1c0-2.87.62-5.48,2.62-7.53a8,8,0,0,1,5.94-2.31,13.67,13.67,0,0,1,4.05.56l-.77,5.23a5.86,5.86,0,0,0-2-.31c-2.26,0-3.07,2-3.07,4.15V43.3h4.35v4.77H43.46V68.36Z" style="fill:#363e42"/><path d="M68.1,55.76c0,10.45-5.79,13-9.58,13-6,0-9.58-4.71-9.58-12.86,0-9,4.71-13.07,9.68-13.07C64.57,42.84,68.1,47.81,68.1,55.76Zm-12.5,0c0,4.3.67,7.88,3.08,7.88,2.2,0,2.76-4.2,2.76-7.88,0-3.44-.56-7.79-2.87-7.79S55.6,52.32,55.6,55.76Z" style="fill:#363e42"/><path d="M71.9,50.84c0-2.46-.1-5.18-.21-7.54h5.79l.36,3.64h.21c1.07-2.66,3.12-4.1,4.92-4.1A4.94,4.94,0,0,1,84.4,43v6.62A10.26,10.26,0,0,0,83,49.55a4.39,4.39,0,0,0-4,3.54,8,8,0,0,0-.31,2.51V68.36H71.9Z" style="fill:#363e42"/><path d="M86.91,50.84c0-2.72-.1-5.13-.2-7.54h5.84l.36,2.87H93A7.34,7.34,0,0,1,99,42.84a5.41,5.41,0,0,1,5.49,3.43h.1a8.63,8.63,0,0,1,2.56-2.51,6.76,6.76,0,0,1,3.49-.92c4.5,0,6.51,3.59,6.51,9.58V68.36h-6.72V53.55c0-2.82-.31-5.12-2.3-5.12a2.69,2.69,0,0,0-2.52,2.25,5.91,5.91,0,0,0-.2,1.8V68.36H98.65V52.63c0-1.85-.16-4.2-2.26-4.2a2.74,2.74,0,0,0-2.51,2.25,6.68,6.68,0,0,0-.25,1.9V68.36H86.91Z" style="fill:#363e42"/><path d="M138.72,62.62a39.53,39.53,0,0,0,.36,5.74h-6l-.35-2.46h-.16A6.59,6.59,0,0,1,127,68.77c-3.79,0-6.61-3.18-6.61-7.58,0-6.61,5.79-9.28,11.48-9.33V51.3a3.19,3.19,0,0,0-3.54-3.44,9.52,9.52,0,0,0-5.12,1.49L122,44.79a17.14,17.14,0,0,1,7.84-1.9c7.63,0,8.86,5.33,8.86,10.46Zm-6.61-6.46c-2.2.06-5.33.82-5.33,4.31,0,2.46,1.38,3.38,2.41,3.38A2.88,2.88,0,0,0,132,61.7a4.23,4.23,0,0,0,.15-1.18Z" style="fill:#363e42"/><path d="M148.71,43.3l1.54,4.46c.46,1.49.87,3,1.23,4.2h.1c.36-1.23.72-2.82,1.18-4.2l1.49-4.46H161l-5.63,12.35,5.73,12.71h-7.27L152,63.64c-.46-1.27-.81-2.56-1.17-3.84h-.11c-.35,1.28-.76,2.57-1.12,3.84l-1.54,4.72h-6.71L147,55.91,141.44,43.3Z" style="fill:#363e42"/><path d="M163.73,68.36V43.3h6.71V68.36Z" style="fill:#363e42"/><path d="M193.45,55.76c0,10.45-5.79,13-9.58,13-6,0-9.58-4.71-9.58-12.86,0-9,4.71-13.07,9.68-13.07C189.92,42.84,193.45,47.81,193.45,55.76Zm-12.5,0c0,4.3.66,7.88,3.07,7.88,2.21,0,2.77-4.2,2.77-7.88,0-3.44-.56-7.79-2.87-7.79S181,52.32,181,55.76Z" style="fill:#363e42"/><path d="M197.24,50.84c0-2.72-.1-5.13-.2-7.54h5.79l.36,2.87h.1a7.17,7.17,0,0,1,6.05-3.28c4.77,0,6.66,3.79,6.66,9.38V68.36h-6.71V52.68c0-2.1-.52-4.15-2.46-4.15-1.13,0-2.05.77-2.51,2.25a6.52,6.52,0,0,0-.36,2.31V68.36h-6.72Z" style="fill:#363e42"/></svg>