<svg data-name="Layer 1" xmlns="http://www.w3.org/2000/svg" width="252" height="52.13" viewBox="0 0 252 52.13"><path d="M19.47.07A21.22,21.22,0,1,0,42.35,19.48,21.22,21.22,0,0,0,19.47.07Zm3,36a14.91,14.91,0,0,1-13.73-23l6,3.93a7.73,7.73,0,1,0,5.84-3.49,7.49,7.49,0,0,0-2.42.61L15.31,7.5a14.93,14.93,0,1,1,7.13,28.59Z" style="fill:#2ab578"/><path d="M125.92,15.48l0,0Z" style="fill:#555759"/><path d="M126.55,18.07c0,.18.06.37.08.57C126.61,18.44,126.58,18.25,126.55,18.07Z" style="fill:#555759"/><path d="M124.79,12.74c0,.09.09.19.14.29C124.88,12.93,124.84,12.83,124.79,12.74Z" style="fill:#555759"/><polygon points="123.41 32.19 123.41 32.19 123.41 32.19 123.41 32.19" style="fill:#555759"/><path d="M124.93,13c-.05-.1-.09-.2-.14-.29s-.21-.33-.3-.5c.27.5.51,1,.74,1.52C125.12,13.52,125,13.27,124.93,13Z" style="fill:#555759"/><path d="M123.41,10.42s0,0,0,0q.52.77,1,1.59C124.07,11.5,123.77,10.94,123.41,10.42Z" style="fill:#555759"/><path d="M125.37,14.12c.19.45.4.89.55,1.36a18.72,18.72,0,0,0-1-2.45c.11.24.19.49.3.73Z" style="fill:#555759"/><path d="M124.38,12.05l.11.19c.09.17.21.32.3.5a20,20,0,0,0-1.38-2.32h0C123.77,10.94,124.07,11.5,124.38,12.05Z" style="fill:#555759"/><path d="M125.94,15.51a19.88,19.88,0,0,1,.61,2.56A19.49,19.49,0,0,0,125.94,15.51Z" style="fill:#555759"/><path d="M126.84,21.3a18,18,0,0,0-.21-2.66,18,18,0,0,1,.21,2.66Z" style="fill:#555759"/><path d="M124.38,12.05l.11.19Z" style="fill:#555759"/><path d="M125.37,14.12l-.14-.36Z" style="fill:#555759"/><path d="M126.84,21.2v.11h0Z" style="fill:none"/><path d="M124.79,12.74c-.09-.17-.21-.33-.3-.5.27.5.51,1,.74,1.52-.11-.24-.19-.49-.3-.73S124.84,12.83,124.79,12.74Z" style="fill:none"/><path d="M124.49,12.24h0c.09.17.21.33.3.5s.09.19.14.29.19.49.3.73h0l.14.36h0c.19.45.4.89.55,1.36l0,0a19.49,19.49,0,0,1,.61,2.56c0,.18.06.37.08.57a19.5,19.5,0,0,1,.21,2.56v.1h0A12.23,12.23,0,0,1,139.06,9.09a10.36,10.36,0,0,1,1.25.07,1.38,1.38,0,0,1,.2,0c.34,0,.68.09,1,.15l.2.05c.33.08.66.16,1,.26l.12,0c.34.11.68.24,1,.37l0,0a12.17,12.17,0,0,1,3.85,2.62,24.34,24.34,0,0,1,3.44-6.14c-.44-.36-.89-.69-1.36-1-.17-.12-.35-.23-.53-.34s-.62-.39-.94-.57-.42-.22-.64-.33-.61-.31-.93-.45l-.68-.28c-.32-.13-.64-.25-1-.36l-.7-.22q-.53-.15-1-.27l-.68-.16q-.6-.11-1.2-.18l-.59-.08c-.6-.06-1.22-.09-1.83-.09a19.07,19.07,0,0,0-15.65,8.19,16.43,16.43,0,0,1,1,1.62h0Z" style="fill:#585856"/><path d="M189.43,21.19a12.2,12.2,0,0,1,24.4-.25,18.85,18.85,0,0,1,3.43-10.55,19,19,0,0,0-31.27,0,19,19,0,0,1,3.42,10.77Z" style="fill:#585856"/><path d="M125.37,14.12l-.14-.36h0c.24.56.5,1.12.69,1.72-.15-.47-.36-.91-.55-1.36Z" style="fill:#666e77"/><path d="M126.84,21.2a19.5,19.5,0,0,0-.21-2.56A19.64,19.64,0,0,1,126.84,21.2Z" style="fill:#666e77"/><path d="M124.49,12.24l-.11-.19h0a2.12,2.12,0,0,1,.12.2Z" style="fill:#666e77"/><path d="M189.41,21.19h0A19,19,0,0,0,186,10.42h0A19,19,0,0,1,189.41,21.19Z" style="fill:#666e77"/><path d="M120,21.19a12.23,12.23,0,0,1-12.21,12.2h-.06a12,12,0,0,1-1.47-.1l6.29,6.29A19.1,19.1,0,0,0,123.39,32,18.93,18.93,0,0,1,120,21.19Z" style="fill:#585856"/><path d="M186,32.09a18.94,18.94,0,0,1-3.43-10.89s0-.07,0-.11h0s0,.07,0,.11a12.23,12.23,0,0,1-12.22,12.22c-.36,0-.72,0-1.08-.06l6.18,6.18A19.12,19.12,0,0,0,186,32.09Z" style="fill:#585856"/><path d="M95.6,22.66m59.13,9.45h0a19.06,19.06,0,0,0,15.61,8.16,18.8,18.8,0,0,0,4.21-.5c.3-.07.59-.16.89-.24l-6.18-6.18a11.34,11.34,0,0,1-1.32-.19,12.25,12.25,0,0,1-9.57-9.57q-.12-.64-.18-1.32l-.05-1.2h0a12.21,12.21,0,0,1,24.41,0h0s0,.08,0,.12a19.06,19.06,0,0,0,38.1,1v-1s0-.08,0-.12,0-.22,0-.33a12.17,12.17,0,0,1,3.55-8.18l0,0a12.12,12.12,0,0,1,17.28,0,.05.05,0,0,1,0,0,12.17,12.17,0,0,1,3.58,8.63V40.27H252V21.19h0A19.09,19.09,0,0,0,239.52,3.31l-.22-.08c-.42-.15-.85-.29-1.29-.41l-.44-.11c-.39-.1-.78-.19-1.18-.27l-.69-.1c-.34,0-.68-.11-1-.14s-.94-.06-1.41-.07l-.35,0h0l-.35,0c-.47,0-.94,0-1.4.07s-.68.09-1,.14l-.69.1c-.4.08-.79.17-1.18.27l-.44.11c-.44.12-.87.26-1.3.41l-.21.08a19.19,19.19,0,0,0-9,7,18.8,18.8,0,0,0-3.43,10.54c0,.13,0,.24,0,.37h0v1a12.21,12.21,0,0,1-24.38-1s0-.08,0-.12h0A19,19,0,0,0,186,10.3h0a19,19,0,0,0-31.26,0v.08a19,19,0,0,0-3.4,10.72,12.51,12.51,0,0,1-3.61,8.71,12.2,12.2,0,0,1-3.85,2.63l0,0c-.33.14-.67.26-1,.37l-.12.05c-.32.1-.65.18-1,.25l-.2,0c-.33.07-.67.12-1,.16a1.38,1.38,0,0,0-.2,0c-.41,0-.83.06-1.25.06a12.23,12.23,0,0,1-12.22-12.21h0c0,.14,0,.27,0,.41,0-.14,0-.27,0-.41v-.11a19.64,19.64,0,0,0-.21-2.56c0-.19,0-.38-.08-.57a19.34,19.34,0,0,0-.61-2.55l0,0a18.22,18.22,0,0,0-.7-1.72c-.22-.51-.46-1-.73-1.51a2.12,2.12,0,0,0-.12-.2,18.31,18.31,0,0,0-1-1.59,19.08,19.08,0,0,0-15.65-8.23l-.27,0c-.63,0-1.25.05-1.87.11-.33,0-.66.1-1,.15l-1.06.2c-.38.09-.76.19-1.13.3s-.52.16-.78.25c-.42.14-.83.28-1.23.45l-.39.18a19.07,19.07,0,0,0-4.3,2.63l-.12.1c-.44.37-.86.75-1.26,1.15l-.13.12a20.31,20.31,0,0,0-2.11,2.6l-.35.54c-.37.58-.73,1.16-1,1.77a1.63,1.63,0,0,0-.11.23,18.59,18.59,0,0,0-.9,2.21c.13-.38.25-.76.4-1.12a18.7,18.7,0,0,0-1.48,7.19,12.16,12.16,0,0,1-3.54,8.59,12.32,12.32,0,0,1-3.85,2.63l0,0c-.32.14-.66.26-1,.37l-.12.05c-.32.1-.65.18-1,.25l-.19,0c-.33.07-.67.12-1,.16l-.21,0c-.4,0-.81.06-1.22.06h0A12.21,12.21,0,0,1,76.42,9h.18a9.47,9.47,0,0,1,1.07,0l.21,0,.14,0c.29,0,.59.08.87.14l.19,0c.34.07.67.15,1,.25l.12.05c.34.11.68.23,1,.37l0,0a12.32,12.32,0,0,1,3.85,2.63.05.05,0,0,1,0,0l0,0a24,24,0,0,1,3.44-6.14,18.93,18.93,0,0,0-12.1-4.35h0l-.26,0c-.64,0-1.26.05-1.88.11-.33,0-.65.1-1,.15l-1.06.2c-.38.09-.75.19-1.13.3s-.52.16-.78.25-.83.28-1.23.45l-.39.18a18.75,18.75,0,0,0-4.3,2.64l-.12.09c-.44.37-.86.75-1.26,1.15l-.13.12a20.18,20.18,0,0,0-2.13,2.57,19.08,19.08,0,0,0,2.14,24.27l.12.12c.4.4.82.78,1.26,1.15l.12.09a19.11,19.11,0,0,0,4.3,2.64l.39.18c.4.17.82.31,1.23.45s.52.18.78.25.75.21,1.13.29.7.14,1.06.2.65.12,1,.15c.62.07,1.24.11,1.88.12h.26c.61,0,1.21,0,1.81-.09l.59-.08c.4-.05.8-.1,1.19-.18l.69-.15c.35-.08.7-.17,1-.27l.71-.22c.32-.11.65-.23,1-.36l.68-.28.93-.45.63-.33c.33-.18.64-.38,1-.58s.36-.21.53-.33c.47-.32.92-.66,1.36-1l0,0a19,19,0,0,0,3.51-3.82l0,0h0a18.77,18.77,0,0,0,2.12,2.58l.13.12q.6.6,1.26,1.14l.12.1a19.11,19.11,0,0,0,4.3,2.64l.39.18c.4.17.81.31,1.22.45s.53.18.79.25.75.21,1.13.29.7.14,1.06.2.65.12,1,.15c.62.07,1.24.11,1.87.12h.27a18.49,18.49,0,0,0,4-.45c.28-.06.55-.15.83-.22l-6.29-6.29c-.43,0-.85-.16-1.27-.22C95.6,31.76,95.6,22.66,95.6,22.66a11.94,11.94,0,0,1-.1-1.46h0A12.23,12.23,0,0,1,107.71,9h.06A12.23,12.23,0,0,1,120,21.19h0A18.9,18.9,0,0,0,123.39,32l0,0h0a19.05,19.05,0,0,0,15.65,8.2c.61,0,1.23,0,1.83-.1l.59-.08c.41-.05.8-.1,1.2-.18.23,0,.45-.1.68-.15s.7-.17,1-.27l.7-.22c.33-.11.65-.23,1-.36l.68-.28c.32-.14.63-.3.93-.45l.64-.33c.32-.18.63-.38.94-.58s.36-.21.53-.33c.47-.32.92-.66,1.36-1a19,19,0,0,0,3.54-3.85m3.43-10.88h0" style="fill:#403839"/></svg>