<svg data-name="Layer 1" xmlns="http://www.w3.org/2000/svg" width="210" height="80.61" viewBox="0 0 210 80.61"><path d="M55.88,57.87H39.66C40,61,42,63.66,46.25,63.66a8.94,8.94,0,0,0,5.61-1.77,4.19,4.19,0,0,1,2.68-1.22,2.66,2.66,0,0,1,2.93,2.68c0,1.71-1.34,2.87-2.62,3.66a15.67,15.67,0,0,1-8.9,2.44c-9.15,0-13.9-6.34-13.9-14,0-8.05,5.79-14,13.78-14,7.62,0,12.68,6,12.68,14A2.34,2.34,0,0,1,55.88,57.87ZM45.82,47.38a5.81,5.81,0,0,0-6,5.31H51.55C51,49.88,49.05,47.38,45.82,47.38Z" style="fill:#1d1d1b"/><path d="M109.61,57.87H93.39c.36,3.17,2.38,5.79,6.59,5.79a8.94,8.94,0,0,0,5.61-1.77,4.2,4.2,0,0,1,2.68-1.22,2.66,2.66,0,0,1,2.93,2.68c0,1.71-1.34,2.87-2.62,3.66a15.66,15.66,0,0,1-8.9,2.44c-9.15,0-13.9-6.34-13.9-14,0-8.05,5.79-14,13.78-14,7.62,0,12.68,6,12.68,14A2.34,2.34,0,0,1,109.61,57.87ZM99.55,47.38a5.81,5.81,0,0,0-6,5.31h11.77C104.74,49.88,102.78,47.38,99.55,47.38Z" style="fill:#1d1d1b"/><path d="M149.26,45.43a3.49,3.49,0,0,1,3.54-3.66,3.54,3.54,0,0,1,3.54,3.72v.37a9.75,9.75,0,0,1,8.35-4.33c8.11,0,12.38,6.77,12.38,14s-4.33,14-12.38,14a9.24,9.24,0,0,1-8.11-4.33V77a3.66,3.66,0,0,1-7.32,0Zm13.84,2.32c-4.21,0-6.53,3.66-6.53,7.75s2.38,7.75,6.53,7.75,6.65-3.48,6.65-7.75S167.31,47.74,163.1,47.74Z" style="fill:#1d1d1b"/><path d="M196,69.45a13.66,13.66,0,0,1-14-14,14,14,0,0,1,27.93,0A13.66,13.66,0,0,1,196,69.45Zm0-21.59c-4.21,0-6.77,3.54-6.77,7.62s2.56,7.62,6.77,7.62,6.77-3.54,6.77-7.62S200.24,47.87,196,47.87Z" style="fill:#1d1d1b"/><path d="M12.87,41.71c7.34,0,12.87,5.28,12.87,12.56V65.62a3.64,3.64,0,1,1-7.28,0V53.73a5.29,5.29,0,0,0-5.58-5.58,5.29,5.29,0,0,0-5.58,5.58v11.9a3.64,3.64,0,1,1-7.28,0V54.27C0,47,5.52,41.71,12.87,41.71Z" style="fill:#1d1d1b"/><g style="opacity:0.85"><path d="M179.79,9l4.89-7.59A3,3,0,0,1,187.28,0a3.2,3.2,0,0,1,3.23,3A3.08,3.08,0,0,1,190,4.89l-4.47,6.87h8.22a3.12,3.12,0,1,1,0,6.24h-8.22C172.71,18,179.79,9,179.79,9Z" style="fill:#48a434"/></g><g style="opacity:0.85"><path d="M174.07,18h-8.22a3.12,3.12,0,1,1,0-6.24h8.22L169.6,4.89A3.09,3.09,0,0,1,169.07,3a3.2,3.2,0,0,1,3.23-3,3,3,0,0,1,2.6,1.46L179.79,9S186.87,18,174.07,18Z" style="fill:#f07e06"/></g><g style="opacity:0.85"><path d="M185.19,18.4,189,25.68a3.12,3.12,0,0,1-5.53,2.89l-3.81-7.28-4,7.14a3.08,3.08,0,0,1-1.42,1.33,3.2,3.2,0,0,1-4.17-1.46,3,3,0,0,1,.09-3l4.47-7.85S179.26,7,185.19,18.4Z" style="fill:#0371b9"/></g><path d="M130,60.32l-6.4,7.74a3.2,3.2,0,0,1-2.5,1.1A3.24,3.24,0,0,1,117.87,66a3.09,3.09,0,0,1,.73-2.07l7.32-8.54L118.79,47A2.88,2.88,0,0,1,118,44.9a3.09,3.09,0,0,1,3.35-3.17,2.92,2.92,0,0,1,2.32,1.1L130,50.44S134.85,55.17,130,60.32Z" style="fill:#1d1d1b"/><path d="M141,47l-3.58,4.26a3.18,3.18,0,1,1-4.9-4.06l3.58-4.26A3.18,3.18,0,1,1,141,47Z" style="fill:#1d1d1b"/><path d="M132.93,59.25a3.23,3.23,0,0,1,4.52.43L141,63.94a3.18,3.18,0,1,1-4.9,4.06l-3.58-4.26A3.22,3.22,0,0,1,132.93,59.25Z" style="fill:#1d1d1b"/><path d="M79.93,48.36a3.05,3.05,0,1,0,0-6.11H74.82V36.58a3.72,3.72,0,0,0-3.72-3.66,3.62,3.62,0,0,0-3.6,3.66v5.68H64.65a3.05,3.05,0,1,0,0,6.11h2.86V59.09c0,6.53,3,10.37,10.55,10.37h.85a3,3,0,1,0,0-6.1h-.12c-3,0-4-1.52-4-4v-11Z" style="fill:#1d1d1b"/></svg>