<svg id="Laag_1" xmlns="http://www.w3.org/2000/svg" width="193.2" height="193.2"><style>.st1{fill:#fff}</style><path d="M188.9 106.9L107 188.8c-5.7 5.7-15 5.7-20.7 0l-82-81.9c-5.7-5.7-5.7-15 0-20.7L86.2 4.3c5.7-5.7 15-5.7 20.7 0l81.9 81.9c5.8 5.7 5.8 15 .1 20.7z" fill="#e40521"/><path class="st1" d="M146.4 66.5c2.7-7.4 5.6-12.7 5.6-12.7l-8.4 1.1s-2.1 4.9-4.8 12.1c-15.6 1.3-37.6 5.1-61.5 11.1 1.3-4.5 2.5-8.9 3.7-13 1.4-4.8 1.3-9.2-2-10.6-5.2-2.1-17.6-.7-35.5 9.2L41 75.4c19-13 29-13.4 31.6-12.8.5.1.8.6.7 1.2-.2 1-1.9 6.5-2.8 9.4-.6 2-1.3 4.5-1.9 6.4l3.6-.4C56 84 48.2 86.6 39.9 91.7c-10 6-15.1 12.2-16 21.6-.6 6.2 2.1 13.8 12.5 15 6.1 0 7.9-.6 11.7-2.1 11.5-4.5 20.8-21.7 26.9-40.4 33.2-8.5 49.8-9.7 64.6-9.9l-4.1.9c-1.6 4.3-3.3 8.9-4.5 11.9-3.8 9.6-6.6 11.5-8.1 12.2.2-3.1-1.6-5.7-5.4-8.9-1.5-1.5-2.3-2.6-1.8-3.8.9-1.6 4.3-1.1 6.9.7l3.6-5.4c-5.9-4.3-13.2-3.2-16.1 1.8-2.2 3.8-1.5 7 2.2 10.2 3.3 2.8 4.5 4.9 3.9 7.3-.6 2-1.6 3.9-4.6 3.8-2.1-.1-3.4-1.6-3.5-3.1-.1-1.5.1-2.4.5-3.6l-4.5-3.3-2.6 6.2c-2.1 5-6.5 3-3.7-4 1.5-3.7 4.4-11.2 6.3-15.5-2.5.3-5.7 1.1-8.3 1.5l-4 10c-.1.3-.2.5-.3.8-4.5 12.4-13 12.2-11.8 7.6 1.4-5.5 4.3-11.1 6.3-16.7-2.6.4-5.8 1.3-7.7 1.7-2.2 6-4.1 9.5-5.5 15.4-1.7 7.1 3.1 9.6 6.8 10 2 .2 8.9-.5 12.5-6.5.7 3.3 2.2 5.3 5.9 5.5 1.7.1 4.6-1.6 5.9-3.8.5 2 3.3 4 5.6 4.1 0 0 1.7.2 2.5.1 3.9-.2 8.6-2 15.1-8.1.2 1.6.6 2.6 1.1 3.3 1.6 2.5 2.7 3.1 6.1 3.8 5.9 1.1 14-3.7 18.5-13.4l-6.4-4.6c-4.1 8.6-8.2 9.5-9.1 9.8-1.1.4-2 .2-2.5-.6-1.2-2.1 2.8-11.4 3.4-13.5.3-.9 2.7-7.1 5.4-14.2 10-.3 14.3.2 14.3.2l4.8-10.2c-.3.5-6.3.3-16.3 1zM38.9 120.6c-6 .5-9.2-3.1-7.4-10.5 1.2-5 7.4-11.1 13.7-14.4 6.3-3.3 9.4-4.2 20.2-7.3-6.5 20.2-14.9 31.2-26.5 32.2z"/><path class="st1" d="M68.6 121.6h1.9v8.3h-1.9v-8.3zM75.2 121.6h1.7l3.1 4.9v-4.9h1.9v8.3h-1.7l-3.1-4.9v4.9h-1.9v-8.3zM88.1 123.3h-2.2v-1.6h6.4v1.6H90v6.6h-1.9v-6.6zM96.2 127.7v-6h5.3v1.6h-3.4v1.6h3.1v1.6h-3.1v.8c0 .7.2.9.9.9h2.8v1.6h-3.4c-1.5.1-2.2-.8-2.2-2.1zM106.3 121.6h3c1.9 0 3.1.6 3.1 2.8 0 1.3-.6 2-1.3 2.4.9.7 1.8 2.5 1.8 3v.1h-2.1c-.1-.5-.8-2-1.5-2.5h-1.2v2.5h-1.9v-8.3zm2.6 4.3c1 0 1.5-.3 1.5-1.4s-.4-1.2-1.5-1.2h-.8v2.6h.8zM116.8 121.6h1.7l3.1 4.9v-4.9h1.9v8.3h-1.7l-3.1-4.9v4.9h-1.9v-8.3zM128.2 127.7v-6h5.3v1.6h-3.4v1.6h3.1v1.6h-3.1v.8c0 .7.2.9.9.9h2.8v1.6h-3.4c-1.5.1-2.2-.8-2.2-2.1zM139.8 123.3h-2.2v-1.6h6.4v1.6h-2.2v6.6h-1.9v-6.6z"/></svg>