<?xml version="1.0" encoding="utf-8"?>
<!-- Generator: Adobe Illustrator 19.0.0, SVG Export Plug-In . SVG Version: 6.00 Build 0)  -->
<svg version="1.1" id="svg" xmlns="http://www.w3.org/2000/svg" xmlns:xlink="http://www.w3.org/1999/xlink" x="0px" y="0px"
	 width="118px" height="144.6px" viewBox="35.2 320.7 118 144.6" style="enable-background:new 35.2 320.7 118 144.6;"
	 xml:space="preserve">
<path id="path1" style="fill:#05D573;" d="M89.2,320.9c-2.8,0.2-4.6,0.5-6,0.8c-0.3,0.1-1.1,0.2-1.7,0.4c-1.3,0.3-5,1.3-6.3,1.7
	c-3.3,1.1-3.6,1.3-7.5,3.2c-14.2,6.9-26,20.9-30,35.7c-3.3,12.1-3.3,22,0,34.2c1.4,5.3,5,12.7,8.5,17.4c2.5,3.4,3.8,4.9,7,8
	c24,23.4,63.9,21.7,85.8-3.8c4.2-4.9,7.1-9.6,9.9-16.2c0.6-1.5,1.6-4.2,1.9-5.5c3.3-12.1,3.3-22,0-34.2c-4-14.6-15.6-28.6-29.7-35.5
	c-2.8-1.4-5-2.4-5.3-2.4c-0.1,0-0.3-0.1-0.5-0.2c-0.8-0.4-6-2-8.3-2.4C100.3,320.7,95.4,320.4,89.2,320.9 M93.5,342.5
	c2.8,0.8,3.1,1.6,3.1,9c0,3.2,0.1,6,0.1,6.2c0.1,0.3,0.8,0.3,5.4,0.3c8.4,0,9.6,0.7,9.6,6c0,3.4-0.7,4.7-2.9,5.6
	c-0.7,0.3-19.3,0.4-21.1,0.2l-0.7-0.1L86.9,380c-0.1,13.7,0.2,15.6,2.4,18.9c5.8,8.6,20,6,22.1-4c0.1-0.6,0.3-1.6,0.5-2.2
	c0.7-3.5,1.9-4.3,6.7-4.3c6.6,0,7.5,1.9,5.3,10.1c-3,11.1-12.3,17.7-24.5,17.7c-4.1,0-6-0.3-9.1-1.3c-7-2.4-12.9-8.5-14.8-15.6
	c-1-3.9-1.2-5.5-1.2-13.6v-7.4h-5.2c-5.7,0-6.6-0.1-7.9-1c-2.3-1.5-2.7-7-0.7-9.3c1.4-1.6,0.9-1.5,13-1.5h10.8l-0.1-10
	c-0.1-11.1,0-11.5,1.3-12.9C86.6,342.3,90.8,341.7,93.5,342.5 M134.5,447.1c-2,0.8-1.4,3.6,0.7,3.6c2,0,2.7-2.8,0.8-3.6
	C135.2,446.8,135.1,446.8,134.5,447.1 M38,448.4c-0.3,0.1-0.4,0.4-0.4,1.8l-0.1,1.7l-1.2,0.1l-1.2,0.1l0.1,1.4l0.1,1.4l1.1,0.1
	l1.1,0.1l0.1,3.7c0.1,3.8,0.2,4.1,0.9,5.1c1,1.3,3.9,1.9,5.7,1.1c0.8-0.3,0.8-0.2,0.3-1.7c-0.2-0.6-0.4-1.1-0.4-1.1
	c0,0-0.5,0-1.2,0.1c-1.9,0.2-2.1-0.2-2.1-4.1v-3.1l1.8-0.1l1.8-0.1v-1.3v-1.3l-1.7-0.1l-1.7-0.1l-0.1-1.8l-0.1-1.8l-1.3,0
	C39,448.3,38.2,448.4,38,448.4 M52.3,451.8c-0.9,0.3-2,1-2,1.2c0,0.5-0.6,0.1-0.6-0.4c-0.1-0.6-0.1-0.6-1.5-0.6h-1.4v6.4v6.4
	l1.6,0.1l1.6,0.1l0.1-4c0.1-4.4,0.2-5.1,1.4-5.8c0.7-0.4,3-0.5,3.2-0.1c0.5,0.8,2.4-1.2,2-2.2C56.2,452,53.6,451.4,52.3,451.8
	 M61.5,451.9c-4,1.1-5.9,5-4.6,9.2c1.3,3.9,7.3,5.7,9.9,3.1c0.5-0.5,1-0.3,1,0.4c0,0.5,0,0.5,1.4,0.5h1.4v-6.5V452h-1.4
	c-1.4,0-1.4,0-1.4,0.5c0,0.8-0.3,0.8-1.3,0.2C65,451.6,63.3,451.4,61.5,451.9 M79.2,452c-0.6,0.2-1.3,0.6-1.5,0.8
	c-0.6,0.6-0.9,0.5-0.9-0.2V452l-1.5,0.1l-1.5,0.1v6.4v6.4l1.5,0.1c1.9,0.1,1.8,0.3,1.8-4.4l0-4l0.6-0.8c1.3-1.6,4.1-1.4,5.1,0.3
	c0.2,0.3,0.3,1.8,0.4,4.6l0.1,4.2l1.6,0.1c2,0.1,1.9,0.4,1.7-5.1c-0.1-3.7-0.1-4.2-0.5-5C84.8,452.1,82.1,451,79.2,452 M92.7,451.8
	c-2.6,0.7-3.8,1.9-3.8,3.9c0,2.5,1.4,3.5,5.7,4.2c2.3,0.4,3.1,1.4,1.7,2.2c-1.4,0.8-3.6,0.4-6-1c-0.2-0.1-0.5-0.2-0.5-0.2
	s-0.4,0.5-0.7,1c-1,1.2-0.1,2.3,2.4,3c4.9,1.3,8.7-0.3,8.7-3.7c0-2.4-1.3-3.4-5-4c-3-0.5-3.9-1.3-2.6-2.3c0.9-0.6,3-0.6,4.4,0.1
	l1,0.5l0.5-0.6c1.2-1.4,1.2-1.5,0.6-2C97.9,451.8,94.7,451.3,92.7,451.8 M106.6,451.9c-5.7,1.4-6.7,10-1.4,12.6
	c2.3,1.2,5.7,1,6.9-0.4c0.4-0.5,0.8-0.4,0.9,0.2c0.1,0.5,0.1,0.6,1.5,0.6l1.5,0.1v-6.5V452l-1.5,0.1c-1.4,0.1-1.5,0.1-1.5,0.6
	c-0.1,0.7-0.1,0.7-1,0C110.3,451.6,108.7,451.4,106.6,451.9 M143.8,451.9c-6.9,2-6.4,12.1,0.6,13.3c1.8,0.3,4.1-0.2,4.9-1.1
	c0.4-0.5,0.8-0.4,0.9,0.2c0.1,0.5,0.1,0.6,1.5,0.6l1.5,0.1v-6.5V452l-1.5,0.1c-1.3,0.1-1.5,0.1-1.5,0.5c-0.1,0.7-0.4,0.8-1,0.2
	C148,451.8,145.5,451.4,143.8,451.9 M117.6,452.1c0,0.2,0.8,2.2,1.3,3.3c0.3,0.6,0.5,1.1,0.5,1.2c0,0,0.3,0.7,0.6,1.4
	s0.6,1.4,0.6,1.4s0.3,0.7,0.6,1.4c0.3,0.7,0.8,1.8,1,2.5c0.7,1.8,0.6,1.8,2.6,1.7l1.7-0.1l1.1-2.6c0.6-1.5,1.3-3,1.5-3.5
	c0.2-0.5,0.4-0.9,0.4-1c0-0.1,0.3-0.7,0.6-1.4c0.3-0.7,0.7-1.6,0.9-2c0.2-0.4,0.4-1,0.6-1.4c0.5-1,0.4-1-1.4-1h-1.6l-0.3,0.8
	c-0.2,0.4-1,2.4-1.8,4.5c-0.8,2-1.5,3.8-1.6,3.8c-0.1,0.1-0.5-0.9-1-2.1c-0.5-1.2-0.9-2.4-1.1-2.7c-0.2-0.6-0.4-0.9-1-2.5
	c-0.7-1.8-0.6-1.7-2.6-1.7C118.3,452,117.6,452,117.6,452.1 M133.5,452.2c-0.1,0.1-0.1,3.1,0,6.5l0.1,6.2h1.6h1.6v-6.4v-6.4
	l-1.6-0.1C134.1,452,133.6,452,133.5,452.2 M65.3,454.9c3,1.2,2.8,6.2-0.3,7.2c-2.8,0.9-5.1-0.8-5.1-3.8
	C60,455.5,62.6,453.8,65.3,454.9 M110.5,454.9c2.3,1,2.9,4.5,1,6.3c-2.5,2.5-6.4,0.8-6.4-2.8C105.2,455.6,107.8,453.8,110.5,454.9
	 M148.4,455.3c4,3-0.5,9.3-4.6,6.4c-2.2-1.6-1.6-6.4,0.9-6.9C145.9,454.5,147.6,454.7,148.4,455.3"/>
</svg>
