<?xml version="1.0" encoding="utf-8"?>
<!-- Generator: Adobe Illustrator 19.0.0, SVG Export Plug-In . SVG Version: 6.00 Build 0)  -->
<svg version="1.1" id="Layer_1" xmlns="http://www.w3.org/2000/svg" xmlns:xlink="http://www.w3.org/1999/xlink" x="0px" y="0px"
	 width="158px" height="163.3px" viewBox="182 315.3 158 163.3" style="enable-background:new 182 315.3 158 163.3;"
	 xml:space="preserve">
<path style="fill:#D50F16;" d="M182,397v81.7h79h79V397v-81.7h-79h-79V397z M337.6,397v79.3H261h-76.6V397v-79.3H261h76.6V397z"/>
<path style="fill:#7D7E82;" d="M214.2,329.4c-1.2,0.4-2.5,1.7-2.5,2.4c0,0.3,0.4,0.2,1.7-0.5c1.3-0.7,2.2-1,3.8-1.1
	c2-0.2,2-0.2,1.3-0.5C217,329,215.5,329,214.2,329.4z"/>
<path style="fill:#7D7E82;" d="M290.3,329.4c-1.2,0.4-2.5,1.7-2.5,2.4c0,0.3,0.6,0.1,2-0.6c1.7-0.9,2.3-1,3.9-1
	c1.8,0,1.9-0.1,1.2-0.4C293.6,329.1,291.6,328.9,290.3,329.4z"/>
<path style="fill:#CB1118;" d="M252.8,329.9c-0.8,0.5-1.9,1.9-1.9,2.5c0,0.1,1-0.3,2.1-1c1.8-0.9,2.4-1.1,4-1.1c1,0,1.9,0,1.9-0.1
	c0-0.1-0.5-0.3-1-0.5C256.4,329.1,253.9,329.2,252.8,329.9z"/>
<path style="fill:#7D7E82;" d="M225.5,334c5.2,1.8,8.5,4,12.1,7.8c2.4,2.6,2.6,2.5,1-0.3c-1.3-2.1-3.6-4.7-5.3-5.7
	c-1.8-1.2-5.5-2.3-8.1-2.5l-2.1-0.2L225.5,334z"/>
<path style="fill:#CB1118;" d="M263.8,333.7c5.2,1.5,11.2,5.4,14.2,9.2c0.8,1,1.5,1.8,1.6,1.8c0.4,0-2.6-5-3.9-6.4
	c-2.6-2.9-6.7-4.6-11.7-5l-2.3-0.1L263.8,333.7z"/>
<path style="fill:#7D7E82;" d="M301.3,333.9c5.5,1.9,9.9,4.8,13.7,9.2l1.3,1.5l-1.1-2.1c-1.9-3.8-4.6-6.4-7.8-7.8
	c-1.7-0.7-5.5-1.5-7.1-1.5C299.3,333.1,299.3,333.2,301.3,333.9z"/>
<path style="fill:#7D7E82;" d="M223.6,337.7c-1.1,1.1-5,3.9-7.2,5c-1.1,0.5-3,1.3-4.3,1.8c-2.3,0.8-2.3,0.8-1.2,0.8
	c1.9,0,6.1-0.8,8.3-1.6c3.8-1.4,5.5-3.2,5.5-5.6C224.8,336.8,224.5,336.7,223.6,337.7z"/>
<path style="fill:#CB1118;" d="M262.9,337.9c-1,1-5.3,4-7.2,5c-0.7,0.4-2.6,1.1-4.3,1.6c-3.4,1.2-2.9,1.3,1.9,0.6
	c5-0.8,8.7-2.3,10.2-4.4c0.6-0.8,1.1-3.8,0.6-3.8C263.9,337,263.4,337.4,262.9,337.9z"/>
<path style="fill:#7D7E82;" d="M299.4,337.9c-2.2,2.3-7.7,5.4-12,6.8l-1.6,0.5l1.3,0c0.7,0,2.4-0.2,3.6-0.4c4.7-0.9,8.3-2.5,9.4-4.4
	c0.6-1,0.8-3.5,0.4-3.5C300.4,337,299.9,337.4,299.4,337.9z"/>
<path style="fill:#7D7E82;" d="M229.4,345.5c-4.5,0.9-6.7,2.7-6.9,5.8c-0.2,2.4,0.9,4.4,4,7.7c2.2,2.2,2.3,2.3,1.5,1
	c-1.6-2.4-2.3-4-2.5-5.8c-0.4-4.1,2-6.6,7.8-8.5l2.1-0.7h-1.9C232.3,345.1,230.5,345.3,229.4,345.5z"/>
<path style="fill:#CB1118;" d="M269.5,345.5c-6.7,1.2-9.2,4.7-6.8,9.4c0.8,1.5,5.1,6.6,5.4,6.4c0.1-0.1-0.4-0.9-1-1.9
	c-1.5-2.2-2.1-3.9-2.1-5.6c0-4,2.4-6.3,8.3-8.1l2.2-0.7h-1.8C272.6,345.1,270.8,345.3,269.5,345.5z"/>
<path style="fill:#7D7E82;" d="M306.3,345.4c-9,1.5-10.4,6.8-3.7,13.7l2.3,2.4l-1.2-1.9c-2.3-3.5-2.8-5.7-1.9-8.4
	c0.8-2.3,3.1-4.1,7.4-5.4l2.1-0.7l-1.8,0C308.6,345.1,307.1,345.2,306.3,345.4z"/>
<path style="fill:#CB1118;" d="M241,349.5c-3.1,1.6-5,4.6-5,8c0,6.1,6,10.4,11.8,8.4c2.2-0.8,4.8-3.3,5.4-5.5
	c0.1-0.4-0.2-0.2-0.8,0.7c-2,2.9-5.6,4.3-9,3.3c-3.2-0.9-5.8-4.4-5.8-7.7c0-2.8,2-6,4.5-7.2c0.8-0.4,1-0.6,0.7-0.6
	C242.4,348.9,241.6,349.2,241,349.5z"/>
<path style="fill:#7D7E82;" d="M314,349.4c-4.2,2.2-6,7.6-3.9,11.7c0.9,1.8,2.2,3.1,4.2,4.2c1,0.6,1.7,0.7,3.8,0.7
	c2.2,0,2.7-0.1,4-0.8c2.4-1.3,4.2-3.7,4.7-6.5c0.1-0.9,0.1-0.8-0.4,0.4c-0.8,2.1-2.1,3.6-4.1,4.5c-5.4,2.6-11.7-1.4-11.7-7.4
	c0-2.5,1.6-5.3,3.7-6.6C315.6,348.8,315.4,348.6,314,349.4z"/>
<path style="fill:#7D7E82;" d="M200.9,349.7c-2.7,1.7-4.1,4-4.2,7.3c-0.1,2.2-0.1,2.5,0.9,4.3c3.4,6.5,12.6,6.5,15.7-0.1
	c0.5-1,0.9-2.1,0.8-2.4c0-0.4-0.1-0.3-0.4,0.4c-0.7,1.8-2.1,3.5-3.8,4.4c-1.4,0.8-1.9,0.9-3.8,0.9c-1.8,0-2.5-0.1-3.7-0.8
	c-2.8-1.5-4.2-3.9-4.3-7.1c0-1.1,0.1-2.3,0.3-2.8c0.5-1.4,1.8-3.1,2.9-3.8C202.5,349.1,202.2,348.9,200.9,349.7z"/>
<path style="fill:#CB1118;" d="M277.2,349.5c-0.3,0.2-1.2,0.9-2,1.7c-4.4,4.3-3,11.8,2.7,14.4c1.9,0.9,5,0.8,7-0.1
	c2.8-1.2,4.8-4,5.3-7l0.2-1.2l-0.5,1.4c-1.4,3.7-4.1,5.7-7.8,5.7c-3.4,0-5.9-1.7-7.4-4.9c-0.6-1.3-0.7-1.9-0.6-3.6
	c0.2-2.4,1-4,2.8-5.6C278.3,349.2,278.4,348.9,277.2,349.5z"/>
<path style="fill:#424143;" d="M196.3,385.8l0.1,16.1h4.2h4.2l0.1-6l0.1-6l3.7,5.9c2,3.2,3.8,5.9,4,6.1c0.4,0.3,10.2,0.3,10.2,0
	c0-0.1-2.2-3.1-4.9-6.6c-4.7-6.1-4.9-6.4-4.2-6.7c2-0.8,2.6-1.2,3.6-2.2c1.9-1.9,2.4-3.4,2.4-6.9c0-2.8-0.1-3.3-0.8-4.6
	c-1-2-2.7-3.4-4.9-4.3c-1.7-0.7-2.2-0.7-9.9-0.8l-8.1-0.1L196.3,385.8z M209.3,376.8c1.5,0.7,2.3,2.2,2,3.8
	c-0.4,2.2-1.6,3.1-4.7,3.4l-1.7,0.2v-4v-4h1.6C207.3,376.2,208.5,376.5,209.3,376.8z"/>
<path style="fill:#424143;" d="M225.4,385.8l0.1,16.1l4.1,0.1l4.1,0.1v-16.2v-16.2h-4.2h-4.2L225.4,385.8z"/>
<path style="fill:#424143;" d="M239.3,385.9v16.2l7.5-0.1c7.1-0.1,7.6-0.2,9.6-0.9c7.5-2.7,12-10,10.9-17.7c-1-6.4-6-11.8-12.3-13.3
	c-1.4-0.3-3.7-0.4-8.8-0.4h-6.9V385.9z M253.7,377.7c3.2,1.4,4.9,4.2,4.9,8.2c0,3.8-1.4,6.3-4.3,7.8c-1.2,0.6-2,0.8-4.1,0.9
	l-2.6,0.1v-9v-9l2.3,0.1C251.4,377,252.8,377.3,253.7,377.7z"/>
<path style="fill:#424143;" d="M271.4,385.9V402l9.1-0.1l9.1-0.1v-3.6v-3.6l-5-0.1l-5-0.1V392v-2.7h4.8h4.8v-3.6v-3.6h-4.8h-4.8
	v-2.7v-2.7l5-0.1l5-0.1l0-1.5c0-0.8-0.1-2.4-0.1-3.5l-0.1-2h-9.1h-9.1V385.9z"/>
<path style="fill:#424143;" d="M292.8,377.3v7.3h0.7h0.7V381v-3.5l2.5-0.1c2.3-0.1,2.4-0.1,2.5-0.8c0.1-0.6,0-0.7-2.5-0.7h-2.6
	l0.1-2.2l0.1-2.1l2.5-0.1c2.4-0.1,2.4-0.1,2.4-0.8V370H296h-3.3V377.3z"/>
<path style="fill:#424143;" d="M305.3,370.6c-1.7,0.8-3.2,2.7-3.8,4.7c-1.7,5.8,4,11.1,9.7,9.1c4.1-1.5,6.1-6,4.4-9.9
	c-0.7-1.7-2.5-3.4-4-4.1C310.1,369.8,306.9,369.9,305.3,370.6z M311.8,372.3c3.4,2.1,3.5,7.5,0.3,9.7c-2.2,1.5-4.4,1.5-6.7,0.1
	c-3-1.9-3.5-6.4-0.9-9c1.2-1.2,2.4-1.6,4.3-1.7C310.2,371.5,310.7,371.6,311.8,372.3z"/>
<path style="fill:#424143;" d="M318.5,371.5c-0.1,0.9-0.2,4.2-0.2,7.3v5.7h0.9h0.9v-3.1c0-1.7,0.1-3.1,0.2-3.1
	c0.1,0,1.1,1.4,2.3,3.1c1.9,2.9,2.1,3.1,3,3.1c0.5,0,1-0.1,1-0.1s-0.9-1.4-2-2.9c-1.1-1.5-2-2.9-2.1-3.1c-0.1-0.2,0.3-0.5,0.9-0.7
	c2.7-1,3.1-5.7,0.5-7c-0.4-0.2-1.8-0.5-3.1-0.6l-2.3-0.2L318.5,371.5z M323.2,372.1c1.2,0.7,1.3,3.1,0.1,3.9
	c-0.4,0.2-1.2,0.5-1.9,0.6l-1.3,0.2v-2.8v-2.7l1.3,0.2C322.1,371.7,322.9,372,323.2,372.1z"/>
<path style="fill:#424143;" d="M291.6,386.6v0.9h1.9h1.9v7.3v7.3h0.9h0.9v-7.3v-7.3h1.9h1.9v-0.9v-0.9h-4.8h-4.8V386.6z"/>
<path style="fill:#424143;" d="M303.2,393.9v8.2h0.9h0.9v-4v-4h4.2h4.2v4v4h0.9h0.9v-8.2v-8.2h-0.9h-0.9v3.3v3.3h-4.2H305V389v-3.3
	h-0.9h-0.9V393.9z"/>
<path style="fill:#424143;" d="M318.6,393.9v8.2h4.2h4.2v-0.9v-0.9h-3.3h-3.3v-3.1V394h3.3h3.3v-0.9v-0.9h-3.3h-3.3v-2.4v-2.4h3.3
	h3.3v-0.9v-0.9h-4.2h-4.2V393.9z"/>
<path style="fill:#C4161D;" d="M265.5,405.6c-2.8,1-4.4,2.5-5.6,5.2c-0.7,1.5-0.8,2.2-0.8,4.3c0,4.8,1.6,6.6,7.7,8.5
	c4.7,1.5,5.9,2.7,4.8,4.9c-0.5,1.1-2,1.7-3.9,1.6c-1.5-0.1-3.4-0.8-5.4-2.3l-1-0.7l-1.5,2.9c-0.9,1.6-1.6,3.1-1.6,3.3
	c0,0.6,3.9,2.5,6.2,3.1c1.4,0.4,2.8,0.4,4.9,0.4c4-0.2,5.9-0.9,8.2-3.2c2-2,2.6-3.7,2.6-7.4c0-5-1.7-6.7-8.4-9c-3.1-1-4.4-2-4.4-3.1
	c0-1.3,1.7-2.5,3.6-2.5c1,0,3.7,1,4.5,1.6c0.5,0.5,0.6,0.4,2-2.5c0.8-1.6,1.5-3.1,1.5-3.1c0-0.2-1.9-1.1-3.7-1.7
	c-1.1-0.4-3-0.6-4.9-0.7C267.6,405,266.8,405.1,265.5,405.6z"/>
<path style="fill:#C4161D;" d="M312.6,405.5c-2.1,0.7-4.2,2.2-5.3,4c-1.2,2-1.5,3.2-1.5,5.6c0,2.9,0.4,4.1,2.1,5.7
	c1.2,1.2,1.9,1.5,5.2,2.6c4.3,1.4,5.5,2.2,5.5,3.7c0,3.3-4.6,4-8.8,1.2l-1.9-1.3l-1.6,3.1c-0.9,1.7-1.6,3.2-1.5,3.4
	c0.4,0.6,4.2,2.3,6.1,2.8c1.4,0.4,2.7,0.5,5.1,0.4c2.9-0.1,3.4-0.2,5.4-1.2c4-2,5.4-4.4,5.4-9.4c0-2.6-0.1-3-0.8-4.2
	c-1.1-1.9-3.2-3.2-6.8-4.4c-3.9-1.2-4.8-1.9-4.8-3.4c0-0.9,0.2-1.3,0.8-1.8c1.3-1,3.8-0.9,5.7,0.2c0.8,0.4,1.5,0.8,1.7,0.8
	s0.9-1.3,1.8-3l1.5-3l-1.4-0.6C320.5,405.1,315.6,404.6,312.6,405.5z"/>
<path style="fill:#C4161D;" d="M236.3,405.7c-1.6,0.6-6,3.6-8.2,5.7c-3.8,3.5-6.3,8.6-5.9,12.3c0.1,1.5,0.5,2.1,2.7,5.4
	c3.1,4.7,5.8,7.2,9.2,8.9c1.3,0.7,3.2,1.3,4.1,1.4c2.7,0.4,4.2,0,7.4-2.2c6.1-4,10.1-8.9,10.8-13.1c0.2-1,0-0.8-1,1.3
	c-2.3,4.7-6.9,8.2-12.2,9.4c-1.8,0.4-2.6,0.4-3.9,0.2c-5-0.9-8.9-4.5-11.3-10.3c-0.7-1.7-0.9-2.5-0.9-4.3c0-2,0.1-2.5,1.1-4.5
	c1.8-3.8,5-7.4,8.7-9.9C238,405.2,237.9,405.1,236.3,405.7z"/>
<path style="fill:#C4161D;" d="M196.3,420.9v15h4h4l0.1-5.6l0.1-5.6l3.6,5.6l3.6,5.6h4.8c2.7,0,4.8-0.1,4.8-0.2
	c0-0.1-1.9-2.6-4.2-5.7c-2.3-3.1-4.4-5.7-4.5-5.9c-0.1-0.2,0.3-0.6,1.3-1c3.3-1.4,4.9-4.4,4.7-8.7c-0.1-3.8-1.7-6.2-5-7.8
	c-1.3-0.6-2-0.6-9.3-0.7l-8-0.1V420.9z M208.4,412.5c1.1,0.6,1.4,0.9,1.7,1.9c0.9,2.7-1.1,4.9-4.5,4.9h-1.4v-3.7v-3.7h1.4
	C206.6,411.8,207.6,412.1,208.4,412.5z"/>
<path style="fill:#C4161D;" d="M283.9,420.9v15h8.6h8.6v-3.3v-3.3h-4.6h-4.6v-2.5v-2.5l4.4-0.1l4.4-0.1l0.1-3.4l0.1-3.3h-4.5h-4.5
	V415v-2.5h4.6h4.6v-3.3v-3.3h-8.6h-8.6V420.9z"/>
<path style="fill:#C4161D;" d="M239,408c-1.6,0.6-4.2,2.1-5.3,3c-0.5,0.4,0,0.3,1.5-0.4c3.1-1.4,5-1.6,7.8-0.7
	c1.9,0.6,2.4,0.9,4.1,2.6c2.6,2.7,3.6,4.6,3.8,7.5c0.2,3.4-0.6,5.2-3.6,8.2c-1.3,1.3-2.9,2.7-3.6,3c-1.8,0.9-4.7,0.9-6.7,0.2
	c-1.6-0.6-1.6-0.6-0.9,0c1.7,1.4,3.9,2.2,5.8,2.2c3,0,5.2-1.3,8.9-5c2.4-2.5,3.1-3.3,3.6-4.7c1.2-3.2,0.6-5.9-2-9.5
	c-1.9-2.6-5.6-5.7-7.3-6.3C243.2,407.2,240.7,407.3,239,408z"/>
<path style="fill:#C4161D;" d="M238.1,411.2c-1.3,0.4-2,0.9-4.4,3c-2.4,2.1-3.2,3.4-3.7,5.6c-0.4,2.1,0.1,3.5,2.6,6.4
	c1.7,2.1,2.5,2.8,3.9,3.5c2,1,4.5,1.2,6,0.4l0.9-0.5h-2c-3.4,0-6-1.8-7.6-5.3c-1.6-3.4-0.7-6.9,2.4-9.3c2.3-1.9,3.8-2.4,5.8-2.2
	c0.9,0.1,2.3,0.5,3,0.8c0.7,0.3,1.4,0.6,1.5,0.5c0.2-0.3-3.2-2.3-4.5-2.7C240.3,410.9,239.3,410.9,238.1,411.2z"/>
<path style="fill:#C4161D;" d="M238.2,414.8c-0.7,0.3-1.3,0.7-1.3,0.7c0,0.1,0.2,0.1,0.5-0.1c4.5-2.3,9.9,3.3,7.5,7.9
	c-1.3,2.5-4.3,4-6.7,3.4c-1.3-0.3-1.2,0,0.2,0.7c2.4,1.1,4.9,0.3,7.5-2.6c1.5-1.6,2-3.2,1.5-4.8c-0.4-1.4-3-4.5-4.4-5.3
	C241.8,414.1,239.8,414.1,238.2,414.8z"/>
<path style="fill:#C4161D;" d="M237.6,416.9c-1.2,0.7-2,2.3-1.7,3.4c0.1,0.4,0.4,1,0.8,1.4c0.6,0.7,0.6,0.7,0.3,0.1
	c-0.5-0.9-0.4-2.5,0.1-3.3c0.2-0.4,0.9-0.8,1.5-1c1.3-0.4,2.6,0.2,3.4,1.6c0.3,0.5,0.6,0.7,0.6,0.5c0-0.8-1.1-2.3-2-2.8
	C239.4,416.2,238.8,416.2,237.6,416.9z"/>
<path style="fill:#C4161D;" d="M242.7,417.6c0.6,1.2,0.6,2.8-0.1,3.8c-1.3,2-3.6,2.5-5.7,1.2c-1.2-0.8-1.8-1.5-2.1-3
	c-0.2-0.9-0.2-0.8-0.2,0.3c0,1.4,0.7,2.7,2.1,3.8c2.3,1.8,3.5,1.6,5.8-0.6l1.6-1.6L244,420c-0.1-1.3-0.3-1.8-1-2.5l-0.8-0.8
	L242.7,417.6z"/>
<path style="fill:#939192;" d="M196.5,444.1c-0.1,0.1-0.2,1.1-0.2,2.2c0,1.6,0.1,2,0.4,2c0.4,0,0.4-0.4,0.4-2.2
	C197.1,444.1,197,443.6,196.5,444.1z"/>
<path style="fill:#939192;" d="M198.6,446.2c0,1.8,0.1,2.2,0.4,2.2s0.5-0.4,0.5-1.4l0.1-1.4l0.7,1.4c0.6,1,0.9,1.4,1.4,1.4
	c0.7,0,0.7-0.1,0.6-2.2c-0.1-1.7-0.2-2.1-0.5-2.1c-0.3,0-0.5,0.4-0.6,1.3l-0.1,1.3l-0.7-1.3c-0.4-0.8-1-1.4-1.2-1.4
	C198.7,443.9,198.6,444.2,198.6,446.2z"/>
<path style="fill:#939192;" d="M205.9,445.9c-0.9,2.3-0.9,2.4-0.3,2.4c0.2,0,0.5-0.3,0.6-0.7c0.1-0.5,0.4-0.7,0.9-0.7s0.8,0.2,1,0.7
	c0.1,0.4,0.5,0.7,0.8,0.7s0.4-0.2,0.3-0.4c-0.1-0.2-0.4-1.2-0.8-2.2C207.5,443.2,206.9,443.3,205.9,445.9z M207.5,445.9
	c0,0.2-0.2,0.4-0.4,0.4c-0.3,0-0.4-0.2-0.3-0.6C207,445.1,207.5,445.2,207.5,445.9z"/>
<path style="fill:#939192;" d="M210.8,444.3c-0.4,0.2-0.8,0.8-1,1.3c-0.4,1.4,0.5,2.6,2.1,2.7c1,0.1,1.2,0,1.2-0.4
	c0-0.3-0.1-0.4-0.4-0.3c-0.2,0.1-0.8,0-1.2-0.1c-0.6-0.2-0.7-0.5-0.7-1.3c0-1.1,0.4-1.4,1.6-1.4c0.9,0,1.2-0.5,0.6-0.7
	C212.3,443.8,211.6,443.9,210.8,444.3z"/>
<path style="fill:#939192;" d="M213.8,444.4c0,0.3,0.3,0.4,0.7,0.4c0.7,0,0.7,0.1,0.7,1.8c0,1.4,0.1,1.8,0.4,1.8
	c0.4,0,0.4-0.4,0.4-1.8c0-1.7,0-1.8,0.8-1.8c0.5,0,0.7-0.1,0.7-0.4c-0.1-0.2-0.8-0.4-2-0.4C214.1,443.9,213.8,444,213.8,444.4z"/>
<path style="fill:#939192;" d="M218.4,444.1c-0.1,0.1-0.2,1.1-0.2,2.3c0,1.8,0.1,2,0.5,2c0.4-0.1,0.5-0.4,0.5-2.1
	C219.3,444.3,219,443.6,218.4,444.1z"/>
<path style="fill:#939192;" d="M220.6,446.2v2.2h1.5c1.7,0,2-0.7,0.3-0.8c-1.3-0.1-1.3-1,0-1c1.1,0,1-0.7-0.1-0.8
	c-1.1-0.1-1-1,0.1-1c0.6,0,0.9-0.1,0.9-0.4c0-0.3-0.4-0.4-1.3-0.4h-1.3V446.2z"/>
<path style="fill:#939192;" d="M226,444.3c0,0.2,0.3,1.2,0.7,2.2c0.5,1.5,0.8,1.9,1.3,1.9c0.6,0,0.8-0.4,2.1-4
	c0.1-0.3,0-0.5-0.3-0.5c-0.3,0-0.7,0.7-1.1,1.8l-0.7,1.8l-0.6-1.7C226.8,444.3,226,443.3,226,444.3z"/>
<path style="fill:#939192;" d="M231.7,444.2c-0.7,0.3-1.4,1.8-1.1,2.6c0.6,1.7,2.8,2.2,3.9,0.8c0.8-1,0.8-2-0.1-2.9
	C233.7,443.9,232.8,443.8,231.7,444.2z M233.9,446c0.1,1.4-0.5,2-1.6,1.5c-0.6-0.3-0.7-0.6-0.7-1.4c0-1.1,0.3-1.4,1.5-1.3
	C233.7,445,233.8,445.1,233.9,446z"/>
<path style="fill:#939192;" d="M237.1,444.2c-0.7,0.3-1.4,1.8-1.1,2.6c0.6,1.7,2.8,2.2,3.9,0.8c0.8-1,0.8-2-0.1-2.9
	C239,443.9,238.2,443.8,237.1,444.2z M239.3,446c0.1,1.4-0.5,2-1.6,1.5c-0.6-0.3-0.7-0.6-0.7-1.4c0-1.1,0.3-1.4,1.5-1.3
	C239.1,445,239.2,445.1,239.3,446z"/>
<path style="fill:#939192;" d="M241.6,444.1c-0.1,0.1-0.2,1.1-0.2,2.2c0,1.8,0.1,2,0.6,2c0.4,0,0.6-0.2,0.6-0.7
	c0-0.4,0.1-0.7,0.2-0.7c0.1,0,0.6,0.3,1,0.7c0.7,0.8,1.5,1,1.5,0.4c0-0.2-0.3-0.5-0.6-0.7c-0.5-0.3-0.5-0.5-0.3-0.9
	c0.5-0.8,0.1-2-0.7-2.2C242.8,443.9,241.8,443.9,241.6,444.1z M243.7,445.4c0.1,0.3-0.2,0.6-0.5,0.7c-0.5,0.1-0.6,0-0.6-0.6
	c0-0.5,0.1-0.7,0.5-0.6C243.4,444.9,243.7,445.2,243.7,445.4z"/>
<path style="fill:#939192;" d="M251.3,455c0.1,8.5,0.2,11,0.5,11.2c0.3,0.1,0.4-2.3,0.4-11c0-9.8-0.1-11.2-0.4-11.2
	C251.3,443.9,251.2,445.3,251.3,455z"/>
<path style="fill:#0773BB;" d="M259.1,444.2c-0.2,0.4,0.3,5.9,0.9,9.1c1.3,7.7,2.6,10.4,5.7,11.9l1.7,0.8l18.6,0.1
	c10.2,0.1,23.7,0,29.9-0.1l11.3-0.2l-0.1-10.9l-0.1-10.9l-33.9-0.1C273.7,444,259.2,444,259.1,444.2z M316.6,447.9
	c-0.1,1.2,0,1.4,0.4,1.4c0.5,0,0.5,0,0,0.4c-0.4,0.3-0.5,0.8-0.5,1.8c0,1.5,0.1,1.6,1.8,1.7c0.9,0.1,1,0,1-0.5
	c0-0.5-0.2-0.6-0.9-0.5c-0.7,0.1-0.8,0-0.7-0.4c0.1-0.3,0-0.5-0.3-0.5c-0.5,0-0.5,0,0-0.3c0.4-0.2,0.8-0.2,1.6,0.2
	c1,0.5,1.1,0.7,1.1,1.6c0,1,0,1.1,0.5,0.6c0.3-0.3,0.7-0.9,1-1.4l0.4-0.9l0,0.9c0,0.5-0.3,1.3-0.6,1.9l-0.7,1.1l0.7-0.5
	c0.4-0.3,1-0.9,1.2-1.3l0.6-0.8v0.7c0,1-0.3,1.3-1.5,2.2c-1.3,1-0.4,1,1,0c0.7-0.5,1.1-0.6,1.1-0.3c0,0.5-1.1,1.5-2.3,2
	c-0.5,0.2-0.9,0.5-0.8,0.6c0.3,0.5,1.4,0.3,2.1-0.4c0.4-0.4,0.7-0.5,0.7-0.3c0,1.4-1.6,2.3-3.1,1.9c-0.6-0.2-1.2-0.2-1.4,0
	c-0.2,0.1-0.9,0.3-1.5,0.3h-1.1v2.2c0,2.2-0.4,3.1-0.7,1.9c-0.1-0.4-0.2-1.4-0.2-2.4c0-1.7,0-1.7-0.9-1.7c-0.5,0-1.1-0.1-1.4-0.3
	c-0.4-0.2-0.9-0.2-1.5,0c-1.5,0.4-3-0.3-3-1.4c0-0.3,0.2-0.2,0.8,0.2c0.6,0.5,0.9,0.5,1.5,0.2l0.7-0.3l-1.3-0.6
	c-1.5-0.6-2.3-1.3-2.3-1.9c0-0.3,0.4-0.1,1.1,0.3c1.6,1.1,2.1,0.9,0.7-0.3c-0.8-0.7-1.2-1.3-1.2-1.9c0-0.7,0-0.7,0.4-0.2
	c0.8,1,1.7,1.9,2,1.9c0.1,0-0.1-0.4-0.5-0.9c-0.4-0.5-0.8-1.3-0.8-1.8c0-1.1,0.2-1.1,0.7,0.1c0.2,0.5,0.7,1.2,1,1.4
	c0.5,0.4,0.5,0.4,0.3-0.2c-0.1-0.4-0.1-0.9,0-1.3c0.3-0.8,2-1.6,2.8-1.2c0.5,0.3,0.5,0.3,0,0.3c-0.4,0-0.4,0.1-0.3,0.5
	c0.1,0.4,0,0.4-0.7,0.4c-0.6-0.1-0.9,0.1-1,0.4c-0.1,0.6,0.7,0.9,1.9,0.6c0.8-0.2,0.9-0.3,1-1.9c0.1-1.6,0.1-1.7-0.7-1.7
	c-1,0-1.6-1.2-1-1.9c0.5-0.6,1.8-1.3,2.4-1.2C316.6,446.4,316.7,446.8,316.6,447.9z M293.4,447.2c0,0.3,0.1,0.6,0.3,0.6
	c0.1,0,0.4-0.3,0.6-0.6s0.6-0.6,0.9-0.6h0.6l-0.6,0.9c-0.8,1-0.8,1.2,0,2.1c0.7,0.9,0.7,1.2,0.1,1.2c-0.3,0-0.8-0.4-1.1-1l-0.6-1
	l-0.1,1c-0.1,0.6-0.3,1-0.5,1c-0.3,0-0.4-0.5-0.4-2.1c0-1.7,0.1-2.1,0.4-2.1C293.2,446.6,293.4,446.9,293.4,447.2z M297.4,447.3
	c0.1,0.4,0.2,1.1,0.2,1.6c0,0.9,0,0.9,0.3,0.1c0.1-0.4,0.3-1.1,0.4-1.6c0.1-0.5,0.4-0.8,0.8-0.8c0.4,0,0.6,0.3,0.8,1.3
	c0.2,1.4,0.7,1.6,0.7,0.3c0-1,0.3-1.6,0.8-1.6c0.3,0,0.4,0.2,0.2,1c-0.5,2.6-0.8,3.2-1.3,3.2c-0.5,0-0.6-0.1-1-1.9
	c-0.2-0.9-0.2-0.9-0.6,0.4c-0.2,1-0.5,1.4-0.9,1.4c-0.5,0.1-0.7-0.2-1-1.7c-0.2-1-0.4-1.9-0.4-2.1
	C296.3,446.3,297.1,446.6,297.4,447.3z M305.3,446.9c0,0.1-0.4,0.3-0.9,0.3c-0.7,0-0.9,0.1-0.9,0.6c0,0.4,0.2,0.6,0.7,0.6
	c0.4,0,0.7,0.1,0.7,0.3c0,0.1-0.3,0.3-0.7,0.3c-0.6,0-0.7,0.1-0.7,0.9c0,0.6-0.1,0.9-0.4,0.9c-0.4,0-0.4-0.4-0.4-2.1v-2.1h1.3
	C304.7,446.6,305.3,446.7,305.3,446.9z M283.3,453.6l0,0.8l0.7-0.8c0.4-0.5,0.9-0.8,1.2-0.7c0.4,0.1,0.4,0.1-0.1,0.9
	c-0.8,1-0.8,1.3,0,2.3c0.9,1.3,0.1,1.5-0.9,0.3l-0.8-1l-0.1,0.9c0,0.5-0.3,0.9-0.4,1c-0.3,0.1-0.4-0.4-0.4-2c0-1.1,0.1-2.1,0.2-2.2
	C283,452.6,283.3,452.9,283.3,453.6z M289,454.6c0.3,1,0.5,2,0.5,2.2c0,0.7-0.6,0.5-0.9-0.3c-0.4-1-0.9-1-1.7,0.1
	c-0.4,0.5-0.7,0.7-0.8,0.7c-0.1-0.1,0.3-1.8,1.2-4.1c0.1-0.2,0.4-0.4,0.7-0.4C288.4,452.8,288.6,453.3,289,454.6z M292.1,454.2
	l0.6,1.4l0.1-1.3c0.1-0.7,0.3-1.4,0.5-1.5c0.3-0.1,0.4,0.4,0.3,2.1c-0.1,2.6-0.6,2.9-1.6,0.8l-0.6-1.3l-0.1,1.3
	c-0.1,0.7-0.3,1.4-0.4,1.5c-0.3,0.1-0.4-0.5-0.4-2.1c0-2,0.1-2.3,0.6-2.3C291.4,452.8,291.7,453.3,292.1,454.2z M295.7,453.6l0,0.8
	l0.6-0.8c0.3-0.4,0.9-0.8,1.2-0.8c0.6,0,0.5,0.1-0.2,1l-0.8,1l0.6,0.9c0.7,1,0.8,1.5,0.2,1.5c-0.2,0-0.7-0.4-1-1l-0.5-1l-0.2,0.9
	c-0.1,0.5-0.3,0.9-0.5,1c-0.3,0.1-0.4-0.5-0.4-2.1c0-1.8,0.1-2.3,0.4-2.3C295.6,452.8,295.7,453.1,295.7,453.6z M301.1,453.3
	c0,0.3-0.3,0.4-0.7,0.4s-0.7,0.2-0.7,0.4c0,0.3,0.3,0.4,0.8,0.4c0.9,0,0.8,0.7-0.1,0.8c-1,0.1-0.8,1,0.3,1c1.4,0,0.9,0.7-0.6,0.8
	l-1.2,0.1v-2c0-1.1,0.1-2.1,0.2-2.2c0.1-0.1,0.6-0.2,1.2-0.2C300.8,452.8,301.1,453,301.1,453.3z M304.4,453.2
	c0.4,0.2,0.6,0.6,0.5,1.5c0,0.7,0.1,1.5,0.2,1.9c0.3,1-0.5,0.9-1-0.1c-0.5-0.9-0.8-1-1-0.1c-0.1,0.4-0.3,0.7-0.4,0.8
	c-0.3,0.1-0.4-0.5-0.4-2.1c0-2.2,0-2.3,0.8-2.3C303.5,452.8,304.1,453,304.4,453.2z M272,459.8c0.2,0.2,0.3,0.7,0.2,0.9
	c-0.1,0.3,0,0.7,0.1,0.9c0.3,0.3,0.3,0.6,0,1.1c-0.3,0.6-0.6,0.7-1.5,0.7h-1.2v-2.1v-2.1h1C271.2,459.4,271.8,459.6,272,459.8z
	 M275.8,459.7c0,0.1-0.3,0.3-0.7,0.3c-0.5,0-0.7,0.1-0.7,0.6c0,0.4,0.2,0.6,0.6,0.6c0.3,0,0.6,0.1,0.6,0.3c0,0.1-0.3,0.3-0.6,0.3
	c-0.4,0-0.6,0.2-0.6,0.6c0,0.4,0.2,0.6,0.7,0.6c0.4,0,0.7,0.1,0.7,0.3c0,0.1-0.6,0.3-1.3,0.3h-1.3v-1.9c0-1,0.1-2,0.2-2.1
	C273.7,459.2,275.8,459.3,275.8,459.7z M279,459.7c-0.1,0.2-0.4,0.4-0.7,0.4c-0.8,0-0.9,0.7-0.2,0.9c0.9,0.3,1.3,1.2,0.9,2
	c-0.3,0.4-0.6,0.6-1.4,0.5c-1.1-0.1-1.4-0.7-0.4-0.7c0.9,0,1-0.6,0.1-1.2c-0.7-0.5-1-1.6-0.5-2C277.3,459.2,279.2,459.3,279,459.7z
	 M282.2,459.9c-0.6,0.4-0.7,0.7-0.7,2c0,1.2-0.1,1.6-0.4,1.6c-0.4,0-0.4-0.4-0.4-1.8s-0.1-1.8-0.4-1.8c-0.2,0-0.4-0.1-0.4-0.3
	c0-0.2,0.7-0.3,1.6-0.3C282.8,459.4,282.8,459.4,282.2,459.9z M286,460c0.2,0.5,0.2,0.8,0,1.4c-0.3,0.6-0.2,0.9,0.1,1.4
	c0.5,0.7,0.4,0.7-0.1,0.7c-0.4,0-0.8-0.3-1-0.7c-0.2-0.4-0.4-0.7-0.6-0.7c-0.1,0-0.2,0.3-0.2,0.7c0,0.5-0.2,0.7-0.4,0.7
	c-0.4,0-0.4-0.4-0.4-2.1v-2.1h1.2C285.4,459.4,285.7,459.5,286,460z M288,461.4c0,1.7-0.1,2.1-0.4,2.1c-0.4,0-0.4-0.4-0.4-2.1
	s0.1-2.1,0.4-2.1C287.9,459.4,288,459.8,288,461.4z M290,461.8c-0.1,2.3-0.1,2.5-0.7,2.6c-0.7,0.1-0.9-0.4-0.4-0.7
	c0.2-0.1,0.3-1.1,0.3-2.3c0-1.6,0.1-2,0.4-2C290,459.4,290.1,459.8,290,461.8z M294.1,459.8c0.7,0.7,0.9,1.8,0.4,2.6
	c-0.5,1-0.8,1.1-2.1,1.1h-1.1v-2.1v-2.1h1.2C293.1,459.4,293.8,459.6,294.1,459.8z M296.6,461.4c-0.1,1.2-0.2,2-0.4,2.1
	c-0.3,0.1-0.4-0.4-0.4-2c0-1.7,0.1-2.1,0.4-2.1C296.6,459.4,296.6,459.7,296.6,461.4z M299.3,460.6l0.6,1.3v-1.3
	c0-0.9,0.1-1.2,0.5-1.2c0.4,0,0.4,0.4,0.4,2.1c0,1.8-0.1,2.1-0.5,2.1c-0.4,0-0.7-0.4-1.1-1.3l-0.6-1.2l-0.1,1.2
	c-0.1,0.9-0.2,1.3-0.5,1.3c-0.3,0-0.4-0.5-0.4-2.1c0-1.9,0.1-2.1,0.6-2.1C298.6,459.4,298.9,459.8,299.3,460.6z M305,459.8
	c0,0.4-0.2,0.4-0.7,0.3c-0.4-0.1-0.8,0-1,0.1c-0.6,0.5-0.5,2,0.2,2.3c0.6,0.4,0.9,0.1,0.9-0.7c0-0.3,0.1-0.5,0.4-0.4
	c0.2,0.1,0.4,0.5,0.4,1c0,0.8-0.1,0.9-1,1c-1.5,0.1-2.2-0.5-2.2-2c0-1.5,0.5-2.1,2-2.1C304.7,459.4,305,459.5,305,459.8z"/>
<path style="fill:#0773BB;" d="M314.7,447.7c-0.3,0.3-0.3,0.6-0.1,1c0.5,0.8,1,0.7,1-0.2C315.6,447.3,315.3,447,314.7,447.7z"/>
<path style="fill:#0773BB;" d="M315.6,455.1c0,1,0.1,1.3,0.4,1.3s0.4-0.4,0.4-1.3s-0.1-1.3-0.4-1.3S315.6,454.1,315.6,455.1z"/>
<path style="fill:#0773BB;" d="M287.6,454.6c-0.1,0.4,0,0.6,0.2,0.6c0.2,0,0.3-0.2,0.2-0.6c-0.1-0.3-0.2-0.6-0.2-0.6
	C287.8,454,287.7,454.3,287.6,454.6z"/>
<path style="fill:#0773BB;" d="M303.2,454.3c0,0.3,0.2,0.6,0.4,0.6c0.2,0,0.4-0.3,0.4-0.6s-0.2-0.6-0.4-0.6
	C303.4,453.7,303.2,454,303.2,454.3z"/>
<path style="fill:#0773BB;" d="M270.5,460.6c0,0.3,0.1,0.6,0.3,0.6c0.3,0,0.7-0.8,0.4-1C270.8,459.8,270.5,460,270.5,460.6z"/>
<path style="fill:#0773BB;" d="M270.5,462.3c0,0.4,0.1,0.5,0.4,0.4c0.2-0.1,0.4-0.4,0.4-0.6c0-0.2-0.2-0.4-0.4-0.4
	C270.7,461.7,270.5,462,270.5,462.3z"/>
<path style="fill:#0773BB;" d="M284.4,460.1c-0.3,0.3-0.2,1.3,0.1,1.3c0.4,0,0.7-0.9,0.4-1.2C284.7,460.1,284.5,460.1,284.4,460.1z"
	/>
<path style="fill:#0773BB;" d="M292.2,461.3c0,1.2,0.1,1.3,0.7,1.2c0.9-0.1,1.1-1.7,0.3-2.2C292.3,459.7,292.2,459.9,292.2,461.3z"
	/>
<g id="XMLID_1_">
	<defs>
		<rect id="XMLID_2_" x="316.2" y="444" width="11.1" height="21.8"/>
	</defs>
	<clipPath id="XMLID_15_">
		<use xlink:href="#XMLID_2_"  style="overflow:visible;"/>
	</clipPath>
	<path id="XMLID_3_" style="clip-path:url(#XMLID_15_);fill:#ED313A;" d="M259.2,444.2c-0.2,0.4,0.3,5.9,0.9,9.1
		c1.3,7.7,2.6,10.4,5.7,11.9l1.7,0.8l18.6,0.1c10.2,0.1,23.7,0,29.9-0.1l11.3-0.2l-0.1-10.9l-0.1-10.9l-33.9-0.1
		C273.9,443.9,259.3,444,259.2,444.2z M316.7,447.8c-0.1,1.2,0,1.4,0.4,1.4c0.5,0,0.5,0,0,0.4c-0.4,0.3-0.5,0.8-0.5,1.8
		c0,1.5,0.1,1.6,1.8,1.7c0.9,0.1,1,0,1-0.5c0-0.5-0.2-0.6-0.9-0.5c-0.7,0.1-0.8,0-0.7-0.4c0.1-0.3,0-0.5-0.3-0.5c-0.5,0-0.5,0,0-0.3
		c0.4-0.2,0.8-0.2,1.6,0.2c1,0.5,1.1,0.7,1.1,1.6c0,1,0,1.1,0.5,0.6c0.3-0.3,0.7-0.9,1-1.4l0.4-0.9l0,0.9c0,0.5-0.3,1.3-0.6,1.9
		L321,455l0.7-0.5c0.4-0.3,1-0.9,1.2-1.3l0.6-0.8v0.7c0,1-0.3,1.3-1.5,2.2c-1.3,1-0.4,1,1,0c0.7-0.5,1.1-0.6,1.1-0.3
		c0,0.5-1.1,1.5-2.3,2c-0.5,0.2-0.9,0.5-0.8,0.6c0.3,0.5,1.4,0.3,2.1-0.4c0.4-0.4,0.7-0.5,0.7-0.3c0,1.4-1.6,2.3-3.1,1.9
		c-0.6-0.2-1.2-0.2-1.4,0c-0.2,0.1-0.9,0.3-1.5,0.3h-1.1v2.2c0,2.2-0.4,3.1-0.7,1.9c-0.1-0.4-0.2-1.4-0.2-2.4c0-1.7,0-1.7-0.9-1.7
		c-0.5,0-1.1-0.1-1.4-0.3c-0.4-0.2-0.9-0.2-1.5,0c-1.5,0.4-3-0.3-3-1.4c0-0.3,0.2-0.2,0.8,0.2c0.6,0.5,0.9,0.5,1.5,0.2l0.7-0.3
		l-1.3-0.6c-1.5-0.6-2.3-1.3-2.3-1.9c0-0.3,0.4-0.1,1.1,0.3c1.6,1.1,2.1,0.9,0.7-0.3c-0.8-0.7-1.2-1.3-1.2-1.9c0-0.7,0-0.7,0.4-0.2
		c0.8,1,1.7,1.9,2,1.9c0.1,0-0.1-0.4-0.5-0.9c-0.4-0.5-0.8-1.3-0.8-1.8c0-1.1,0.2-1.1,0.7,0.1c0.2,0.5,0.7,1.2,1,1.4
		c0.5,0.4,0.5,0.4,0.3-0.2c-0.1-0.4-0.1-0.9,0-1.3c0.3-0.8,2-1.6,2.8-1.2c0.5,0.3,0.5,0.3,0,0.3c-0.4,0-0.4,0.1-0.3,0.5
		c0.1,0.4,0,0.4-0.7,0.4c-0.6-0.1-0.9,0.1-1,0.4c-0.1,0.6,0.7,0.9,1.9,0.6c0.8-0.2,0.9-0.3,1-1.9c0.1-1.6,0.1-1.7-0.7-1.7
		c-1,0-1.6-1.2-1-1.9c0.5-0.6,1.8-1.3,2.4-1.2C316.7,446.4,316.8,446.8,316.7,447.8z M293.5,447.2c0,0.3,0.1,0.6,0.3,0.6
		c0.1,0,0.4-0.3,0.6-0.6s0.6-0.6,0.9-0.6h0.6l-0.6,0.9c-0.8,1-0.8,1.2,0,2.1c0.7,0.9,0.7,1.2,0.1,1.2c-0.3,0-0.8-0.4-1.1-1l-0.6-1
		l-0.1,1c-0.1,0.6-0.3,1-0.5,1c-0.3,0-0.4-0.5-0.4-2.1c0-1.7,0.1-2.1,0.4-2.1C293.3,446.6,293.5,446.8,293.5,447.2z M297.5,447.2
		c0.1,0.4,0.2,1.1,0.2,1.6c0,0.9,0,0.9,0.3,0.1c0.1-0.4,0.3-1.1,0.4-1.6c0.1-0.5,0.4-0.8,0.8-0.8c0.4,0,0.6,0.3,0.8,1.3
		c0.2,1.4,0.7,1.6,0.7,0.3c0-1,0.3-1.6,0.8-1.6c0.3,0,0.4,0.2,0.2,1c-0.5,2.6-0.8,3.2-1.3,3.2c-0.5,0-0.6-0.1-1-1.9
		c-0.2-0.9-0.2-0.9-0.6,0.4c-0.2,1-0.5,1.4-0.9,1.4c-0.5,0.1-0.7-0.2-1-1.7c-0.2-1-0.4-1.9-0.4-2.1
		C296.5,446.3,297.3,446.5,297.5,447.2z M305.4,446.9c0,0.1-0.4,0.3-0.9,0.3c-0.7,0-0.9,0.1-0.9,0.6c0,0.4,0.2,0.6,0.7,0.6
		c0.4,0,0.7,0.1,0.7,0.3c0,0.1-0.3,0.3-0.7,0.3c-0.6,0-0.7,0.1-0.7,0.9c0,0.6-0.1,0.9-0.4,0.9c-0.4,0-0.4-0.4-0.4-2.1v-2.1h1.3
		C304.8,446.6,305.4,446.7,305.4,446.9z M283.4,453.6l0,0.8l0.7-0.8c0.4-0.5,0.9-0.8,1.2-0.7c0.4,0.1,0.4,0.1-0.1,0.9
		c-0.8,1-0.8,1.3,0,2.3c0.9,1.3,0.1,1.5-0.9,0.3l-0.8-1l-0.1,0.9c0,0.5-0.3,0.9-0.4,1c-0.3,0.1-0.4-0.4-0.4-2c0-1.1,0.1-2.1,0.2-2.2
		C283.2,452.6,283.4,452.8,283.4,453.6z M289.2,454.6c0.3,1,0.5,2,0.5,2.2c0,0.7-0.6,0.5-0.9-0.3c-0.4-1-0.9-1-1.7,0.1
		c-0.4,0.5-0.7,0.7-0.8,0.7c-0.1-0.1,0.3-1.8,1.2-4.1c0.1-0.2,0.4-0.4,0.7-0.4C288.5,452.8,288.8,453.2,289.2,454.6z M292.2,454.2
		l0.6,1.4l0.1-1.3c0.1-0.7,0.3-1.4,0.5-1.5c0.3-0.1,0.4,0.4,0.3,2.1c-0.1,2.6-0.6,2.9-1.6,0.8l-0.6-1.3l-0.1,1.3
		c-0.1,0.7-0.3,1.4-0.4,1.5c-0.3,0.1-0.4-0.5-0.4-2.1c0-2,0.1-2.3,0.6-2.3C291.5,452.8,291.8,453.2,292.2,454.2z M295.9,453.6l0,0.8
		l0.6-0.8c0.3-0.4,0.9-0.8,1.2-0.8c0.6,0,0.5,0.1-0.2,1l-0.8,1l0.6,0.9c0.7,1,0.8,1.5,0.2,1.5c-0.2,0-0.7-0.4-1-1l-0.5-1l-0.2,0.9
		c-0.1,0.5-0.3,0.9-0.5,1c-0.3,0.1-0.4-0.5-0.4-2.1c0-1.8,0.1-2.3,0.4-2.3C295.7,452.8,295.9,453.1,295.9,453.6z M301.2,453.2
		c0,0.3-0.3,0.4-0.7,0.4s-0.7,0.2-0.7,0.4s0.3,0.4,0.8,0.4c0.9,0,0.8,0.7-0.1,0.8c-1,0.1-0.8,1,0.3,1c1.4,0,0.9,0.7-0.6,0.8
		l-1.2,0.1v-2c0-1.1,0.1-2.1,0.2-2.2c0.1-0.1,0.6-0.2,1.2-0.2C300.9,452.8,301.2,453,301.2,453.2z M304.5,453.1
		c0.4,0.2,0.6,0.6,0.5,1.5c0,0.7,0.1,1.5,0.2,1.9c0.3,1-0.5,0.9-1-0.1c-0.5-0.9-0.8-1-1-0.1c-0.1,0.4-0.3,0.7-0.4,0.8
		c-0.3,0.1-0.4-0.5-0.4-2.1c0-2.2,0-2.3,0.8-2.3C303.6,452.8,304.2,453,304.5,453.1z M272.1,459.8c0.2,0.2,0.3,0.7,0.2,0.9
		c-0.1,0.3,0,0.7,0.1,0.9c0.3,0.3,0.3,0.6,0,1.1c-0.3,0.6-0.6,0.7-1.5,0.7h-1.2v-2.1v-2.1h1C271.3,459.3,271.9,459.5,272.1,459.8z
		 M276,459.6c0,0.1-0.3,0.3-0.7,0.3c-0.5,0-0.7,0.1-0.7,0.6c0,0.4,0.2,0.6,0.6,0.6c0.3,0,0.6,0.1,0.6,0.3c0,0.1-0.3,0.3-0.6,0.3
		c-0.4,0-0.6,0.2-0.6,0.6c0,0.4,0.2,0.6,0.7,0.6c0.4,0,0.7,0.1,0.7,0.3c0,0.1-0.6,0.3-1.3,0.3h-1.3v-1.9c0-1,0.1-2,0.2-2.1
		C273.8,459.2,276,459.3,276,459.6z M279.2,459.7c-0.1,0.2-0.4,0.4-0.7,0.4c-0.8,0-0.9,0.7-0.2,0.9c0.9,0.3,1.3,1.2,0.9,2
		c-0.3,0.4-0.6,0.6-1.4,0.5c-1.1-0.1-1.4-0.7-0.4-0.7c0.9,0,1-0.6,0.1-1.2c-0.7-0.5-1-1.6-0.5-2
		C277.5,459.2,279.3,459.3,279.2,459.7z M282.3,459.8c-0.6,0.4-0.7,0.7-0.7,2c0,1.2-0.1,1.6-0.4,1.6c-0.4,0-0.4-0.4-0.4-1.8
		s-0.1-1.8-0.4-1.8c-0.2,0-0.4-0.1-0.4-0.3c0-0.2,0.7-0.3,1.6-0.3C282.9,459.4,282.9,459.4,282.3,459.8z M286.1,460
		c0.2,0.5,0.2,0.8,0,1.4c-0.3,0.6-0.2,0.9,0.1,1.4c0.5,0.7,0.4,0.7-0.1,0.7c-0.4,0-0.8-0.3-1-0.7c-0.2-0.4-0.4-0.7-0.6-0.7
		c-0.1,0-0.2,0.3-0.2,0.7c0,0.5-0.2,0.7-0.4,0.7c-0.4,0-0.4-0.4-0.4-2.1v-2.1h1.2C285.5,459.3,285.9,459.5,286.1,460z M288.2,461.4
		c0,1.7-0.1,2.1-0.4,2.1c-0.4,0-0.4-0.4-0.4-2.1c0-1.7,0.1-2.1,0.4-2.1C288.1,459.3,288.2,459.8,288.2,461.4z M290.2,461.8
		c-0.1,2.3-0.1,2.5-0.7,2.6c-0.7,0.1-0.9-0.4-0.4-0.7c0.2-0.1,0.3-1.1,0.3-2.3c0-1.6,0.1-2,0.4-2
		C290.2,459.3,290.3,459.8,290.2,461.8z M294.2,459.8c0.7,0.7,0.9,1.8,0.4,2.6c-0.5,1-0.8,1.1-2.1,1.1h-1.1v-2.1v-2.1h1.2
		C293.3,459.3,294,459.5,294.2,459.8z M296.7,461.3c-0.1,1.2-0.2,2-0.4,2.1c-0.3,0.1-0.4-0.4-0.4-2c0-1.7,0.1-2.1,0.4-2.1
		C296.7,459.3,296.8,459.7,296.7,461.3z M299.5,460.6l0.6,1.3v-1.3c0-0.9,0.1-1.2,0.5-1.2c0.4,0,0.4,0.4,0.4,2.1
		c0,1.8-0.1,2.1-0.5,2.1c-0.4,0-0.7-0.4-1.1-1.3l-0.6-1.2l-0.1,1.2c-0.1,0.9-0.2,1.3-0.5,1.3c-0.3,0-0.4-0.5-0.4-2.1
		c0-1.9,0.1-2.1,0.6-2.1C298.7,459.3,299,459.7,299.5,460.6z M305.1,459.8c0,0.4-0.2,0.4-0.7,0.3c-0.4-0.1-0.8,0-1,0.1
		c-0.6,0.5-0.5,2,0.2,2.3c0.6,0.4,0.9,0.1,0.9-0.7c0-0.3,0.1-0.5,0.4-0.4c0.2,0.1,0.4,0.5,0.4,1c0,0.8-0.1,0.9-1,1
		c-1.5,0.1-2.2-0.5-2.2-2c0-1.5,0.5-2.1,2-2.1C304.8,459.3,305.1,459.5,305.1,459.8z"/>
</g>
</svg>
