<?xml version="1.0" encoding="utf-8"?>
<!-- Generator: Adobe Illustrator 19.0.0, SVG Export Plug-In . SVG Version: 6.00 Build 0)  -->
<svg version="1.1" id="svg" xmlns="http://www.w3.org/2000/svg" xmlns:xlink="http://www.w3.org/1999/xlink" x="0px" y="0px"
	 width="165px" height="165.3px" viewBox="-210.6 629.1 165 165.3" style="enable-background:new -210.6 629.1 165 165.3;"
	 xml:space="preserve">
<path id="path1" style="fill:#2D2A25;" d="M-126.4,678.4c-2.8,0.7-5.4,2.7-6.6,5c-0.7,1.5-0.9,3.1-0.6,6.5c0.4,3.9,1,10.8,1.4,16.1
	c0.2,2.8,0.5,5.2,0.5,5.2c0.1,0.1,4.9-0.3,5-0.4c0.1-0.1-0.1-3-0.4-6.6c-0.5-5.3-0.5-6.5-0.3-6.6c0.1-0.1,1.2-0.2,2.3-0.3
	c2.4-0.2,2.3,0.1,2-2.7c-0.3-2.8-0.1-2.6-2.6-2.4c-2.6,0.3-2.3,0.5-2.6-2.9c-0.3-4.2,0.3-5.3,3.5-5.9l1-0.2v-1.4
	c0-0.8-0.1-1.9-0.2-2.5l-0.1-1.2h-0.7C-125.1,678.2-125.9,678.3-126.4,678.4 M-168,682.2c-9.7,2.5-14.4,14.3-9.6,23.9
	c4.5,9,16.3,11.6,22.9,5.1c0.9-0.9,1.6-1.4,1.6-1.3c0,0.1,0.1,0.9,0.2,1.8l0.1,1.6h0.7c0.4,0,1.5-0.1,2.5-0.2l1.7-0.1l-0.1-1.6
	c-0.1-0.9-0.2-2.9-0.4-4.5c-0.1-1.6-0.4-4.5-0.6-6.4c-0.4-5.1-0.3-4.7-1.3-4.7c-0.4,0-3,0.2-5.8,0.5c-2.7,0.3-5.4,0.5-5.8,0.5
	c-0.5,0-1,0.1-1,0.2c-0.2,0.2,0.1,4.7,0.3,4.9c0.1,0.1,5.9-0.3,7.6-0.6c1.1-0.1,1.2,0,0.8,1.4c-2.1,7.4-11.2,9.7-16.5,4.2
	c-8.4-8.9-0.1-24.2,10.4-19c1.5,0.7,3.6,2.6,3.6,3.2c0,0.2,1.7,0.1,4.8-0.2c1.4-0.1,1.5-0.2,0.2-2.2
	C-154.9,682.9-161.4,680.5-168,682.2 M-115.8,682.4c-0.2,0-0.9,0.1-1.4,0.2l-1.1,0.1l0.1,1.8c0.1,1,0.3,3.5,0.5,5.5s0.4,4.4,0.5,5.3
	c0.4,6.1,0.8,8.6,1.4,9.7c1.5,2.8,4.5,4.4,8.1,4.4h1.6l-0.1-2c-0.2-3.1-0.1-2.9-1.6-3c-2.1-0.1-3.6-1.2-3.8-2.8
	c-0.7-6-0.8-5.7,1.9-5.9c2.3-0.2,2.2,0,1.9-2.8l-0.2-2.2h-2.2h-2.2l-0.2-1.4c-0.1-0.8-0.3-2.6-0.4-4.2l-0.2-2.8h-1
	C-115,682.3-115.6,682.3-115.8,682.4 M-143.1,686.1c-3.1,1.9-0.6,6.6,2.7,5c2.7-1.4,1.7-5.3-1.3-5.3
	C-142.2,685.8-142.8,685.9-143.1,686.1 M-74.2,687.6c-1.4,0.1-3.6,0.3-4.8,0.4c-1.2,0.1-2.3,0.3-2.4,0.3c-0.1,0.1,0.3,5.8,0.5,6
	c0.1,0.1,10.7-0.8,10.8-1c0.1-0.1-0.3-5-0.4-5.6C-70.6,687.2-70.5,687.2-74.2,687.6 M-89.4,688.9c-1,0.1-2.7,0.3-3.8,0.3
	c-1.1,0.1-2.1,0.2-2.2,0.3c-0.3,0.2,0,5.7,0.3,6c0.1,0.1,5.6-0.3,9.8-0.7l1-0.1v-0.9c0-0.5-0.1-1.9-0.2-3.1l-0.2-2.1h-1.4
	C-86.9,688.6-88.4,688.7-89.4,688.9 M-140.6,694.2c-0.2,0-0.9,0.1-1.7,0.2l-1.5,0.1l0.1,1.5c0.1,0.8,0.3,3.4,0.5,5.8
	c0.2,2.3,0.5,5.6,0.7,7.2c0.1,1.6,0.3,3,0.4,3.1c0.2,0.2,4.5-0.2,4.7-0.4c0.1-0.1,0-1.9-1-13.1l-0.4-4.5h-0.8
	C-140,694.2-140.4,694.2-140.6,694.2 M-74,697c-1.3,0.1-3.3,0.3-4.3,0.4c-1,0.1-2,0.2-2.1,0.3c-0.3,0.2,0.3,8.7,0.6,9.1
	c0.1,0.1,9-0.6,9.2-0.7c0.2-0.2-0.5-8.8-0.8-9C-71.5,696.9-72.3,696.9-74,697 M-86.2,698.1c-1,0.1-3,0.3-4.4,0.4
	c-1.5,0.1-2.7,0.3-2.7,0.3c-0.1,0.1,0.7,9,0.9,9.1c0.2,0.1,9.1-0.7,9.2-0.8c0.1-0.1-0.5-7.8-0.7-8.6
	C-84.1,697.9-84,697.9-86.2,698.1 M-181.5,714.6c-2.1,0.5-4.2,2.2-5,4.1c-0.7,1.4-0.7,2.3-0.1,8.5c0.6,6.1,1.1,12.7,1.1,13
	s3.6,0.2,3.9-0.1c0.1-0.1-0.1-2.4-0.3-5.1c-0.5-5.8-0.7-5.2,1.5-5.4l1.7-0.1v-1.2c0-0.7-0.1-1.6-0.2-2l-0.1-0.8l-1.8,0.1l-1.8,0.1
	l-0.1-0.7c-0.7-4.1-0.2-5.4,2.4-6.1l1-0.3l-0.1-1.6C-179.4,714.1-179.4,714.1-181.5,714.6 M-148.9,719.1c-3.5,0.9-5.5,3.2-5.4,6.4
	c0,1.3,0.5,7,0.9,11.3l0.1,1l1.8-0.1c2.2-0.2,2.1,0,1.9-2.2c-1.1-11.7-1.1-12,1.7-12.5l0.8-0.1l0.1-1
	C-147,719.1-147.3,718.7-148.9,719.1 M-168.2,720.5c-7.3,1.2-10,11-4.4,16.3c6.2,5.9,16.4,0.4,15-8.2
	C-158.5,723.1-163.1,719.6-168.2,720.5 M-165,724.5c2.7,0.9,4.2,4.6,3.1,7.5c-1.4,3.6-6,4.4-8.4,1.4
	C-173.8,729.1-170,722.8-165,724.5"/>
<path id="path2" style="fill:#28B9D8;" d="M-131.5,629.3c-0.5,0-1.9,0.2-3.2,0.3c-54.5,4.4-90,60.5-70.5,111.4
	c0.5,1.4,1.1,2.8,1.2,3.2c3.5,9.3,12.5,21.7,21.4,29.6c36.1,31.7,91.6,26.1,120.4-12.2c1.3-1.8,4.2-6,4.2-6.1c0,0,0.4-0.8,1-1.7
	c15-25,15.2-58.3,0.5-83c-0.6-1-1.3-2.2-1.5-2.5c-4.9-8.6-15.6-19.4-25.5-25.8C-97.4,633.4-117.1,628-131.5,629.3 M-124,635.5
	c8.6,0.5,18.7,2.7,25.1,5.7c0.5,0.2,1,0.4,1.1,0.4c0.4,0,5.8,2.7,8.3,4.2c48.7,28.7,50.6,99,3.7,129.7c-4.1,2.7-6.9,4.2-10.9,6
	c-46.2,20.7-99.4-8.3-106.9-58.3c-6.8-44.9,27.4-86.3,72.5-87.8c0.9,0,2-0.1,2.6-0.1C-127.9,635.3-125.9,635.4-124,635.5
	 M-126.4,678.3c-3,0.7-5.5,2.6-6.8,5.2c-1,1.9-0.9,2.2,0.4,17.7c0.2,2.3,0.4,4.3,0.4,4.5c0.1,0.4-0.1-3-0.4-6
	c-1.4-15.3-1.4-15.7,1.4-18.5c2.3-2.3,7.1-3.8,7.3-2.3c0.1,0.6,0.1,0.6,0.1-0.1v-0.7h-0.8C-125.1,678-125.9,678.1-126.4,678.3
	 M-81.4,678.7c-1.6,0.4-2.8,1.4-3.4,2.9l-0.3,0.8l-0.8-0.1c-2.7-0.4-5.1,1.9-5.1,4.8c0,1.7,0,1.8-1.1,1.8c-0.7,0-0.8,0-0.2,0.1
	c0.3,0,1.3,0,2.2-0.1c0.8-0.1,2.4-0.3,3.5-0.3l1.9-0.1l0.2,1.7l0.2,1.7l-0.1-1.8l-0.1-1.8l1.3-0.1c1.6-0.2,1.4-0.5,1.7,2.9
	c0.3,3.6,0.2,3.4,2.5,3.1l1.8-0.2l-1.9,0.1c-1,0.1-1.9,0-1.9-0.1c0-0.1-0.1-1.4-0.3-2.9c-0.3-3.3-0.5-3,2.2-3.3
	c1.2-0.1,3.5-0.3,5.3-0.5c3.6-0.3,3.3-0.4,3.5,1.2l0.1,1.2v-1.2c0-1.8,0.2-1.8-3.6-1.4c-4.8,0.4-4.5,0.5-3.3-0.7
	C-73.9,683.3-76.9,677.7-81.4,678.7 M-123.8,681.4v1.8l-1,0.2c-3.3,0.7-3.9,1.7-3.5,5.9c0.3,3.4,0,3.1,2.6,2.9
	c2.5-0.2,2.4-0.3,2.6,1.9l0.2,1.8l-0.1-1.8c-0.1-2.3,0-2.2-2.6-2c-1.2,0.1-2.2,0.2-2.2,0.2c-0.1-0.1-0.5-5.7-0.4-6.1
	c0.3-1.1,2.6-2.5,4-2.5c0.7,0,0.8-0.3,0.6-2.3l-0.2-1.7V681.4 M-167.9,681.9c-10.1,2.6-14.8,14.4-9.8,24.4c2.2,4.4,7,8,11.2,8.4
	c0.9,0.1,0.9,0.1-0.3-0.2c-10.6-2.3-15.9-14.7-10.6-24.9c5.3-10.1,19.9-10.8,25.9-1.2c1.2,1.9,1.2,2.1,0.1,2.2l-0.8,0.1h0.9
	c1.1,0,1.2-0.1,0.6-1.2C-153.8,683.3-161,680.1-167.9,681.9 M-79.4,682.3c1.1,1,0.3,2.5-1.4,2.6l-1,0.1l-0.1-1.1
	C-82,682.1-80.5,681.2-79.4,682.3 M-114.4,682.2l1,0.1l0.2,2.8c0.1,1.5,0.3,3.4,0.4,4.2l0.2,1.4h2.2h2.2l0.2,2.2
	c0.3,2.8,0.4,2.6-1.9,2.8c-2.6,0.2-2.4-0.1-2.1,3.1c0.1,1.5,0.3,2.5,0.3,2.2c0-0.2,0-1.4-0.1-2.6c-0.2-2.6-0.4-2.3,2.1-2.5l2.1-0.2
	l-0.1-1.5c0-0.8-0.1-2-0.2-2.6l-0.1-1.1l-2.2,0.1l-2.2,0.1l-0.3-3.9C-113.1,681.6-113,682.1-114.4,682.2l-1-0.1L-114.4,682.2
	 M-117.9,682.4c-0.7,0.1-0.8,0.8-0.4,2.9c0.1,0.7,0.1,0.5,0.1-0.9l-0.1-1.8l1.1-0.1c0.6-0.1,1.2-0.1,1.4-0.2
	C-115.2,682.3-117.2,682.3-117.9,682.4 M-85.5,685.8c0.5,0.4,1,2.1,0.7,2.3c-0.6,0.6-2.6,0.2-3-0.5
	C-88.5,686.2-86.7,684.8-85.5,685.8 M-143.1,685.8c-3.1,1.7-1.5,6.4,2,5.8c2.7-0.5,3.3-4.5,0.9-5.8
	C-140.8,685.6-142.5,685.5-143.1,685.8 M-140.3,686.1c2,1,2,4-0.1,5.1c-3.3,1.7-5.9-3.1-2.7-5C-142.4,685.7-141.1,685.7-140.3,686.1
	 M-164.8,686.7c0.2,0,0.6,0,0.8,0s0-0.1-0.4-0.1C-164.8,686.6-165,686.6-164.8,686.7 M-166.8,686.9c-2.9,0.9-6,4.2-6.6,7.1
	c-0.1,0.3,0.2-0.1,0.5-0.8c1.5-3.3,3.5-5.3,6.4-6.1c0.6-0.2,0.9-0.3,0.7-0.3C-166.1,686.7-166.5,686.8-166.8,686.9 M-162.3,687
	c2.3,0.6,3.7,1.6,5.1,3.2c0.8,1,1.4,1.1,3.5,0.8c0.6-0.1,0.3-0.1-1-0.1c-1.2,0.1-1.8,0-1.8-0.1c0-1.1-4.1-3.9-6-4l-0.8-0.1
	L-162.3,687 M-118.1,688c0,0.5,0,0.6,0.1,0.4c0-0.2,0-0.6,0-0.8S-118.1,687.6-118.1,688 M-117.9,690.1c0,0.7,0.1,2.1,0.2,3.2
	c0.2,1.5,0.2,1.7,0.2,0.9c0-0.6-0.1-2-0.2-3.2C-117.8,689.2-117.9,689-117.9,690.1 M-94.7,689.3c0.3,0,0.7,0,0.9,0s0-0.1-0.5-0.1
	S-94.9,689.2-94.7,689.3 M-95.8,690.6v1.3l0.1-1.1c0-0.6,0.2-1.2,0.3-1.3c0.1-0.1,0.1-0.1-0.1-0.1
	C-95.8,689.3-95.8,689.5-95.8,690.6 M-70.1,691.2c0,0.6,0,0.8,0.1,0.5c0-0.3,0-0.7,0-1C-70.1,690.4-70.1,690.6-70.1,691.2
	 M-95.5,693.7c0,1,0.1,1.9,0.2,2c0.1,0.1,5.8-0.3,8-0.6c1.9-0.3-0.1-0.2-3.9,0.2c-4.4,0.4-4,0.6-4.2-1.7l-0.2-1.8L-95.5,693.7
	 M-70,692.9c0,0.6,0,0.6-4.4,0.9c-1.5,0.1-2.5,0.3-2.1,0.3c1,0.1,6.3-0.4,6.5-0.7c0.1-0.1,0.2-0.4,0.1-0.6
	C-70,692.4-70,692.4-70,692.9 M-84.3,693.7c0,0.9-0.1,1-0.5,1l-0.5,0.1h0.5c0.6,0,0.7-0.2,0.6-1.3l-0.1-0.8V693.7 M-142,694.2
	c-2,0.2-2,0.2-1.9,1.2v0.9l0.1-0.9l0.1-0.9l1.1-0.1c0.6-0.1,1.7-0.2,2.5-0.2l1.4-0.1l0.3,2.9c0.3,2.7,0.3,2.8,0.2,0.8
	c-0.1-1.1-0.2-2.4-0.2-2.9l-0.1-0.8h-0.9C-140.1,694-141.1,694.1-142,694.2 M-173.7,694.9c-0.8,2.6,0.4,9,1.7,9.9
	c0.1,0.1-0.1-0.5-0.4-1.2c-1.2-2.3-1.6-5-1.2-7.5C-173.4,694.7-173.4,694.1-173.7,694.9 M-150.9,695.4l-0.9,0.1h1.2
	c1.5,0,1.3-0.3,1.7,3.9c0.1,1.6,0.3,2.8,0.3,2.7c0.1-0.1-0.4-6.3-0.6-6.6C-149.3,695.2-149.4,695.2-150.9,695.4 M-117.3,695.9
	c0,1.1,0.5,6.7,0.7,7.4c0.2,0.5,0.2,0.5,0.1-0.2c0-0.4-0.2-2.1-0.4-3.8C-117.3,695.2-117.3,695-117.3,695.9 M-157.5,696
	c-4.6,0.4-5.1,0.5-2.7,0.4c2.6-0.1,8.8-0.7,7.3-0.7C-153.5,695.7-155.6,695.8-157.5,696 M-123,696.6l-0.1,0.6l-2.2,0.2
	c-1.2,0.1-2.2,0.2-2.3,0.3c-0.1,0.1,0.1,3,0.4,6.6c0.3,3.5,0.5,6.5,0.4,6.6c-0.1,0.1-4.9,0.6-5,0.4c0,0-0.2-1.3-0.3-2.7
	c-0.2-1.7-0.2-2.3-0.3-1.5c0,1.3,0.3,4.2,0.5,4.4c0.2,0.2,5.1-0.2,5.3-0.4c0.1-0.1-0.2-3.9-0.9-11.9c-0.1-1.5-0.3-1.4,2.4-1.5
	c2.1-0.1,2.2-0.2,2.2-0.9C-122.7,695.8-122.9,695.8-123,696.6 M-163.1,696.7c-0.1,0.2,0.3,5,0.5,5.2c0.1,0.1,1.4,0,2.9-0.2l2.7-0.3
	l-2.2,0.1c-1.2,0.1-2.5,0.1-2.8,0.1h-0.6l-0.2-2.3c-0.1-1.5-0.1-2.4,0-2.6c0.1-0.1,0.1-0.2,0-0.2
	C-162.9,696.6-163.1,696.6-163.1,696.7 M-74.6,696.8c-1.5,0.1-3,0.3-3.2,0.3c-0.8,0.2,1.7,0.1,3.8-0.1c1.7-0.2,2.4-0.2,2.5,0
	c0.3,0.3,1,8.9,0.8,9.1c-0.2,0.1-0.2,0.1,0,0.1c0.4,0,0.4-0.4,0-4.8c-0.4-4.3-0.5-4.9-1-4.9C-71.7,696.6-73,696.7-74.6,696.8
	 M-143.6,698.6c0.1,1.8,0.4,5.1,0.6,7.2c0.3,2.6,0.2-0.3-0.2-4.3C-143.6,697-143.8,695.9-143.6,698.6 M-80.7,697.4
	c-0.2,0.2-0.1,2.2,0.1,4.2c0.3,2.4,0.3,1.8,0.1-1.4c-0.2-2.8-0.3-2.7,1.1-2.8l1.1-0.1h-1.1C-80,697.3-80.6,697.4-80.7,697.4
	 M-86.3,697.9c-0.9,0.1-1.8,0.2-1.9,0.2c-0.2,0.1,2.7,0,3.8-0.1c0.3,0,0.4,0.1,0.5,0.5c0.2,0.7,0.8,8.5,0.7,8.6
	c-0.1,0.1-9,0.9-9.2,0.8c-0.1-0.1-0.3-1.9-0.5-4.1s-0.4-3.8-0.4-3.5c-0.1,0.8,0.5,7.5,0.8,7.7c0.2,0.2,9.3-0.5,9.6-0.8
	c0.1-0.1-0.5-8.3-0.7-9C-83.9,697.7-84,697.7-86.3,697.9 M-91.9,698.4c-1.5,0.1-1.7,0.2-1.6,0.9c0,0.6,0,0.6,0.1,0.1
	c0-0.3,0.1-0.5,0.2-0.5c0.1,0,1.1-0.1,2.3-0.3C-89,698.3-89.6,698.2-91.9,698.4 M-138.1,700.8c0,0.5,0,0.6,0.1,0.4
	c0-0.2,0-0.6,0-0.8C-138.1,700.2-138.1,700.4-138.1,700.8 M-155.9,701.2c-0.9,0.1-0.8,0.1,0.4,0.1c1.7,0,1.6-0.1,1.1,1.5
	c-2.5,7.2-11.3,9-16.5,3.2c-0.5-0.6-0.9-0.9-0.8-0.7c0.3,0.5,1.9,2.2,2.8,2.8c5.4,3.7,13,0.8,14.8-5.6
	C-153.6,700.9-153.7,700.9-155.9,701.2 M-111.6,702c0,1.2,1.8,2.4,3.7,2.5c1.5,0.1,1.3-0.1,1.6,3l0.1,2h-1.6c-3.6,0-6.5-1.6-8.1-4.5
	c-0.3-0.6-0.5-0.8-0.4-0.6c0.4,1.3,1.9,3,3.6,4c2.4,1.4,7.1,1.7,6.8,0.4c0-0.2-0.1-1.1-0.2-2.1c-0.2-2.5-0.2-2.5-1.6-2.5
	c-1.9,0-3.2-0.8-3.7-2.2l-0.1-0.5L-111.6,702 M-148.5,703.1c0,0.8,0.5,6.7,0.6,7.2c0.1,0.5-0.1-3.2-0.4-5.7
	C-148.4,703.4-148.5,702.7-148.5,703.1 M-138,703c0,0.4,0.2,2.4,0.4,4.6c0.2,2.2,0.3,4,0.2,4.1c-0.2,0.2-4.6,0.6-4.7,0.4
	c-0.1-0.1-0.3-1.3-0.4-2.6c-0.2-1.7-0.3-2.1-0.3-1.4c0,1.5,0.3,4,0.5,4.2s4.9-0.1,5.1-0.4c0.1-0.1,0-2.2-0.2-4.7
	C-137.8,702.8-137.9,701.8-138,703 M-80.2,705.5c0,1.7-0.2,1.7,4.8,1.2c2.4-0.2,4.3-0.4,4.2-0.5c0,0-2,0.1-4.3,0.2
	c-2.3,0.2-4.2,0.3-4.3,0.2C-79.9,706.5-80,706-80.2,705.5l-0.1-1.2L-80.2,705.5 M-154.7,711c-1.9,1.9-4.1,3.1-6.8,3.5
	c-0.8,0.1-0.8,0.2-0.3,0.2c1.3,0,4.3-1.1,5.8-2.2c0.7-0.5,2.4-2.3,2.4-2.5c0-0.1,0.1-0.1,0.2,0c0.1,0.1,0.2,0.8,0.3,1.7
	c0.2,1.8,0.1,1.8,2.1,1.6l1.4-0.2h-1.6h-1.6l-0.2-1.7C-153.2,709.3-153,709.4-154.7,711 M-147.8,712.2c0,0.7,0,0.7-0.9,0.8l-0.9,0.1
	h0.9c1,0,1.1-0.1,1-1C-147.7,711.6-147.8,711.6-147.8,712.2 M-72.9,712.3c-2.1,0.2-2-0.3-1.5,5.4c0.2,2.7,0.4,5.7,0.5,6.6
	c0.1,7.4-9,9.5-11.7,2.7c-0.3-0.7-0.5-2.1-0.8-5.2c-0.6-6.8-0.8-8.1-0.8-8.2c-0.1-0.1-4.6,0.3-4.8,0.5s0.8,11.9,1.2,13.5
	c2.2,8.4,12.4,11.3,18.5,5.3c3.1-3.1,3.8-5.7,3.2-12.5c-0.2-2.3-0.4-4.9-0.5-5.7C-69.8,711.8-69.4,712.1-72.9,712.3 M-181.5,714.5
	c-2.8,0.7-5.2,2.9-5.7,5.4c-0.2,1,0.2,6.4,0.8,12.4c0.4,3.3,0.2,0.4-0.3-5.1c-0.6-6.2-0.6-7.1,0.1-8.5c1-2.1,3.2-3.8,5.5-4.2
	c1.6-0.3,1.6-0.3,1.7,1.9c0.1,2,0.2,1.9-0.9,2.1c-0.4,0.1-0.7,0.2-0.6,0.2c0.1,0,0.5,0,0.9-0.1l0.7-0.2v-1.8
	C-179.2,713.9-179.3,713.9-181.5,714.5 M-164.7,714.9c0.4,0,1,0,1.4,0c0.4,0,0.1-0.1-0.7-0.1C-164.7,714.8-165,714.8-164.7,714.9
	 M-106.8,715.2c-8.2,1.8-11.6,11.9-6.4,18.9c5.5,7.3,17.3,4.9,19.6-4.1C-91.3,721.4-98.4,713.4-106.8,715.2 M-121,716.5
	c-0.4,0-1.2,0.1-1.7,0.2l-1,0.1v0.9c0,0.5,0.2,2.6,0.4,4.7c0.5,5.3,0.5,7.6,0,9c-2,5.2-8.4,6-10.8,1.2c-0.8-1.6-0.9-2.2-1.3-6.6
	c-0.2-2.2-0.5-4.9-0.5-5.9c-0.2-2.3,0-2.2-2.8-1.9c-2.3,0.2-2.7,0.3-2.5,0.9c0,0.2,0.3,2.5,0.5,5.2c0.2,2.8,0.6,5.6,0.8,6.6
	c1.9,8.4,10.7,12.4,16.7,7.4c1.3-1.1,1.2-1.2,1.4,1.1c0.5,4.2-0.8,7.1-4.1,8.9c-0.9,0.5-5.3,0.6-6.4,0.2c-0.7-0.3-0.8-0.1-0.6,2.4
	s0.1,2.4,2.4,2.7c7.2,1.1,12.8-3.2,13.8-10.7c0.2-1.1,0.1-2.3-0.3-6.6c-0.6-7-1.2-12.9-1.4-15.9C-118.6,715.9-118.3,716.3-121,716.5
	 M-182,719.3c-1.1,0.9-1.2,1.3-0.9,3.7c0.2,2.5,0.2,2.5,1.3,2.4l0.8-0.1h-0.9c-0.6,0-0.9-0.1-0.9-0.3c0-0.1-0.1-1.1-0.2-2.2
	c-0.2-2.3-0.1-2.7,1.1-3.6c0.3-0.3,0.5-0.5,0.4-0.5C-181.3,718.8-181.7,719.1-182,719.3 M-149.6,719.1c-3.8,1.2-5.3,3.7-4.9,8.3
	c0.2,2.4,0.7,7.6,0.9,9.5l0.1,1.2h0.8c1.7,0,3.3-0.2,3.4-0.5c0.1-0.2,0-0.2-0.1-0.1c-0.1,0.1-1,0.2-2,0.3l-1.8,0.1l-0.1-1
	c-0.4-4.3-0.9-10-0.9-11.3c0-3.1,1.9-5.5,5.4-6.4c0.6-0.1,0.8-0.3,0.6-0.3C-148.6,718.9-149.2,719-149.6,719.1 M-147.2,719.8
	c0.1,0.5,0.1,1.4,0.1,2c0,0.7,0,1.1,0.1,1c0.2-0.1,0.2-0.7,0-2.8c-0.1-0.7-0.2-1.3-0.3-1.3C-147.3,718.8-147.3,719.3-147.2,719.8
	 M-102,720.4c4.3,2,5.2,8.1,1.8,11.4c-3.9,3.8-10.3,0.6-10.3-5.2C-110.5,721.8-106.1,718.5-102,720.4 M-168.3,720.3
	c-0.3,0.1,0.4,0.1,1.6,0.1s2-0.1,1.8-0.1C-165.5,720.1-167.6,720.1-168.3,720.3 M-170.6,721c-2.4,1.1-4.8,4.2-5,6.5l-0.1,0.8l0.3-1
	c0.5-1.8,1.4-3.3,2.5-4.5c1-1,1.5-1.3,3.5-2.2c0.3-0.1,0.3-0.2,0.2-0.2C-169.3,720.5-169.9,720.7-170.6,721 M-164.3,720.6
	c0,0,0.4,0.2,0.9,0.4c2.8,1,5.1,3.7,5.7,7c0.2,0.8,0.3,1,0.3,0.6c0.1-1.6-1.3-4.3-2.9-5.9C-161.6,721.5-164.3,720.1-164.3,720.6
	 M-148.8,723.2c-1.4,0.6-1.8,1.4-1.6,3.5l0.2,1.5v-1.8c0-2.1,0.1-2.3,1.6-3.1C-147.7,722.9-147.9,722.7-148.8,723.2 M-168,724.4
	c-0.1,0.1,0.5,0.1,1.3,0.1c0.9,0,1.4-0.1,1.2-0.1C-165.8,724.2-167.7,724.2-168,724.4 M-169.4,725.1c-4.2,3.2-2.2,10.2,2.8,10.2
	c2.1,0,4.7-1.7,4.6-3.2c0-0.1-0.2,0.1-0.4,0.5c-1.4,2.3-3.8,3.1-6,2.1c-3.8-1.8-4.2-7.1-0.8-9.6c0.4-0.3,0.7-0.5,0.6-0.5
	S-169,724.8-169.4,725.1 M-164.3,725c0.7,0.5,1.4,1.2,2,2.2c0.2,0.4,0.4,0.6,0.4,0.5c0-0.7-2.2-3.1-2.9-3.1
	C-164.9,724.6-164.7,724.8-164.3,725 M-179.8,725.3c0.9,0.1,1,0.3,1,2.8v1.2l-1.7,0.1c-2.1,0.2-2-0.2-1.6,3.9
	c0.2,1.9,0.3,3.1,0.4,2.5c0-0.6-0.1-2.1-0.2-3.4c-0.3-2.9-0.5-2.6,1.6-2.8l1.7-0.2l-0.1-1.9c-0.1-2.2-0.2-2.4-1.2-2.4h-0.8
	L-179.8,725.3 M-161.8,729.9c0,1.1,0.1,1.8,0.1,1.6c0.1-0.2,0.1-0.9,0.1-1.6s-0.1-1.4-0.1-1.6C-161.8,728.1-161.8,728.8-161.8,729.9
	 M-175.8,729.6c-0.2,7.7,8,12.4,14.3,8.4c2.1-1.3,3.8-4,4-6.2l0.1-1.1l-0.2,1c-1.3,7.2-9.8,10.1-15,5.2c-1.8-1.7-2.7-3.8-3-6.8
	l-0.1-1.6L-175.8,729.6 M-150.1,730.4c0.1,1,0.2,2.4,0.3,3.2c0.1,0.7,0.2,1.7,0.2,2.2s0.1,0.8,0.1,0.7c0.1-0.3-0.3-5.3-0.5-6.9
	C-150.2,728.8-150.2,729-150.1,730.4 M-157.4,730c0,0.4,0,0.5,0.1,0.3c0-0.2,0-0.5,0-0.6C-157.4,729.5-157.4,729.6-157.4,730
	 M-186,735.6c0,0.6,0,0.8,0.1,0.5c0.1-0.3,0-0.8,0-1.1C-186,734.8-186,735-186,735.6 M-185.8,738.5c0.1,2.3,0,2.2,2.4,2
	c2.3-0.2,2.2-0.1,2-2l-0.2-1.6l0.1,1.5c0.1,1.8,0.2,1.7-2.1,1.8l-1.9,0.1l-0.1-1.7C-185.8,736.5-185.9,736.3-185.8,738.5"/>
</svg>
