<?xml version="1.0" encoding="utf-8"?>
<!-- Generator: Adobe Illustrator 19.0.0, SVG Export Plug-In . SVG Version: 6.00 Build 0)  -->
<svg version="1.1" id="svg" xmlns="http://www.w3.org/2000/svg" xmlns:xlink="http://www.w3.org/1999/xlink" x="0px" y="0px"
	 width="172.1px" height="104.3px" viewBox="-213.4 704.3 172.1 104.3" style="enable-background:new -213.4 704.3 172.1 104.3;"
	 xml:space="preserve">
<path id="path0" d="M-193.5,710.7c-0.5,0.1-0.7,0.3-0.5,0.6c0.3,0.3,0.8,1.5,0.8,1.8c0,0.4-0.3,0.5-1.6,0.6c-2,0.1-2.9,0.8-2.1,1.5
	c0.1,0.1,0.2,0.4,0.3,0.6c0,0.3,0.2,0.6,0.3,0.8c0.1,0.2,0.2,0.5,0.2,0.8c0,0.2,0,0.4,0.1,0.4c0.2,0,0.4,0.6,0.4,1
	c0,0.2,0.1,0.4,0.2,0.5c0.1,0.1,0.2,0.4,0.3,0.6c0,0.3,0.2,0.6,0.3,0.8c0.1,0.2,0.2,0.5,0.2,0.6c0,0.2,0.1,0.4,0.2,0.6
	c0.1,0.2,0.3,0.5,0.3,0.8c0.1,0.5,0.3,1,0.7,2c0.1,0.4,0.2,0.8,0.2,0.9c0,0.1,0.1,0.4,0.3,0.7c0.1,0.2,0.3,0.6,0.3,0.7
	c0,0.1,0.1,0.4,0.2,0.6c0.1,0.2,0.2,0.5,0.2,0.6c0,0.1,0.1,0.5,0.3,0.8c0.1,0.3,0.3,0.6,0.3,0.8c0,0.2,0.1,0.4,0.3,0.6
	c0.1,0.2,0.3,0.5,0.3,0.8c0,0.2,0.1,0.5,0.2,0.7c0.1,0.1,0.2,0.4,0.2,0.6c0,0.4,0.3,1,0.4,1c0.1,0,0.1,0.2,0.1,0.3
	c0,0.2,0.1,0.6,0.3,0.9c0.1,0.3,0.3,0.6,0.3,0.8c0,0.1,0.1,0.4,0.2,0.6c0.1,0.2,0.2,0.5,0.3,0.7c0.1,0.2,0.2,0.6,0.3,0.8
	c0.1,0.2,0.3,0.9,0.5,1.6c0.2,0.7,0.4,1.3,0.5,1.3c0.1,0.1,0.1,0.3,0.2,0.6c0.1,0.3,0.2,0.6,0.3,0.8c0.1,0.2,0.2,0.4,0.2,0.6
	s0.1,0.5,0.3,0.8c0.1,0.3,0.3,0.7,0.3,1s0.1,0.5,0.2,0.6c0.1,0,0.1,0.2,0.1,0.4c0,0.2,0.1,0.6,0.3,0.8c0.1,0.3,0.3,0.7,0.3,0.8
	s0.1,0.5,0.3,0.7s0.3,0.4,0.3,0.5c0,0.1,0.6,0.6,1.2,1c0.6,0.4,5,0.5,5.6,0.2c0.2-0.1,1-0.2,1.9-0.2c0.9,0,1.7-0.2,1.9-0.3
	c0.2-0.1,1-0.2,1.8-0.3c0.8,0,1.6-0.1,1.8-0.2c0.4-0.1,3-0.5,5.5-0.7c0.9-0.1,1.8-0.2,2.1-0.3c0.3-0.1,1.1-0.3,2.1-0.3
	c0.9-0.1,2.1-0.2,2.6-0.3c0.6-0.1,1.4-0.2,1.8-0.2c0.4,0,0.8-0.1,0.9-0.1c0.1-0.1,1-0.2,1.9-0.3c0.9-0.1,1.8-0.2,1.9-0.3
	c0.1-0.1,1-0.2,1.8-0.3c4.6-0.4,5.2-1.3,2.7-4c-1-1-2.5-2.7-3.1-3.4c-0.9-1-2.2-2.4-3.8-4.2c-0.8-0.9-2.5-2.7-3.6-4
	c-1.8-2-3.1-3.4-6.2-6.9c-0.3-0.3-0.7-0.7-0.9-0.9s-0.4-0.5-0.5-0.6c-0.1-0.2-0.8-0.9-1.5-1.6c-1.6-1.7-1.8-2-2.4-2.7
	c-0.3-0.3-0.8-0.9-1.1-1.3c-0.3-0.3-1.1-1.1-1.6-1.8c-1.4-1.6-1.9-1.8-3.8-1.8c-0.8,0-1.4,0.1-1.5,0.1c-0.1,0.1-1.6,0.2-3.5,0.3
	c-1.8,0.1-3.5,0.2-3.6,0.3c-0.1,0.1-1.2,0.2-2.4,0.2c-2.5,0.1-2.4,0.2-3.2-1.4c-0.2-0.5-0.5-0.9-0.6-1
	C-191.5,710.7-192.9,710.6-193.5,710.7 M-159,782.6c-0.4,0.2-0.9,0.8-1.1,1.4c-0.2,0.8-0.2,21.4,0,22.2c0.5,2,3.3,2.1,4.3,0.3
	c0.3-0.6,0.3-0.7,0.3-3.5c0-3.9,0.1-4.1,1.1-2.7c0.3,0.4,0.8,1,1.1,1.4c0.3,0.4,1.1,1.4,1.7,2.2c2.8,3.7,2.9,3.8,4.3,3.8
	c1.5,0,2.7-1.1,2.4-2.3c-0.1-0.4-0.9-1.9-1.2-2.1c-0.1-0.1-0.6-0.7-1.1-1.4c-1.5-2-2.2-2.9-2.6-3.2c-0.3-0.3-0.6-0.8-0.6-1
	c0-0.1,0.9-1,2-2.2c2.8-2.8,2.9-3.1,2.2-4.3c-0.4-0.7-0.4-0.7-1.2-1.1c-0.8-0.3-0.9-0.3-1.2-0.2c-0.2,0.1-0.5,0.2-0.7,0.3
	c-0.3,0.1-1.2,0.9-2.8,2.6c-1.4,1.4-2.6,2.6-2.8,2.7c-0.6,0.4-0.6,0.2-0.6-5.9c0-6.1,0-6.1-0.8-6.9
	C-156.6,782.5-158.5,782.3-159,782.6 M-211.1,784.4c-1.6,0.5-1.5,0.2-1.5,11.5v9.8l0.3,0.7c0.6,1.2,2.8,1.9,3.6,1
	c0.1-0.1,0.3-0.3,0.4-0.3c0.6,0,0.9-1.4,0.9-4.2c0-2,0-2.8,0.2-2.9c0.1-0.1,0.9-0.2,2.9-0.2c3.7,0,5-0.4,6.7-2.1
	c0.8-0.8,1.1-1.3,1.7-2.5c0.2-0.4,0.4-2.2,0.5-3.2c0.1-2.6-1.6-5.7-3.8-6.8c-1.2-0.6-1.4-0.7-2.3-0.8
	C-202.8,784.2-210.6,784.3-211.1,784.4 M-202.4,789.2c1.2,0.8,1.6,1.6,1.6,2.9c0,1.4-1.1,2.9-2.4,3.3c-0.8,0.2-4.1,0.3-4.3,0.1
	c-0.1-0.2-0.2-6.5,0-6.6c0,0,1-0.1,2.2-0.1h2.1L-202.4,789.2 M-186.8,789.8c-0.5,0-1,0.2-1.2,0.2c-0.1,0.1-0.6,0.3-1,0.5
	c-1.3,0.6-3.7,3.4-3.7,4.4c0,0.1-0.1,0.4-0.2,0.6c-0.6,0.9-0.6,5.6,0,6.9c0.1,0.3,0.3,0.8,0.5,1.1c0.2,0.3,0.3,0.7,0.5,0.9
	c0.2,0.2,0.2,0.3,0.3,0.4c0.3,0.8,3,3,3.9,3c0.2,0,0.5,0.1,0.7,0.2c0.5,0.3,2.9,0.3,3.3,0c0.1-0.1,0.4-0.2,0.6-0.2s0.6-0.2,1.2-0.7
	c0.9-0.8,1.1-0.8,1.4-0.3c0.5,1,2.4,1.4,3.4,0.6s1-0.4,1-8.5v-7.2l-0.4-0.5c-1-1.4-2.7-1.5-3.9-0.2c-0.5,0.5-0.8,0.6-1.1,0.2
	c-0.8-0.9-3.1-1.7-4-1.4C-185.8,789.7-186.3,789.8-186.8,789.8 M-165.1,789.8c-0.6,0.1-1.5,0.6-2,1.2c-0.5,0.5-0.8,0.5-1.4-0.1
	c-0.3-0.3-0.7-0.6-0.9-0.6c-0.2,0-0.4-0.1-0.4-0.2c-0.3-0.4-2,0.2-2.5,0.9l-0.3,0.4v7.5v7.5l0.6,0.6l0.6,0.6h1c0.9,0,1,0,1.5-0.4
	c1-0.8,0.9-0.6,0.9-5.5c0-2.6,0.1-4.4,0.1-4.5c0.1,0,0.2-0.3,0.3-0.6c0.3-0.9,1-1.4,2.8-2c2.6-0.8,3-1.2,3-2.7V791l-0.6-0.7
	c-0.4-0.5-0.7-0.7-1-0.7c-0.2,0-0.5,0-0.7-0.1C-164.4,789.8-164.8,789.8-165.1,789.8 M-182.9,795c0.8,0.6,1.3,1.5,1.5,2.1
	c0.1,0.3,0.2,0.8,0.3,1.2c0.1,0.7,0.1,1.7-0.1,1.9c-0.1,0-0.1,0.3-0.1,0.5c0,0.3-0.1,0.6-0.3,0.8c-0.2,0.2-0.3,0.5-0.3,0.5
	c0,0.6-1.7,1.5-2.9,1.5c-3.8,0-5.2-6.3-1.8-8.6C-185.8,794.2-183.8,794.2-182.9,795"/>
<path id="path1" style="fill:#5B5B5B;" d="M-193.7,710.5c-0.7,0.3-0.7,0.3-0.2,1.4c0.7,1.4,0.7,1.4-1,1.5c-2.2,0.2-2.7,0.6-2.1,1.9
	c0.2,0.3,0.3,0.7,0.3,0.8s0.1,0.5,0.3,0.7c0.1,0.3,0.3,0.6,0.3,0.8s0.1,0.3,0.1,0.4c0.1,0.1,0.2,0.4,0.3,0.8c0.1,0.4,0.5,1.7,1,3
	c0.4,1.3,1,2.8,1.1,3.4c0.4,1.1,0.5,1.6,1,2.7c0.2,0.4,0.3,0.8,0.3,1s0.1,0.5,0.3,0.7c0.1,0.3,0.3,0.6,0.3,0.8
	c0,0.1,0.1,0.4,0.2,0.5c0.1,0.1,0.2,0.4,0.2,0.6s0.1,0.5,0.3,0.8c0.1,0.3,0.3,0.6,0.3,0.8c0,0.2,0.1,0.4,0.2,0.6
	c0.2,0.3,0.5,1.1,1.8,5.1c0.4,1.1,0.7,2,0.8,2.2c0.2,0.3,0.6,1.5,0.7,2.1c0.1,0.3,0.2,0.6,0.3,0.7c0.1,0.1,0.1,0.2,0.1,0.4
	c0,0.2,0.1,0.5,0.3,0.8c0.1,0.3,0.3,0.6,0.3,0.8c0,0.2,0.1,0.5,0.3,0.8c0.1,0.3,0.3,0.6,0.3,0.7c0,0.8,1.6,2.2,2.8,2.5
	c0.7,0.2,3.7,0.1,5.4-0.2c0.7-0.1,2.3-0.3,3.6-0.5c1.3-0.2,2.8-0.4,3.4-0.5c0.6-0.1,1.6-0.2,2.1-0.3c0.5,0,1.3-0.1,1.6-0.2
	c0.3-0.1,1.3-0.2,2.2-0.3c0.9-0.1,1.8-0.2,2.1-0.3c0.3,0,1.7-0.2,3.2-0.4c1.5-0.2,3.2-0.4,3.8-0.5c0.6-0.1,1.7-0.2,2.3-0.3
	c0.7,0,1.3-0.1,1.4-0.2c0.1-0.1,0.9-0.2,1.8-0.3c0.9-0.1,1.8-0.2,2-0.3c0.2-0.1,0.6-0.1,0.9-0.2c0.8-0.1,1.4-0.8,1.4-1.4
	c0-0.7-0.3-1.1-2.6-3.7c-1.1-1.2-2.9-3.2-4-4.5c-1.1-1.3-2.2-2.4-2.3-2.6c-0.1-0.2-0.5-0.5-0.8-0.9c-0.5-0.5-1.9-2.1-3-3.3
	c-0.7-0.8-2.3-2.5-2.8-3.1c-0.3-0.3-0.6-0.7-0.8-0.9c-0.1-0.1-1-1-1.8-2c-0.8-0.9-2.4-2.7-3.4-3.8c-1.1-1.2-2.1-2.4-2.4-2.7
	c-0.3-0.3-1-1.1-1.6-1.8c-0.6-0.7-1.4-1.5-1.6-1.8c-0.3-0.3-0.7-0.6-0.8-0.6c-0.2,0-0.5-0.2-0.6-0.3c-0.3-0.2-2.2-0.2-4.4,0.1
	c-0.7,0.1-2.4,0.2-3.8,0.3c-1.4,0.1-2.7,0.2-3,0.2s-1.3,0.1-2.1,0.2c-1.8,0.1-1.6,0.2-2.5-1.4C-191,710.4-192.3,710-193.7,710.5
	 M-191.2,710.8c0.1,0,0.4,0.5,0.6,1c0.8,1.6,0.6,1.5,3.2,1.4c1.2,0,2.3-0.1,2.4-0.2c0.1-0.1,1.8-0.2,3.6-0.3
	c1.8-0.1,3.4-0.2,3.5-0.3c0.1-0.1,0.7-0.1,1.5-0.1c1.9,0,2.4,0.2,3.8,1.8c0.6,0.6,1.3,1.4,1.6,1.8c0.3,0.3,0.8,0.9,1.1,1.3
	c0.6,0.8,0.8,1,2.4,2.7c0.7,0.7,1.3,1.5,1.5,1.6c0.1,0.2,0.3,0.4,0.5,0.6c0.2,0.2,0.6,0.6,0.9,0.9c3.2,3.5,4.4,4.9,6.2,6.9
	c1.2,1.3,2.8,3.1,3.6,4c1.6,1.8,2.9,3.3,3.8,4.2c0.6,0.7,2.1,2.4,3.1,3.4c2.6,2.8,1.9,3.7-2.7,4c-0.9,0.1-1.7,0.2-1.8,0.3
	c-0.1,0.1-1,0.2-1.9,0.3c-0.9,0.1-1.8,0.2-1.9,0.3c-0.1,0.1-0.6,0.1-0.9,0.1c-0.4,0-1.2,0.1-1.8,0.2c-0.6,0.1-1.8,0.2-2.6,0.3
	c-0.9,0.1-1.8,0.2-2.1,0.3c-0.3,0.1-1.2,0.3-2.1,0.3c-2.5,0.2-5.1,0.5-5.5,0.7c-0.2,0.1-1,0.2-1.8,0.2s-1.6,0.2-1.8,0.3
	c-0.2,0.1-1,0.2-1.9,0.3c-0.9,0-1.7,0.2-1.9,0.2c-0.6,0.3-5,0.2-5.6-0.2c-0.7-0.4-1.2-0.9-1.2-1c0-0.1-0.1-0.3-0.3-0.5
	c-0.2-0.2-0.3-0.5-0.3-0.7s-0.1-0.6-0.3-0.8c-0.1-0.3-0.3-0.7-0.3-0.8c0-0.2-0.1-0.4-0.1-0.4c-0.1,0-0.2-0.3-0.2-0.6
	c0-0.3-0.2-0.7-0.3-1c-0.1-0.3-0.3-0.6-0.3-0.8s-0.1-0.4-0.2-0.6c-0.1-0.2-0.2-0.5-0.3-0.8s-0.1-0.5-0.2-0.6
	c-0.1-0.1-0.3-0.7-0.5-1.3c-0.2-0.7-0.4-1.4-0.5-1.6c-0.1-0.2-0.2-0.6-0.3-0.8c-0.1-0.2-0.2-0.5-0.3-0.7c-0.1-0.2-0.2-0.4-0.2-0.6
	c0-0.1-0.1-0.5-0.3-0.8c-0.1-0.3-0.3-0.7-0.3-0.9c0-0.2,0-0.3-0.1-0.3c-0.2,0-0.4-0.6-0.4-1c0-0.2-0.1-0.5-0.2-0.6
	c-0.1-0.1-0.2-0.4-0.2-0.7c0-0.2-0.1-0.6-0.3-0.8c-0.1-0.2-0.3-0.5-0.3-0.6c0-0.1-0.1-0.5-0.3-0.8c-0.1-0.3-0.3-0.6-0.3-0.8
	c0-0.1-0.1-0.4-0.2-0.6c-0.1-0.2-0.2-0.5-0.2-0.6c0-0.1-0.1-0.5-0.3-0.7c-0.1-0.2-0.3-0.5-0.3-0.7c0-0.1-0.1-0.5-0.2-0.9
	c-0.4-1-0.6-1.5-0.7-2c-0.1-0.2-0.2-0.6-0.3-0.8c-0.1-0.2-0.2-0.4-0.2-0.6s-0.1-0.4-0.2-0.6c-0.1-0.2-0.2-0.6-0.3-0.8
	c-0.1-0.3-0.2-0.6-0.3-0.6c-0.1-0.1-0.2-0.3-0.2-0.5c0-0.4-0.2-1-0.4-1c-0.1,0-0.1-0.2-0.1-0.4s-0.1-0.6-0.2-0.8
	c-0.1-0.2-0.2-0.6-0.3-0.8c-0.1-0.3-0.2-0.6-0.3-0.6c-0.8-0.7,0.1-1.4,2.1-1.5c1.3-0.1,1.6-0.2,1.6-0.6c0-0.3-0.5-1.5-0.8-1.8
	c-0.3-0.3-0.1-0.6,0.5-0.6C-192.9,710.6-191.5,710.7-191.2,710.8 M-158.8,782.2c-1.8,0.6-1.7,0.1-1.7,12.8c0,11.9,0,11.4,0.9,12.3
	l0.6,0.6h1.1c2.3,0,2.7-0.7,2.7-4.9c0-3.5,0.1-3.6,0.8-2.5c0.2,0.3,0.8,1,1.2,1.6c0.4,0.5,0.9,1.2,1.1,1.5c2,2.9,3.3,4.2,4.1,4.4
	c2.6,0.4,4.2-1.5,3-3.5c-0.4-0.6-4.1-5.4-4.8-6.1c-0.4-0.5-0.5-0.4,1.6-2.5c2.2-2.2,2.6-2.7,2.6-3.5c0-0.9-0.8-2.1-1.3-2.1
	c-0.1,0-0.3-0.1-0.5-0.2c-0.9-0.7-1.9-0.1-4.9,2.9c-1.5,1.4-2.7,2.6-2.8,2.6c-0.1,0-0.2-1.3-0.2-5.6c0-5.3,0-5.6-0.3-6.2
	C-156.1,782.3-157.3,781.8-158.8,782.2 M-156.3,782.8c0.8,0.9,0.8,0.9,0.8,6.9c0,6.1,0,6.3,0.6,5.9c0.2-0.1,1.5-1.3,2.8-2.7
	c1.6-1.6,2.6-2.5,2.8-2.6c0.2-0.1,0.5-0.2,0.7-0.3c0.3-0.2,0.4-0.2,1.2,0.2c0.8,0.3,0.8,0.4,1.2,1.1c0.7,1.2,0.5,1.5-2.2,4.3
	c-1.1,1.1-2,2.1-2,2.2c0,0.2,0.3,0.7,0.6,1s1,1.2,2.6,3.2c0.5,0.7,1,1.3,1.1,1.4c0.3,0.3,1.1,1.7,1.2,2.1c0.2,1.2-1,2.3-2.4,2.3
	c-1.4,0-1.5-0.1-4.3-3.8c-0.6-0.8-1.4-1.8-1.7-2.2c-0.3-0.4-0.8-1.1-1.1-1.4c-1-1.3-1.1-1.2-1.1,2.7c0,2.8,0,2.9-0.3,3.5
	c-1,1.9-3.8,1.7-4.3-0.3c-0.2-0.8-0.2-21.4,0-22.2c0.2-0.6,0.7-1.2,1.1-1.4C-158.5,782.3-156.6,782.5-156.3,782.8 M-211.3,784.2
	c-0.6,0.2-0.9,0.6-1.3,1.2c-0.4,0.7-0.4,20.2,0,21.1c0.9,1.9,3.9,2,4.9,0.1c0.3-0.6,0.3-0.7,0.3-3.4c0-2.1,0-2.8,0.2-2.9
	c0.1-0.1,1.4-0.2,3.1-0.2c3.8-0.1,5-0.5,6.7-2.2c3.5-3.6,2.5-11-1.8-12.9c-0.3-0.1-0.7-0.3-0.9-0.4
	C-201.3,784-209.9,783.7-211.3,784.2 M-201.7,784.4c0.9,0.1,1.1,0.2,2.3,0.8c2.2,1.1,3.9,4.2,3.8,6.8c-0.1,1-0.3,2.9-0.5,3.2
	c-1.5,3.5-3.5,4.6-8.4,4.6c-2,0-2.8,0-2.9,0.2c-0.1,0.1-0.2,0.9-0.2,2.9c0,2.8-0.3,4.2-0.9,4.2c-0.1,0-0.3,0.1-0.4,0.3
	c-0.8,0.8-3,0.2-3.6-1l-0.2-0.7v-9.8c0-12.8-0.6-11.6,6-11.6C-204.4,784.3-202.2,784.3-201.7,784.4 M-207.4,788.7
	c-0.1,0.1-0.1,6.4,0,6.6c0.1,0.2,3.5,0.2,4.3-0.1c1.3-0.4,2.4-1.9,2.4-3.3c0-1.3-0.5-2.1-1.6-2.9l-0.8-0.5h-2.1
	C-206.4,788.7-207.4,788.7-207.4,788.7 M-202.9,789.1c0.6,0.2,1.6,1.2,1.7,1.7c0,0.2,0.1,0.5,0.2,0.7c0.5,2.1-1.2,3.5-4.2,3.6
	c-2.4,0.1-2.2,0.4-2.1-3.3v-3l0.7-0.1C-205.5,788.8-203.5,788.9-202.9,789.1 M-186.9,789.6c-3,0.4-5.7,3.3-6.5,6.9
	c-1.3,6.2,2.5,11.8,8,11.8c1.3,0,1.3,0,2.8-0.7c0.2-0.1,0.5-0.3,0.7-0.6c0.5-0.6,0.6-0.5,1.3,0.2c1.2,1.2,3.1,1,4.1-0.5l0.3-0.5
	v-7.3v-7.3l-0.4-0.5c-1.1-1.6-3.2-1.8-4.3-0.3c-0.4,0.5-0.6,0.5-1.1,0C-182.9,789.7-184.6,789.3-186.9,789.6 M-165.3,789.6
	c-0.6,0.2-1.6,0.8-2,1.2c-0.3,0.4-0.5,0.4-0.9-0.1c-1.2-1.3-3-1.3-4.2-0.1l-0.5,0.5v7.5c0,8.2-0.1,7.9,0.8,8.7c1.1,1,3.2,0.7,4-0.6
	c0.3-0.4,0.3-0.6,0.4-4.9c0.1-5.8,0.2-6,3.1-6.9c2.5-0.8,3.1-1.3,3.1-2.7C-161.6,790.2-163.2,789.1-165.3,789.6 M-184.6,789.8
	c1.2,0.1,2.1,0.6,2.8,1.3c0.3,0.4,0.6,0.3,1.1-0.2c1.2-1.3,2.9-1.3,3.9,0.2l0.4,0.5v7.2c0,8.1,0,7.7-1,8.5c-0.9,0.7-2.8,0.4-3.4-0.6
	c-0.3-0.5-0.5-0.5-1.4,0.3c-0.5,0.5-0.9,0.7-1.2,0.7c-0.2,0-0.5,0.1-0.6,0.2c-0.4,0.3-2.8,0.3-3.3,0c-0.2-0.1-0.5-0.2-0.7-0.2
	c-0.8,0-3.6-2.1-3.9-3c0-0.1-0.2-0.3-0.3-0.4c-0.1-0.1-0.3-0.5-0.5-0.9c-0.2-0.4-0.3-0.8-0.5-1.1c-0.6-1.3-0.5-6,0-6.9
	c0.1-0.2,0.2-0.5,0.2-0.6c0-1,2.4-3.8,3.7-4.4c0.4-0.2,0.8-0.4,1-0.5c0.1-0.1,0.7-0.2,1.2-0.2s1-0.1,1-0.1
	C-185.8,789.7-185.2,789.8-184.6,789.8 M-163.4,789.8c0.2,0,0.5,0.2,1,0.7l0.6,0.7v0.9c0,1.4-0.5,1.8-3,2.7c-1.8,0.6-2.5,1.1-2.8,2
	c-0.1,0.3-0.2,0.5-0.3,0.6c-0.1,0-0.1,1.9-0.1,4.5c0,4.9,0,4.7-0.9,5.5c-0.4,0.3-0.5,0.4-1.5,0.4h-1l-0.6-0.6l-0.6-0.6v-7.5v-7.5
	l0.3-0.4c0.5-0.7,2.3-1.3,2.5-0.9c0,0.1,0.2,0.1,0.4,0.2c0.2,0,0.6,0.3,0.9,0.6c0.6,0.6,1,0.7,1.4,0.1c0.8-0.9,2-1.4,2.9-1.2
	C-164,789.8-163.6,789.8-163.4,789.8 M-185.6,794.4c-3.7,0.3-4.2,7-0.7,8.8c1.3,0.7,4.2-0.2,4.2-1.2c0-0.1,0.1-0.3,0.3-0.5
	s0.3-0.6,0.3-0.8c0-0.2,0.1-0.5,0.1-0.5c0.2-0.1,0.3-1.2,0.1-1.9c-0.1-0.4-0.2-0.9-0.3-1.2C-181.8,795.3-183.4,794.3-185.6,794.4
	 M-183.5,794.9c3.6,1.9,2.2,8.9-1.7,8.4c-3.4-0.4-4.5-6.2-1.5-8.2C-185.8,794.5-184.3,794.4-183.5,794.9"/>
<path id="path3" style="fill:#B3D236;" d="M-173.5,704.4c-0.6,0.1-2.1,0.2-3.4,0.3c-3.1,0.2-3.3,0.3-2.8,1c0.4,0.6,4.2,0.8,6.2,0.4
	c0.3-0.1,0.5,0.1,1.1,0.6c1.4,1.1,6.4,1.3,6.4,0.2c0-0.2-1.8-1.7-2.7-2.3C-169.1,704.3-171.4,704.2-173.5,704.4 M-187.5,705.2
	c-7.8,0.4-9.3,0.7-8.2,1.7l0.4,0.4h2c1.1,0,2.5-0.1,3.1-0.1c0.6-0.1,2.2-0.2,3.5-0.3c2.6-0.2,2.9-0.3,2.7-1
	C-184.1,705.3-185.3,705.1-187.5,705.2 M-205.9,706.3c-0.7,0.1-1.6,0.1-2.1,0.2c-0.5,0-1.5,0.1-2.3,0.2c-2.7,0.2-3,0.4-3,2.1
	c0.1,1.5,0,1.4,2.9,1.4c3,0,3.8-0.3,3.8-1.3v-0.6l0.6-0.1c0.3-0.1,1.6-0.2,2.8-0.3c2.6-0.2,3.1-0.4,2.7-1.2
	C-200.8,706.2-202.4,706.1-205.9,706.3 M-168.3,708.5c-0.3,0.1-0.7,0.1-0.8,0.2c-0.4,0.1-0.4,0.5,0.2,1c0.2,0.2,0.8,0.8,1.2,1.2
	c1.3,1.3,1.6,1.4,4.1,1.4c3.7,0,4.3-0.4,2.5-1.7c-0.4-0.3-0.7-0.5-0.8-0.6C-163.1,708.5-165.8,707.9-168.3,708.5 M-193.9,710.3
	c-0.8,0.4-0.8,0.5-0.2,1.7c0.6,1.2,0.6,1.1-1,1.3c-2.1,0.1-2.8,0.8-2.2,1.9c0.1,0.1,0.2,0.4,0.3,0.5c0.1,0.1,0.1,0.4,0.1,0.5
	c0,0.1,0.1,0.5,0.2,0.8c0.1,0.3,0.3,0.7,0.3,0.9c0.1,0.2,0.1,0.5,0.2,0.5c0.1,0,0.1,0.2,0.1,0.5c0,0.2,0.1,0.6,0.3,0.8
	c0.1,0.2,0.3,0.5,0.3,0.7c0,0.1,0.1,0.4,0.2,0.7c0.1,0.2,0.3,0.7,0.3,0.9c0.1,0.3,0.2,0.6,0.3,0.7c0.1,0.1,0.1,0.3,0.2,0.6
	c0,0.2,0.2,0.6,0.3,0.9c0.1,0.2,0.3,0.9,0.5,1.6c0.2,0.6,0.4,1.2,0.5,1.2c0.1,0,0.1,0.2,0.1,0.4c0,0.2,0.1,0.6,0.2,0.9
	c0.1,0.3,0.4,0.9,0.5,1.4c0.1,0.4,0.3,1,0.5,1.3c0.1,0.3,0.3,0.7,0.3,0.9c0.1,0.4,0.5,1.5,0.7,2.1c0.1,0.2,0.4,1.2,0.8,2.2
	c0.3,1,0.7,2,0.7,2.1c0.1,0.1,0.3,0.8,0.5,1.4c0.2,0.6,0.5,1.4,0.6,1.7c0.1,0.3,0.2,0.6,0.2,0.8c0,0.2,0.1,0.3,0.1,0.5
	c0.1,0.1,0.3,0.8,0.5,1.5c0.4,1.3,0.8,2.1,0.8,1.7c0-0.1-0.1-0.5-0.3-0.7c-0.1-0.3-0.3-0.6-0.3-0.8c0-0.1-0.1-0.3-0.1-0.4
	c-0.1-0.1-0.2-0.4-0.3-0.7c-0.2-0.6-0.5-1.8-0.7-2.1c-0.1-0.1-0.4-1.1-0.8-2.2c-1.3-3.9-1.6-4.7-1.8-5.1c-0.1-0.2-0.2-0.5-0.2-0.6
	c0-0.1-0.1-0.5-0.3-0.8c-0.1-0.3-0.3-0.7-0.3-0.8c0-0.2-0.1-0.4-0.2-0.6c-0.1-0.1-0.2-0.4-0.2-0.5c0-0.1-0.1-0.5-0.3-0.8
	c-0.1-0.3-0.3-0.6-0.3-0.7c0-0.1-0.1-0.6-0.3-1c-0.4-1.1-0.6-1.6-1-2.7c-0.2-0.6-0.7-2.1-1.1-3.4c-0.4-1.3-0.9-2.6-1-3
	c-0.1-0.4-0.2-0.7-0.3-0.8c-0.1-0.1-0.1-0.3-0.1-0.4c0-0.2-0.1-0.5-0.3-0.8c-0.1-0.3-0.3-0.6-0.3-0.7c0-0.1-0.1-0.5-0.3-0.8
	c-0.5-1.2-0.1-1.6,2.1-1.9c1.7-0.2,1.7-0.2,1-1.5c-0.5-1.1-0.5-1.2,0.3-1.4c1.4-0.5,2.6-0.1,3.2,1c0.8,1.6,0.6,1.5,2.5,1.4
	c0.9,0,1.8-0.1,2.1-0.2c0.3,0,1.7-0.1,3-0.2c1.4-0.1,3.1-0.2,3.8-0.3c2.2-0.3,4.1-0.3,4.4-0.1c0.2,0.1,0.4,0.2,0.6,0.3
	c0.2,0,0.6,0.3,0.8,0.6c0.3,0.3,1,1.1,1.6,1.8c0.6,0.7,1.3,1.5,1.6,1.8s1.3,1.5,2.4,2.7c1.1,1.2,2.6,2.9,3.4,3.8
	c0.8,0.9,1.6,1.8,1.8,2c0.1,0.1,0.5,0.5,0.8,0.9c0.5,0.6,2,2.3,2.8,3.1c1.1,1.2,2.5,2.7,3,3.3c0.3,0.3,0.6,0.7,0.8,0.9
	c0.1,0.2,1.2,1.3,2.3,2.6c1.1,1.3,2.9,3.3,4,4.5c2.3,2.5,2.6,3,2.6,3.7c0,0.6-0.6,1.3-1.4,1.4c-0.3,0-0.7,0.1-0.9,0.2
	c-0.2,0.1-1.1,0.2-2,0.3c-0.9,0.1-1.7,0.2-1.8,0.3c-0.1,0.1-0.7,0.1-1.4,0.2c-0.7,0-1.7,0.2-2.3,0.3c-0.6,0.1-2.3,0.3-3.8,0.5
	s-2.9,0.4-3.2,0.4s-1.2,0.2-2.1,0.3c-0.9,0.1-1.8,0.2-2.2,0.3c-0.3,0.1-1,0.2-1.5,0.2s-1.5,0.2-2.3,0.3c-0.7,0.1-2.1,0.3-3.1,0.5
	c-1.3,0.2-1.5,0.2-0.9,0.2c1.2-0.1,3.1-0.3,4.6-0.6c0.7-0.1,1.7-0.3,2.3-0.3c0.6-0.1,1.7-0.2,2.4-0.3c0.7-0.1,2.1-0.3,3-0.4
	c0.9-0.1,2.6-0.3,3.6-0.5c1.7-0.2,2.7-0.4,7.6-1c4.1-0.5,4.2-0.6,4.9-1.2c0.9-0.9,0.6-1.7-1.5-4.1c-0.6-0.6-1.7-1.8-2.4-2.6
	c-0.7-0.8-1.5-1.7-1.8-2s-0.9-1-1.5-1.6c-0.6-0.6-1-1.1-1.1-1.1c-0.1,0-0.1-0.1-0.1-0.1s-0.3-0.5-0.6-0.8c-1.1-1.2-1.5-1.6-2.2-2.4
	c-0.4-0.4-0.9-1-1.1-1.3c-0.3-0.3-0.6-0.6-0.7-0.8c-0.1-0.2-0.6-0.7-1.1-1.2c-1-1.1-1.6-1.7-2.8-3.1c-0.5-0.6-1-1.1-1.2-1.3
	c-0.1-0.1-1.2-1.4-2.5-2.8c-1.3-1.4-2.5-2.8-2.8-3.1c-0.3-0.3-0.7-0.8-1-1.1c-0.3-0.3-0.6-0.7-0.8-0.9c-0.1-0.2-0.7-0.7-1.1-1.3
	c-1.5-1.7-2.3-1.9-7-1.4c-1.1,0.1-3,0.3-4.2,0.3c-1.2,0.1-2.9,0.2-3.7,0.3c-0.8,0.1-1.6,0.1-1.7,0.1c-0.3,0-0.7-0.5-1.1-1.4
	C-190.9,710.1-192.4,709.6-193.9,710.3 M-209.3,711.2c-3.4,0.2-3.7,0.4-3.7,2.5v1.5l0.4,0.3c0.8,0.5,5.2,0.3,6.3-0.3
	c0.7-0.4,0.8-0.6,0.5-1.6c-0.1-0.4-0.2-1-0.2-1.3c0-0.7-1-1.4-1.9-1.3C-207.9,711.1-208.6,711.2-209.3,711.2 M-161.7,713.5
	c-2.5,0.2-2.5,0.6-0.1,2.8c2.5,2.3,2.5,2.3,5.7,2.2c4.3-0.1,4.5-0.4,1.5-2.8C-157.6,713.3-157.9,713.2-161.7,713.5 M-208.9,717.1
	c-4.1,0.5-4.2,0.5-4,3.6l0.1,2l0.5,0.3c1.1,0.5,2.3,0.5,5.9,0c1.1-0.2,1.9-0.7,2-1.3c0-0.4-0.4-3.3-0.6-3.8
	C-205.3,717.2-207.1,716.9-208.9,717.1 M-152.9,720c-4,0.5-4.1,0.7-0.9,3.7c3.3,3.1,3.7,3.3,6.9,3.3c4.6,0,5.4-1.1,2.2-3.2
	c-0.2-0.1-1-0.8-1.9-1.5c-1.8-1.4-2.4-1.8-2.8-1.8c-0.2,0-0.4-0.1-0.6-0.2C-150.4,719.9-151.8,719.8-152.9,720 M-207.9,725
	c-0.2,0.1-0.9,0.2-1.6,0.2c-3,0.2-3.3,0.6-3.4,4.2c0,3.6-0.1,3.5,2.1,4c1.8,0.4,6.3-0.4,7.3-1.3l0.5-0.4v-1c0-0.5-0.1-1.4-0.2-1.8
	c-0.1-0.4-0.2-1.2-0.3-1.7c-0.1-1.2-0.5-1.8-1.3-2C-205.6,724.9-207.4,724.8-207.9,725 M-142.6,729c-0.4,0.1-1.1,0.1-1.5,0.2
	c-0.8,0.1-1.5,0.4-1.7,0.9c-0.2,0.3,0.2,0.9,1.1,1.7c0.4,0.4,1,0.9,1.3,1.2c2.4,2.4,5,4.6,6,5c1.9,0.9,7.3,0.8,8.6-0.2
	c0.6-0.5,0.6-0.9,0.1-1.5c-0.4-0.4-3-2.6-3.7-3.1c-0.2-0.1-0.5-0.4-0.8-0.7c-0.6-0.5-0.7-0.6-2.2-1.8
	C-137.9,729.1-139.9,728.6-142.6,729 M-208.2,736c-2.7,0.2-4.4,1-5,2.3c-0.3,0.7-0.3,7.5,0,8.2c0.7,1.6,2.9,2.1,6.9,1.5
	c5-0.8,5.7-1.6,4.9-5.9c-0.2-0.8-0.3-1.9-0.4-2.4c-0.3-2.2-0.4-2.4-0.6-2.7C-202.9,736-204.6,735.7-208.2,736 M-126.9,741.6
	c0,0-0.7,0.1-1.4,0.2c-3.5,0.4-3.9,1.6-1.2,4c0.6,0.6,1.5,1.4,2,1.8c0.5,0.4,1,0.9,1.2,1c0.3,0.3,0.4,0.8,0.1,0.8
	c-0.1,0-0.2,0-0.3,0c-0.1,0-0.5,0.1-1.1,0.1c-0.5,0.1-1.4,0.2-2,0.3c-0.6,0.1-1.4,0.2-1.9,0.3c-4.1,0.4-5.3,1.6-3.8,3.7
	c0.3,0.4,0.6,0.9,0.8,1c0.1,0.1,0.5,0.5,0.8,0.9c1.2,1.4,3.7,2.6,5.5,2.8c0.3,0,0.8,0.1,1,0.1c0.4,0.1,1.9-0.1,5.1-0.7
	c1.7-0.3,4.2-0.7,5.4-0.9c0.5-0.1,1.4-0.2,1.9-0.3s1.5-0.3,2.1-0.3c0.7-0.1,1.3-0.2,1.5-0.3s0.5-0.1,0.8-0.1c2.2,0,3.4-1.5,2.5-3
	c-0.2-0.3-2.5-2.2-5.4-4.5c-0.3-0.2-0.9-0.7-1.4-1.1c-0.5-0.4-1.7-1.4-2.7-2.1c-1-0.8-2-1.6-2.3-1.9c-0.5-0.4-1.4-0.9-2.6-1.4
	C-123.2,741.7-126.7,741.3-126.9,741.6 M-186.6,746.3c0,0.2,0,0.3,0.1,0.4c0.1,0,0.2,0.3,0.2,0.6s0.2,0.6,0.3,0.8
	c0.1,0.1,0.3,0.3,0.3,0.4c0,0.3,0.6,0.8,1.8,1.4c0.8,0.4,2.3,0.5,3.9,0.3c0.5-0.1,1.6-0.2,2.5-0.3c0.9-0.1,1.6-0.2,1.6-0.3
	c0.1-0.1-1.1-0.1-2.1,0.1c-1.4,0.3-4.6,0.4-5.3,0.2c-1.3-0.3-2.8-1.7-2.8-2.5C-186.1,746.9-186.6,745.9-186.6,746.3 M-205.2,752
	c-2.1,0.3-4.4,0.7-4.8,0.8c-3.4,1.7-3.3,1.5-3.3,10v6.4l0.4,0.7c1,1.6,3.3,2.4,5.9,2c1.3-0.2,3.6-0.6,5.6-0.9
	c0.6-0.1,1.4-0.2,1.8-0.3c0.4,0,1-0.2,1.5-0.3c0.5-0.1,1.3-0.2,1.9-0.3c0.5-0.1,1.6-0.2,2.4-0.4c0.8-0.1,2.8-0.5,4.4-0.7
	c4.2-0.7,4.8-0.8,5.7-1.3c2.3-1.2,2.9-3.3,1.8-5.5c-0.1-0.2-0.2-0.5-0.2-0.6c0-0.2-0.6-1.1-1.1-1.7c-1.1-1.2-3.5-1.7-5.7-1.3
	c-0.6,0.1-1.7,0.3-2.2,0.3c-2.1,0.3-4.8,0.7-5.4,0.8c-1.6,0.4-1.9,0.2-2.1-1.3c-0.1-0.6-0.2-1.5-0.3-2.1c-0.1-0.6-0.2-1.2-0.2-1.5
	C-199.2,752.8-201.6,751.6-205.2,752 M-152.2,753.3c-0.6,0.1-1.8,0.3-2.6,0.4c-0.9,0.1-2.1,0.3-2.8,0.4c-0.7,0.1-1.8,0.3-2.6,0.4
	c-0.8,0.1-2,0.3-2.6,0.4c-1.2,0.2-1.9,0.3-4.5,0.7c-3.4,0.5-5.2,2.3-4.2,4.2c0.1,0.2,0.2,0.5,0.3,0.8c0,0.2,0.2,0.5,0.3,0.6
	c0.1,0.1,0.2,0.3,0.2,0.4c0,0.6,1.1,1.8,2.3,2.6c1.2,0.7,4.5,1.2,5.8,0.7c0.2-0.1,0.8-0.2,1.4-0.3c0.5-0.1,1.3-0.2,1.8-0.3
	c0.4-0.1,1.2-0.2,1.6-0.2c0.9-0.1,3-0.4,4.4-0.7c0.5-0.1,1.3-0.2,1.7-0.3c0.4,0,1.2-0.2,1.6-0.3c0.4-0.1,1.2-0.2,1.6-0.3
	c0.4,0,1-0.1,1.3-0.2c0.3-0.1,0.9-0.2,1.5-0.2c2.7-0.3,4.6-2.1,3.6-3.5c-0.1-0.2-0.2-0.4-0.2-0.5c0-0.2-0.9-1.5-1.6-2.2
	c-0.2-0.2-0.4-0.4-0.4-0.5c0-0.1-1.4-1.1-1.9-1.4C-148.3,753.2-150.3,752.9-152.2,753.3 M-159.2,782.2c-0.6,0.3-1.1,0.9-1.3,1.6
	c-0.3,0.9-0.3,22,0,22.7c1,2.4,4.6,2.3,5.3-0.2c0.1-0.3,0.2-1.7,0.2-3.3c0-1.5,0-2.7,0-2.8c0,0,0.1,0.1,0.2,0.3
	c0.1,0.2,0.3,0.4,0.4,0.5c0.8,1,1.8,2.3,2.2,2.9c0.5,0.7,0.9,1.2,1.2,1.5c0.1,0.1,0.2,0.2,0.2,0.3s1,1.3,1.5,1.8
	c1.6,1.5,4.6,0.5,4.8-1.7c0.1-0.9-0.3-1.4-3.8-5.9c-1.1-1.4-1.5-2-1.5-2.1c0-0.1,0.9-1,1.9-2c2.5-2.5,2.9-3.2,2.3-4.4
	c-0.3-0.7-0.7-1.2-1-1.2c-0.1,0,0,0.2,0.2,0.4c1.4,1.5,1.1,2.3-1.8,5.3c-2.1,2.2-2.1,2-1.6,2.5c0.7,0.7,4.4,5.5,4.8,6.1
	c1.2,2-0.4,3.9-3,3.5c-0.8-0.1-2.1-1.5-4.1-4.4c-0.2-0.3-0.7-1-1.1-1.5c-0.4-0.5-0.9-1.2-1.2-1.6c-0.8-1.1-0.8-1-0.8,2.5
	c-0.1,4.2-0.4,4.9-2.7,4.9h-1.1l-0.6-0.6c-0.3-0.3-0.6-0.8-0.7-1.1c-0.3-0.9-0.2-21.7,0-22.5c0.8-2.1,3.8-2.3,4.8-0.2l0.3,0.7v5.6
	c0,4.3,0,5.6,0.2,5.6c0.1,0,1.4-1.2,2.8-2.6c3.1-3,4-3.6,4.9-2.9c0.2,0.1,0.4,0.2,0.5,0.1c0.3-0.1-1.1-0.6-1.5-0.6
	c-1.1,0.3-1.7,0.8-4.1,3.2c-1.3,1.4-2.5,2.5-2.5,2.5s-0.1-2.5-0.1-5.5c0-6.1,0-6.2-0.9-7.1C-156.7,781.9-158.3,781.7-159.2,782.2
	 M-93.1,782.3c-0.7,0.3-1.2,0.9-1.3,1.5c-0.2,0.7-0.2,21.7,0,22.4c0.5,1.8,3.2,2.4,4.3,1c0.6-0.7,0.7-0.7,1.4-0.1
	c2.2,1.9,6.1,1.5,8.6-0.8c0.7-0.6,1.8-2.1,1.8-2.3c0-0.1,0.1-0.2,0.2-0.3c0.3-0.3,0.6-1.4,0.9-2.8c0.9-4.3-1-8.8-4.4-10.6
	c-0.9-0.5-3.4-1.1-3.7-0.9c0,0-0.6,0.1-1.1,0.2c-0.7,0.1-1.3,0.3-1.8,0.5c-1.3,0.7-1.2,0.9-1.2-3.1v-3.5l-0.4-0.5
	C-90.7,782.1-92,781.8-93.1,782.3 M-73.4,782.4c-1.3,0.6-1.9,1.7-1.7,3.2c0.3,3.2,4.9,3.8,6,0.7C-68.2,783.6-70.8,781.2-73.4,782.4
	 M-65,782.3c-0.3,0.1-0.7,0.5-0.9,0.8l-0.4,0.6v11c0,7.2,0,11.2,0.1,11.5c0.5,1.7,3.1,2.4,4.3,1.1c0.8-0.9,0.8-0.1,0.7-12.4v-11.2
	l-0.4-0.5C-62.5,782.1-63.9,781.7-65,782.3 M-211.6,784.1c-0.2,0.1-0.7,0.6-1,1l-0.5,0.8v10v10l0.3,0.7c0.5,1,1,1.4,2.3,1.6
	c0.7,0.1,2-0.2,2-0.5c0-0.1,0.1-0.1,0.2-0.1c0.7,0,1.1-1.8,1.1-4.8v-2.3l2.3-0.1c2.8-0.1,4.1-0.2,4.7-0.5c0.2-0.1,0.5-0.2,0.6-0.2
	c0.7,0,2.8-2,3.4-3.2c0.9-1.9,1.3-5.1,0.7-6.4c-0.1-0.3-0.2-0.6-0.2-0.8c0-1.6-3.3-4.6-5.4-5.1
	C-202.1,783.8-211.1,783.9-211.6,784.1 M-201.5,784.2c0.5,0.1,1.1,0.3,1.3,0.4c0.2,0.1,0.6,0.3,0.9,0.4c4.2,1.9,5.2,9.4,1.8,12.9
	c-1.6,1.7-2.8,2.1-6.7,2.2c-1.6,0-3,0.1-3.1,0.2c-0.1,0.1-0.2,0.8-0.2,2.9c0,2.7,0,2.8-0.3,3.4c-0.9,1.9-4,1.8-4.9-0.1
	c-0.4-0.9-0.4-20.4,0-21.1c0.3-0.7,0.7-1,1.3-1.2C-210.5,784-202.8,783.9-201.5,784.2 M-206.6,788.9l-0.7,0.1v3
	c0,3.7-0.2,3.4,2.1,3.3c3-0.1,4.7-1.5,4.2-3.6c-0.1-0.2-0.1-0.6-0.2-0.7C-201.5,789.4-203.7,788.6-206.6,788.9 M-203,789.3
	c2.6,1.1,2.3,4.8-0.5,5.6c-0.7,0.2-3.6,0.1-3.7-0.1c0-0.1,0-1.4,0-3V789h1.8C-203.9,789.1-203.4,789.1-203,789.3 M-186.2,789.3
	c-0.1,0.1-0.5,0.1-0.8,0.1c-2,0-6.1,3.5-6.1,5.2c0,0.1-0.1,0.5-0.3,0.8c-0.7,1.7-0.7,5.6,0.1,7.2c0.1,0.2,0.2,0.5,0.2,0.6
	c0,0.2,0.3,0.8,0.9,1.7c2.3,3.7,8.1,4.9,10.5,2.3c0.3-0.3,0.6-0.3,0.8,0c0.5,0.9,2.4,1.3,3.5,0.7c0.5-0.3,1.3-1.2,1.2-1.5
	c0-0.1-0.2,0.1-0.4,0.4c-0.9,1.5-2.8,1.7-4,0.5c-0.7-0.7-0.8-0.7-1.3-0.2c-0.2,0.2-0.6,0.5-0.7,0.6c-1.6,0.7-1.6,0.7-2.8,0.7
	c-6.7,0-10.6-8.6-6.7-15.1c2.2-3.7,7.7-5.1,10.3-2.5c0.5,0.5,0.7,0.5,1.1,0c1.1-1.5,3.2-1.3,4.3,0.3l0.4,0.5v7.3v7.3v-7.1
	c0-7.9,0-7.8-0.5-8.4c-1.3-1.5-3.1-1.5-4.4-0.1l-0.4,0.4l-0.4-0.4c-0.2-0.2-0.7-0.5-1-0.7c-0.6-0.3-0.9-0.4-2.8-0.7
	C-185.7,789.2-186.1,789.2-186.2,789.3 M-164.7,789.3c0,0.1-0.3,0.1-0.5,0.1c-0.2,0-0.6,0.1-0.9,0.3s-0.5,0.3-0.6,0.3
	c-0.1,0-0.3,0.2-0.5,0.5c-0.5,0.6-0.5,0.6-1,0c-1.6-1.8-4.7-1-5,1.4c-0.2,2,0,14.3,0.2,14.7c0.7,1.4,2.6,1.9,3.9,1.1
	c0.3-0.2,0.6-0.4,0.6-0.4s0.1-0.2,0.2-0.3c0.6-0.7,0.6-0.9,0.7-5.2c0-5.8,0.1-5.9,3.3-6.9c2.2-0.7,2.8-1.3,2.8-2.8s-0.7-2.5-2-2.8
	c-0.3-0.1-0.6-0.1-0.8-0.2C-164.4,789.2-164.6,789.2-164.7,789.3 M-50.2,789.4c-0.1,0.1-0.7,0.1-1.2,0.2
	c-8.5,0.8-10.2,14.3-2.3,17.9c2.3,1.1,7.2,1,8.8,0c0.2-0.1,0.4-0.2,0.5-0.2s0.7-0.3,1.2-0.7c3.3-2.1,1.5-6-2.1-4.3
	c-2,0.9-2.3,1-3.9,1c-2.2,0-3.7-0.8-3.9-2.1c-0.1-0.7-0.2-0.7,5.5-0.7h5.3l0.5-0.5l0.5-0.5v-1.6c0-1.3-0.1-1.7-0.4-2.6
	c-1-2.8-2.2-4.2-4.9-5.5c-0.3-0.2-3.4-0.8-3.4-0.7C-49.9,789.3-50.1,789.4-50.2,789.4 M-163.6,789.6c1.3,0.3,2,1.3,2,2.7
	s-0.6,1.9-3.1,2.7c-2.9,0.9-3,1-3.1,6.9c-0.1,4.3-0.1,4.5-0.4,4.9c-0.8,1.3-2.9,1.6-4,0.6c-0.8-0.8-0.8-0.5-0.8-8.7v-7.5l0.5-0.5
	c1.2-1.2,2.9-1.2,4.2,0.1c0.5,0.5,0.6,0.5,0.9,0.1C-166.4,789.8-164.8,789.3-163.6,789.6 M-135,789.6c-0.9,0.2-2.4,1-2.4,1.2
	c0,0.3-0.5,0.2-0.9-0.1c-0.5-0.5-1.6-1-2.2-1c-0.8,0-2.1,0.8-2.3,1.5c0,0.2-0.1,0.4-0.2,0.4c-0.3,0.2-0.1,14.2,0.1,14.8
	c1,2.1,3.7,2.1,4.8,0c0.2-0.5,0.3-0.8,0.3-5.4v-4.9l0.3-0.7c0.9-1.8,3.1-2.1,4.1-0.5c0.6,0.8,0.6,1,0.7,6.5l0.1,5.1l0.5,0.5
	c1,1,2.7,1.1,3.7,0.2c0.9-0.9,0.9-0.9,1-6.2c0-5.3,0.1-5.7,0.8-6.4c1.3-1.3,3.3-0.8,4,1c0.3,0.7,0.3,1,0.3,5.5c0,5.3,0,5.5,0.9,6.2
	c1.3,1.1,3.5,0.6,4.1-1c0.3-0.7,0.4-11.1,0.1-12.3c-0.5-1.9-1.4-3.2-3-4c-1.5-0.7-4.5-0.9-5.7-0.2c-0.2,0.1-0.7,0.3-1.1,0.5
	s-0.9,0.5-1,0.6c-0.4,0.3-0.8,0.3-1.2-0.1C-130.3,789.8-132.8,789.2-135,789.6 M-107.5,789.6c-0.6,0.1-1.2,0.2-1.3,0.3
	c-0.1,0.1-0.6,0.3-1,0.5c-4.3,2.1-5.9,8.5-3.5,13.4c3.3,6.6,13.5,5.8,15.8-1.2C-95.2,795-100.1,788.5-107.5,789.6 M-72.7,789.8
	c-0.7,0.2-1.2,0.6-1.6,1.2l-0.4,0.6v7.1c0,4.5,0.1,7.3,0.2,7.6c0.5,2,3.8,2.2,4.8,0.2c0.3-0.6,0.5-14,0.2-15
	C-70,790.3-71.5,789.4-72.7,789.8 M-48.3,794.4c0.8,0.5,1.6,1.6,1.6,2.1v0.4h-3.1H-53v-0.4C-53.2,794.8-50.1,793.4-48.3,794.4
	 M-186,794.7c-2.5,0.6-3.3,5.6-1.2,7.6c1.7,1.6,3.9,1.3,5.1-0.8C-180.1,798-182.5,793.8-186,794.7 M-104.2,795
	c2.8,1.6,2.5,6.9-0.5,8.1c-3.4,1.3-5.9-3.6-3.7-7.1C-107.6,794.6-105.7,794.2-104.2,795 M-84.1,795c3.6,2.5,1.2,9.5-2.7,8
	c-0.7-0.3-1.8-1.2-1.8-1.5c0-0.1-0.1-0.2-0.2-0.4c-0.7-0.7-0.6-3.7,0.1-4.9C-87.7,794.6-85.6,794-84.1,795 M-183.4,795.2
	c1.8,0.9,2.4,4.5,1,6.6c-1,1.5-3.3,1.8-4.7,0.5c-0.5-0.4-0.6-0.7-1-1.7c-0.2-0.5-0.2-2.7,0-3.2c0.5-1.2,0.8-1.6,1.5-2.1
	C-185.8,794.7-184.3,794.7-183.4,795.2"/>
</svg>
