<?xml version="1.0" encoding="utf-8"?>
<!-- Generator: Adobe Illustrator 19.0.0, SVG Export Plug-In . SVG Version: 6.00 Build 0)  -->
<svg version="1.1" id="svg" xmlns="http://www.w3.org/2000/svg" xmlns:xlink="http://www.w3.org/1999/xlink" x="0px" y="0px"
	 width="272.9px" height="66px" viewBox="-212.9 737.1 272.9 66" style="enable-background:new -212.9 737.1 272.9 66;"
	 xml:space="preserve">
<path id="path0" d="M-201.1,737.8c-3.8,0.4-8.9,4.5-8.9,7.1c0,0.3-0.1,0.6-0.3,0.7c-0.4,0.3-0.4,4.6,0.1,5.6
	c1.1,2.5,3.9,5.1,6.9,6.2c0.6,0.2,1.3,0.5,1.6,0.6c0.3,0.1,1.2,0.4,1.9,0.6c1.6,0.5,3.8,1.6,4.3,2.3c0.7,0.9,0.2,3-0.7,3
	c-0.2,0-0.3,0.1-0.3,0.3s-1,0.3-2.5,0.3s-2.5-0.1-2.5-0.3c0-0.2-0.3-0.3-0.6-0.3c-0.6,0-2.2-0.8-3.6-1.9c-0.9-0.7-2.2-1-2.2-0.5
	c0,0.1-0.9,1.3-2,2.7c-2.1,2.6-2.4,3.4-1.5,4.3c1,0.9,1.8,1.5,2.1,1.5c0.2,0,0.7,0.2,1.2,0.5c1.7,0.9,3.6,1.5,4.9,1.5
	c0.7,0,1.5,0.1,1.6,0.3c0.3,0.3,4.5,0.2,6.9-0.2c5.6-1,9.7-5.5,9.7-10.7c0-1.2-0.1-2.3-0.3-2.3c-0.2-0.1-0.3-0.5-0.3-0.9
	c0-0.4-0.2-0.8-0.4-1c-0.2-0.2-0.4-0.5-0.4-0.6c0-1.3-3.5-3.7-7.5-5c-1.5-0.5-2.8-1-2.9-1.1c-0.1-0.1-0.4-0.2-0.7-0.2
	c-1.9,0-4-2.4-3.3-3.7c1.2-2,4.4-2,8.2,0c2.1,1.1,2.7,1,3.7-0.3c0.4-0.6,1.2-1.6,1.8-2.2c1.3-1.5,1.3-2.3-0.3-3.4
	c-1.4-1-3.5-2-4.3-2c-0.3,0-0.6-0.1-0.8-0.3C-192.7,737.9-199.2,737.6-201.1,737.8 M-63.9,737.9c-2.7,0.5-3.3,0.7-6.3,2.4
	c-1.2,0.7-4.3,3.9-4.9,5.1c-0.3,0.7-0.7,1.3-0.9,1.4c-0.2,0.1-0.3,0.5-0.3,0.9c0,0.4-0.1,0.8-0.3,0.9c-0.2,0.1-0.3,0.5-0.3,1
	s-0.1,0.9-0.3,1.1c-0.6,0.6,0,10.9,0.6,11.3c0.1,0.1,0.3,0.4,0.3,0.7c0,0.6,1.6,3.2,2.8,4.7c1.2,1.4,4,3.2,6.3,4.1
	c2.7,1.1,11.1,1.2,13.4,0.3c0.3-0.1,1.2-0.5,2-0.7c2.2-0.8,3.1-1.1,3.1-1.4c0-0.1,0.2-0.2,0.3-0.2c0.2,0,0.8-0.3,1.3-0.7l1-0.7
	l-0.1-7.5l-0.1-7.5h-6h-6l-0.1,2.6c-0.1,3.8-0.1,3.9,1.7,3.9c2.1,0,2.6,0.4,2.6,1.7c0,1.5-1.5,2.7-3.5,2.7c-0.5,0-0.9,0.1-1,0.3
	c-0.2,0.3-0.9,0.3-3.3-0.2c-8.1-1.5-8.8-15.1-0.9-17.5c1.4-0.4,4.8-0.5,5.5-0.1c0.3,0.1,0.9,0.4,1.3,0.6s1.3,0.8,1.9,1.3
	s1.3,1,1.5,1c0.6,0,5.5-5,5.5-5.7c0-1.3-5.4-5.1-7.2-5.1c-0.3,0-0.6-0.1-0.8-0.3C-55.3,737.8-62.1,737.6-63.9,737.9 M-179.6,738.7
	c-0.5,0.5-0.2,32.3,0.3,32.8c0.4,0.4,1.2,0.5,3.9,0.5c4.8,0,4.7,0.3,4.7-7.3v-5.8l5.7,0.1l5.7,0.1l0.1,5.9c0.1,7.5-0.2,7,4.6,7
	c3.1,0,3.6-0.1,4-0.5c0.6-0.7,0.8-31.9,0.1-32.6c-0.5-0.5-8-0.5-8.3,0c-0.1,0.2-0.3,2.8-0.4,5.7l-0.1,5.4l-5.7,0.1l-5.7,0.1v-5.3
	c0-6.9,0.3-6.4-4.6-6.4C-177.6,738.5-179.5,738.6-179.6,738.7 M-143.4,750.7c0,7,0.1,12.4,0.3,12.7c0.1,0.3,0.6,1.2,0.9,2
	c4.3,9.5,20.9,9.3,25.6-0.2c1.4-2.9,1.4-3.2,1.3-15.2l-0.1-11.3l-4.3-0.1c-5.2-0.1-4.6-1.6-4.7,11.4c-0.1,10.7-0.1,11.1-1.5,12.5
	c-1.8,1.8-5.7,1.7-7.4-0.2c-1.5-1.6-1.5-2-1.5-13.1c0-9.2-0.1-10.4-0.5-10.6c-0.3-0.1-2.2-0.2-4.4-0.2h-3.9v12.3 M-108.5,754.9
	c0,12.3,0.1,16.5,0.3,16.7c0.2,0.2,1.5,0.3,3.7,0.3c4.8,0,4.6,0.2,4.7-6.4l0.1-5.1h2h2l2.6,5.3c3.2,6.5,2.8,6.2,7.4,6.2
	c5.8,0,5.7,0.3,1.7-7c-3.7-6.5-3.5-5.9-1.7-7.4c1.3-1.1,2.2-2.5,3-4.5c0.4-1.2,0.5-6.9,0.1-7.1c-0.2-0.1-0.3-0.4-0.3-0.7
	c0-1.4-3.3-5.3-4.5-5.3c-0.2,0-0.5-0.1-0.7-0.3c-1.1-1-3.1-1.2-11.8-1.2h-8.7v16.5 M-30.4,738.7c-0.2,0.1-0.5,0.7-0.7,1.4
	c-0.4,1.3-1.1,2.9-1.5,3.7c-0.1,0.3-0.3,0.8-0.3,1.1c0,0.3-0.1,0.7-0.3,0.7c-0.2,0.1-0.3,0.4-0.3,0.7c0,0.3-0.1,0.8-0.3,1.1
	s-0.4,0.8-0.6,1.2c-0.2,0.3-0.3,0.7-0.3,0.9c0,0.3-0.7,1.9-1.2,3c-0.1,0.3-0.3,0.8-0.3,1.1s-0.1,0.6-0.3,0.7
	c-0.2,0.1-0.3,0.5-0.3,0.8c0,0.4-0.1,0.8-0.2,0.9c-0.1,0.2-0.5,0.9-0.8,1.7c-0.3,0.8-0.6,1.7-0.7,2c-0.1,0.3-0.4,1-0.6,1.6
	c-0.2,0.6-0.5,1.3-0.6,1.6c-0.1,0.3-0.5,1.2-0.7,2c-0.3,0.8-0.6,1.6-0.7,1.7c-0.1,0.2-0.2,0.6-0.2,0.9s-0.1,0.7-0.3,0.9
	c-0.5,0.5-0.5,2.7,0,3c0.7,0.4,7.3,0.3,7.8-0.1c0.6-0.5,1.2-1.5,1.2-2.1c0-0.2,0.1-0.7,0.3-0.9c0.2-0.2,0.5-1.2,0.7-2
	c0.3-0.8,0.6-1.7,0.8-2.1c0.3-0.6,0.2-0.8-0.5-1.5l-0.8-0.8V756c0-7.7-0.6-7,7-7s7-0.6,7,7.2c0,5.4,0,5.9-0.6,6.4
	c-0.8,0.8-0.7,2.3,0.3,4.2c0.1,0.3,0.3,0.8,0.3,1.1s0.1,0.6,0.3,0.7c0.1,0.1,0.4,0.6,0.5,1.1c0.4,1.7,1,2,5,2c5.1,0,5.5-0.9,2.7-6.2
	c-0.1-0.3-0.3-0.8-0.3-1.1c0-0.3-0.1-0.6-0.3-0.7c-0.2-0.1-0.3-0.5-0.3-0.8c0-0.4-0.1-0.8-0.3-0.9c-0.1-0.2-0.5-1-0.8-1.9
	c-0.3-0.9-0.6-1.7-0.8-1.9c-0.1-0.2-0.2-0.5-0.2-0.8s-0.1-0.8-0.3-1c-0.4-0.8-0.8-1.8-1.6-4.1c-0.4-1.2-0.9-2.4-1-2.7
	c-0.2-0.3-0.3-0.7-0.3-0.9c0-0.2-0.1-0.7-0.3-0.9c-0.1-0.3-0.5-1.1-0.8-1.8c-0.8-2-1.1-2.7-1.3-3.3c-0.1-0.3-0.3-0.8-0.3-1.1
	s-0.1-0.6-0.3-0.7c-0.2-0.1-0.3-0.5-0.3-0.8c0-1.5-0.6-1.6-6.1-1.6C-27.9,738.5-30.3,738.6-30.4,738.7 M-3.1,739
	c-0.1,0.3-0.2,7.6-0.2,16.2c0,18.7-0.5,16.7,4.5,16.7c4.5,0,4.2,0.4,4.2-5.8c0-6.2-0.1-5.9,2.3-5.9c2,0,2.6,0.3,2.6,1.2
	c0,0.3,0.1,0.5,0.2,0.6c0.1,0.1,0.7,1.1,1.3,2.4c3.9,8,3.2,7.4,7.9,7.4c4.8,0,5.7-0.4,4.5-2c-0.3-0.4-1-1.6-1.6-2.7
	c-0.6-1-1.4-2.6-1.9-3.5c-0.5-0.9-1.1-2.1-1.4-2.7c-0.3-0.6-0.6-1.1-0.7-1.1c-0.7,0,0-1.3,1.2-2.6c2.3-2.3,3.1-4.2,3.1-7.9
	c0-6-1.9-8.7-7.4-10.6C13.7,738.3-2.8,738.3-3.1,739 M29.5,738.7c-0.5,0.5-0.2,32.3,0.3,32.8c1.3,1.2,17.3,0.1,20.2-1.3
	c0.3-0.1,0.6-0.3,0.8-0.3c2.1,0,6.3-4.8,8.1-9.2c0.6-1.4,1.1-7.6,0.6-8.1c-0.2-0.2-0.3-0.9-0.3-1.5c0-3-3.5-8.6-6.2-9.8
	c-0.4-0.2-0.8-0.5-0.8-0.6c0-0.1-0.2-0.2-0.4-0.2s-0.7-0.1-0.9-0.3c-2.9-1.5-4-1.6-12.9-1.7C33.5,738.5,29.6,738.6,29.5,738.7
	 M-93.9,745.9c2.3,0.8,3.5,3.1,2.5,4.9c-0.8,1.5-1.2,2-1.7,2c-0.2,0-0.6,0.1-0.8,0.3c-0.2,0.2-1.4,0.3-3,0.2l-2.7-0.1l-0.1-3.4
	c-0.1-2.3,0-3.6,0.3-3.9C-99,745.4-95.4,745.3-93.9,745.9 M11.6,745.9c3.4,1,3.7,5.7,0.5,7.1c-1.3,0.6-6.2,0.5-6.4-0.1
	c-0.4-1.1-0.2-6.5,0.3-6.9C6.5,745.4,9.7,745.3,11.6,745.9 M45.2,746.9c0.1,0.2,0.4,0.3,0.7,0.3s0.6,0.1,0.6,0.2
	c0,0.1,0.3,0.4,0.7,0.6c3.3,1.5,4.2,8.4,1.6,12.2c-1.9,2.8-9.4,5-10.4,3.1c-0.3-0.6-0.4-16.1-0.1-16.4
	C38.5,746.5,45,746.6,45.2,746.9"/>
<path id="path1" style="fill:#5A5A5A;" d="M-201.3,737.6c-0.6,0.1,1.1,0.2,3.8,0.2c2.9,0,4.3-0.1,3.5-0.2
	C-195.6,737.3-199.9,737.3-201.3,737.6 M-64,737.6c-0.6,0.1,1.1,0.2,3.8,0.2c2.7,0,4.3-0.1,3.6-0.2C-58,737.3-62.6,737.3-64,737.6
	 M-192.4,738.2c0.1,0.2,0.5,0.3,0.8,0.3c0.6,0,0.6,0,0.1-0.3C-192.3,737.9-192.6,737.9-192.4,738.2 M-66.4,738.2
	c-0.4,0.3-0.4,0.3,0,0.3c0.2,0,0.6-0.1,0.9-0.3c0.4-0.3,0.4-0.3,0-0.3C-65.7,737.9-66.1,738.1-66.4,738.2 M-54.9,738.2
	c0.1,0.2,0.5,0.3,0.8,0.3c0.5,0,0.6-0.1,0.2-0.3C-54.4,737.8-55.1,737.8-54.9,738.2 M-179.7,738.6c-0.3,0.3-0.3,4.3-0.3,16.5
	c0,16.1,0,16.9,1,16.9c0.1,0,0-0.2-0.2-0.5c-0.4-0.4-0.5-2.2-0.4-16.6L-179.7,738.6h4.2c3.6-0.1,4.1,0,4.4,0.4
	c0.3,0.4,0.4,0.4,0.4,0C-170.7,738.2-178.9,737.7-179.7,738.6 M-158.8,738.5c-0.4,0.2-0.5,1.3-0.6,5.9c-0.1,3.1,0,5.6,0.1,5.5
	c0.1-0.1,0.2-2.4,0.2-5.2c0-6.7-0.3-6.2,4.5-6.2c2.6,0,4,0.1,4.2,0.3c0.6,0.6,0.5,31.9-0.2,32.6c-0.5,0.6-0.5,0.6,0.1,0.1l0.7-0.6
	V755c0-14.1-0.1-16-0.5-16.4C-150.8,738.1-158,738-158.8,738.5 M-142.2,738.4c2.4,0.2,7.5,0.2,7.2,0c-0.2-0.1-2.1-0.2-4.3-0.2
	C-141.5,738.3-142.8,738.4-142.2,738.4 M-124.2,738.6c-0.2,0.2-0.3,4.1-0.4,11c-0.1,13.2-0.3,13.8-4.9,13.8c-4.5,0-4.8-0.7-5-14
	l-0.2-10.5l-0.1,10.4c-0.1,11.1,0,11.4,1.4,13.1c1.7,1.9,5.6,2,7.4,0.2c1.4-1.4,1.4-1.8,1.5-12.5c0.1-13-0.5-11.5,4.5-11.6l4.1-0.1
	l-4.1-0.1C-122.8,738.2-123.9,738.3-124.2,738.6 M-104.2,738.4c2.3,0,6,0,8.3,0s0.4-0.1-4.1-0.1
	C-104.6,738.3-106.5,738.4-104.2,738.4 M-30.7,738.6c-0.3,0.2-0.7,1-0.9,1.7s-0.5,1.6-0.6,1.9c-0.1,0.4-0.1,0.5,0.1,0.3
	c0.2-0.2,0.5-1,0.8-1.9c0.3-0.9,0.7-1.7,0.8-1.8c0.7-0.5,10.4-0.3,11,0.3c0.6,0.6,0.7,0.3,0.1-0.3C-20,738.1-29.9,738-30.7,738.6
	 M1.3,738.4c2.3,0,6,0,8.3,0s0.4-0.1-4.1-0.1C0.9,738.3-1,738.4,1.3,738.4 M29.4,738.6c-0.6,0.6-0.5,32.4,0.1,33
	c0.6,0.6,0.9,0.5,0.4-0.1c-0.4-0.5-0.5-2-0.4-16.6L29.4,738.6l7.6-0.1l7.6-0.2l-7.4-0.1C31.7,738.2,29.6,738.3,29.4,738.6
	 M-206.2,739.5c-1.4,0.9-4,4-3.7,4.4c0.1,0.1,0.5-0.4,0.9-1.1c0.8-1.4,1.9-2.4,3.7-3.5c0.7-0.4,1.2-0.8,1-0.8
	S-205.4,739-206.2,739.5 M-189.5,739.2c3.5,1.8,4.1,2.8,2.4,4.7c-0.5,0.6-1.3,1.6-1.8,2.2c-0.9,1.3-1.7,1.4-3.2,0.5
	c-0.6-0.3-1.1-0.5-1.2-0.5c-0.3,0.3,2.3,1.4,3,1.3c1.2-0.1,4.9-4.8,4.5-5.7c-0.3-0.8-3.9-3.3-4.8-3.2
	C-190.8,738.5-190.3,738.9-189.5,739.2 M-143.8,739c-0.3,0.7-0.2,21.9,0.1,22.9c0.1,0.5,0.2-4.6,0.3-11.3c0-6.7,0-12.1-0.1-12.1
	C-143.6,738.5-143.7,738.7-143.8,739 M-115.2,750.1l0.1,11.5l0.1-11.3c0-6.2,0-11.4-0.1-11.5C-115.2,738.6-115.3,743.7-115.2,750.1
	 M-108.9,738.9c-0.1,0.3-0.2,7.6-0.2,16.3c0,15.8,0.1,16.8,1,16.8c0.1,0,0.1-0.2-0.1-0.4c-0.2-0.3-0.3-5.3-0.4-16.8
	C-108.6,745.7-108.8,738.6-108.9,738.9 M-89.6,739c0.7,0.3,1.5,0.6,1.6,0.7c0.1,0.1,0.4,0.2,0.7,0.2c0.6,0-2.3-1.4-3-1.4
	C-90.7,738.5-90.3,738.8-89.6,739 M-69.3,739.5c-2,1.1-3.2,2.1-4.6,3.8c-1.2,1.5-2.6,3.8-2.1,3.5c0.2-0.1,0.6-0.7,0.9-1.4
	c0.6-1.3,3.7-4.4,4.9-5.2c0.4-0.2,1.2-0.7,1.8-1c0.6-0.3,1.1-0.6,1.1-0.7C-67.2,738.4-67.7,738.6-69.3,739.5 M-51.5,739.5
	c2.3,1.1,4.6,3.2,4.6,4.1c0,0.4-0.9,1.5-2.5,3c-1.4,1.3-2.5,2.5-2.5,2.6c0,0.1,1.2-1,2.6-2.4c3.1-3.1,3.2-3.4,1.3-5.2
	c-1.3-1.2-4.4-3.1-5.2-3.1C-53.2,738.5-52.5,739-51.5,739.5 M-3.4,739c-0.1,0.3-0.2,7.6-0.2,16.2V771l0.7,0.6l0.7,0.6l-0.5-0.6
	c-0.5-0.6-0.5-1.7-0.4-16.8c0-8.9,0.1-16.2,0-16.2C-3.2,738.5-3.3,738.7-3.4,739 M15.1,738.8c0.2,0.2,0.6,0.3,0.9,0.3
	c0.2,0,1.1,0.3,1.9,0.7c0.8,0.4,1.5,0.7,1.6,0.6c0.2-0.2-2.7-1.5-3.9-1.8C14.8,738.5,14.7,738.5,15.1,738.8 M46.5,738.8
	c0.2,0.2,0.7,0.3,1,0.3c0.5,0,0.5,0,0.1-0.3c-0.2-0.2-0.7-0.3-1-0.3C46.1,738.5,46.1,738.6,46.5,738.8 M48.5,739.3
	c0.6,0.2,1.8,0.7,2.4,1c0.3,0.1,0.7,0.3,0.9,0.3s0.4,0.1,0.4,0.2c0,0.1,0.4,0.4,0.8,0.6c1.7,0.7,3.6,3,4.9,5.5
	c0.4,0.8,0.7,1.3,0.7,1.1c0-0.5-1.4-2.9-2.4-4.2c-1.5-1.9-6.2-4.7-7.7-4.6C48.1,739.1,48.1,739.2,48.5,739.3 M-19,740.2
	c0,0.3,0.1,0.7,0.3,0.8s0.3,0.4,0.3,0.7c0,0.3,0.1,0.8,0.3,1.1c0.3,0.6,0.7,1.5,1.2,2.9c0.2,0.5,0.4,0.9,0.5,0.9
	c0.1-0.1-0.2-1-0.6-2.1c-0.4-1.1-0.9-2.6-1.2-3.3C-18.8,739.6-19,739.4-19,740.2 M-86.7,740.2c0,0.2,0.1,0.3,0.3,0.3
	c0.2,0,0.9,0.6,1.7,1.4c1.1,1.1,1.2,1.2,0.6,0.4C-85,741.1-86.7,739.7-86.7,740.2 M19.7,740.6c0,0.1,0.4,0.6,0.9,1.2
	c0.5,0.5,1.1,1.2,1.3,1.5c0.3,0.3,0.2,0.2-0.1-0.4C21.3,742,19.7,740.2,19.7,740.6 M22.5,744.6c1.4,5.7,0.7,9.7-2.5,12.8
	c-1.3,1.3-1.9,2.6-1.2,2.6c0.2,0,0.2-0.2,0.1-0.4c-0.1-0.3,0.4-1,1.3-2c3-3.2,4.4-9.8,2.6-12.8C22.4,744,22.3,744,22.5,744.6
	 M-210.3,744.5c0,0.2-0.1,0.6-0.2,0.9c-0.1,0.4-0.1,0.5,0.2,0.2c0.2-0.2,0.3-0.6,0.2-0.9C-210.2,744.4-210.2,744.3-210.3,744.5
	 M-33.5,745.6c-0.3,0.8-0.8,2.4-1.2,3.5c-0.4,1.1-0.7,2.1-0.6,2.1c0.1,0.1,0.7-1.3,0.7-1.7c0-0.2,0.1-0.5,0.3-0.9
	c0.2-0.3,0.4-0.8,0.6-1.2c0.2-0.3,0.3-0.8,0.3-1.1c0-0.3,0.1-0.7,0.3-0.8c0.2-0.2,0.3-0.6,0.2-0.9C-33,744.4-33.2,744.7-33.5,745.6
	 M-82.9,745.1c0,0.4,0.1,0.7,0.3,0.8c0.3,0.2,0.3-0.1,0-0.9C-82.9,744.5-82.9,744.5-82.9,745.1 M-199.1,745.1
	c-0.2,0.1,0.6,0.2,1.8,0.2s1.9-0.1,1.6-0.2C-196.4,744.9-198.7,744.9-199.1,745.1 M-200.8,746.4c-0.8,1.3,1.3,3.8,3.1,3.8
	c0.2,0-0.2-0.3-1-0.7c-1.9-1-2.5-2.3-1.5-3.4c0.3-0.3,0.4-0.5,0.2-0.5C-200.2,745.5-200.5,745.9-200.8,746.4 M-99.5,745.9
	c-0.2,0.3-0.3,1.6-0.3,3.9l0.1,3.4l2.7,0.1c1.5,0,2.8,0,3-0.1c0.1-0.1-1.1-0.2-2.7-0.1l-2.9,0.1v-3.5v-3.5h2.8
	c1.9,0,2.7-0.1,2.4-0.3C-95,745.3-99.1,745.4-99.5,745.9 M5.9,745.9c-0.5,0.5-0.7,5.9-0.3,6.9c0.2,0.6,5.2,0.7,6.4,0.1
	c1.1-0.5,2.1-1.7,2.1-2.4c0-0.4-0.1-0.3-0.5,0.4c-0.8,1.6-2,2.1-5.2,2l-2.6-0.1v-3.3v-3.3l2.9-0.1c3.2-0.2,2.9-0.6-0.5-0.6
	C6.9,745.5,6.3,745.6,5.9,745.9 M-210.8,748.2c0,1.3,0.1,1.8,0.1,1.1c0.1-0.7,0.1-1.7,0-2.3C-210.7,746.4-210.8,747-210.8,748.2
	 M-92.8,746.7c1,0.8,1.5,2.3,1.3,3.3c-0.1,0.5-0.1,0.7,0.1,0.6c0.4-0.3,0.4-1.8-0.1-2.6c-0.6-1-1.4-2-1.8-2
	C-93.4,746.1-93.2,746.4-92.8,746.7 M-62.8,746.5c-2.4,0.8-5.3,4.6-5.2,6.8v1.1l0.2-1.2c0.7-4.4,4.2-7,8.7-6.8c1.2,0.1,2,0,1.9-0.1
	C-57.4,746-61.6,746.1-62.8,746.5 M12.5,746.4c0.3,0.2,0.8,0.9,1.1,1.5c0.3,0.7,0.6,1,0.6,0.7c0-0.7-1.3-2.5-1.8-2.5
	C12.2,746.1,12.3,746.2,12.5,746.4 M-82.2,749.3c0,1.7,0,2.4,0.1,1.5c0.1-0.8,0.1-2.2,0-3.1C-82.2,746.9-82.2,747.6-82.2,749.3
	 M-55.8,747.3c0.6,0.4,1.5,1,2,1.4c0.6,0.5,0.8,0.5,0.5,0.2c-0.6-0.7-2.8-2.2-3.3-2.2C-56.7,746.7-56.4,746.9-55.8,747.3
	 M38.2,746.8c-0.3,0.3-0.2,15.8,0.1,16.4c1,1.9,8.5-0.3,10.4-3.1c1.8-2.7,2.2-8.7,0.5-9.7c-0.2-0.1-0.2,0-0.1,0.4
	c2.5,6.1-0.5,11.5-7,12.4c-3.9,0.5-3.6,1.3-3.6-8.2v-8.2l3.1,0.1c3.5,0.1,4.6,0.5,6.4,2.2l1.1,1.1l-0.7-1c-0.4-0.5-1-1.1-1.4-1.3
	c-0.4-0.2-0.7-0.4-0.7-0.6c0-0.1-0.3-0.2-0.6-0.2s-0.6-0.1-0.7-0.3C45,746.6,38.5,746.5,38.2,746.8 M-76.5,747.4
	c0,0.2-0.1,0.6-0.2,0.9c-0.1,0.4-0.1,0.5,0.2,0.2c0.2-0.2,0.3-0.6,0.2-0.9C-76.4,747.3-76.5,747.2-76.5,747.4 M-15.8,748.9
	c0,0.3,0.1,0.7,0.2,0.8c0.1,0.2,0.4,0.8,0.6,1.5c0.2,0.7,0.4,1.2,0.5,1.1c0.1-0.1-1-3.7-1.3-3.9C-15.7,748.3-15.8,748.6-15.8,748.9
	 M-77.1,749.3c0,0.3-0.1,0.7-0.2,1c-0.1,0.4-0.1,0.5,0.2,0.2c0.2-0.2,0.3-0.6,0.2-1C-77,749.1-77.1,749-77.1,749.3 M-31.4,749.9
	c-0.6,0.6-0.6,0.8-0.6,6.4v5.8l0.9,1c0.5,0.5,0.9,0.8,0.9,0.7s-0.3-0.6-0.7-0.9l-0.7-0.6v-5.9c0-7.5-0.6-6.9,6.6-6.9
	c7.3,0,6.7-0.6,6.7,7c0,5.7,0,5.8-0.7,6.3c-0.7,0.6-0.7,1,0.1,3.1l0.3,0.9l-0.2-0.9c-0.1-0.5-0.2-1.2-0.3-1.7s0-1,0.5-1.4
	c1-1.1,0.9-12.1-0.1-13C-19.8,748.9-30.4,748.9-31.4,749.9 M59.3,751.2c0,0.7,0.1,1.3,0.3,1.4c0.3,0.2,0.3-0.8,0-1.9
	C59.4,750.1,59.3,750.2,59.3,751.2 M-195.4,750.8c0.2,0.2,3.6,1.3,3.9,1.3c0.4,0-3.1-1.4-3.6-1.4
	C-195.4,750.7-195.5,750.8-195.4,750.8 M-92.6,751.9c-0.4,0.4-0.6,0.8-0.4,0.8c0.3,0,1.5-1.4,1.3-1.5
	C-91.8,751.2-92.1,751.5-92.6,751.9 M-77.8,753c-0.2,2.3,0.1,6.2,0.6,7.7c0.3,0.9,0.3,0.9,0.1-0.1c-0.1-0.6-0.3-3-0.4-5.4
	C-77.5,751-77.6,751-77.8,753 M-210,752.4c0,0.6,2.7,3.2,4,3.9c2,1.1,1.8,0.7-0.2-0.5c-1-0.6-2.2-1.7-2.7-2.4
	C-209.8,752.1-210,752-210,752.4 M-191.1,752.3c0,0.1,0.5,0.4,1.1,0.7c1.1,0.6,3.6,3,3.6,3.5c0,0.1,0.2,0.5,0.5,0.7
	c0.9,0.8-0.4-1.4-1.6-2.7C-188.6,753.5-191.1,751.9-191.1,752.3 M-58,752.7c-0.4,0.4-0.5,1.1-0.5,3.3c0,3.5,0.2,3.8,2.3,3.7l1.6-0.1
	l-1.7-0.1c-2-0.1-2-0.1-1.9-4l0.1-2.6h6h6l0.1,7.5l0.1,7.5l-1,0.7c-0.5,0.4-1.1,0.7-1.3,0.7c-0.2,0-0.3,0.1-0.3,0.2
	c0,0.2-0.4,0.4-2.8,1.3c-0.6,0.3-0.9,0.5-0.7,0.5c0.3,0,0.7-0.1,1-0.2c0.3-0.1,1.2-0.6,1.9-0.9c0.8-0.4,1.9-1.2,2.5-1.7l1.1-1v-7
	c0-9.1,0.7-8.3-6.5-8.3C-57,752.2-57.6,752.2-58,752.7 M-82.8,753c-0.1,0.3-0.1,0.7-0.1,0.8c0.1,0.1,0.2-0.1,0.3-0.5
	c0.1-0.3,0.1-0.7,0.1-0.8C-82.5,752.5-82.7,752.7-82.8,753 M-36.7,754.2c-0.2,0.7-0.5,1.4-0.7,1.6c-0.1,0.2-0.2,0.5-0.2,0.9
	c0,0.5,0.1,0.5,0.4-0.2c0.2-0.5,0.4-1.1,0.4-1.3c0-0.3,0.1-0.6,0.3-0.8c0.2-0.2,0.3-0.6,0.2-0.9C-36.2,753.1-36.4,753.4-36.7,754.2
	 M-29.9,757.3c0,2.4,0,3.3,0.1,2.1c0.1-1.2,0.1-3.2,0-4.4C-29.8,753.8-29.9,754.9-29.9,757.3 M-83.7,755.2l-0.5,0.9l0.6-0.7
	c0.6-0.7,0.8-1.2,0.5-1.2C-83.1,754.2-83.4,754.6-83.7,755.2 M-13.7,754.6c0,0.3,0.1,0.6,0.3,0.7c0.2,0.1,0.3,0.4,0.3,0.7
	c0,0.3,0.1,0.6,0.3,0.7c0.3,0.2-0.1-1.3-0.5-2.1C-13.7,754.1-13.7,754.1-13.7,754.6 M-85.6,757.5c-1.5,1.3-1.6,1.8-0.9,2.7
	c0.4,0.5,0.4,0.5,0.1-0.2c-0.3-0.8-0.3-0.9,1.1-2.3C-83.6,755.9-83.8,755.8-85.6,757.5 M-68.1,757c-0.1,2.7,4,7.1,6.1,6.7
	c0.6-0.1,0.6-0.1-0.1-0.2c-2.1-0.1-4.8-3-5.6-5.9C-68,756.4-68.1,756.3-68.1,757 M-12.6,757.6c0,0.3,0.1,0.7,0.2,0.8
	c0.1,0.2,0.4,0.8,0.6,1.5c0.2,0.7,0.4,1.2,0.5,1.1c0.1-0.1-1-3.7-1.3-3.9C-12.5,757.1-12.6,757.3-12.6,757.6 M59.5,757.8
	c-0.1,0.3-0.2,1-0.2,1.6v1.1l0.3-1.2C59.9,758,59.8,756.9,59.5,757.8 M-199.5,759c2.2,0.8,2.1,0.8,1.9,0.5s-2.8-1.2-3.4-1.2
	C-201.2,758.3-200.6,758.6-199.5,759 M-170.7,759.1c0,0.1,2.5,0.2,5.6,0.2h5.6l0.1,5.8c0.1,5.6,0.1,5.9,0.7,6.4
	c0.6,0.5,0.6,0.5,0.1,0c-0.4-0.5-0.5-1.4-0.6-6.5l-0.1-6l-5.7-0.1C-168.2,758.9-170.7,758.9-170.7,759.1 M-38.4,758.9
	c0,0.1-0.4,1.1-0.8,2.2c-1.3,3.5-1.6,4.6-1.5,4.7c0.1,0.1,0.3-0.4,0.5-1.1s0.5-1.4,0.6-1.5c0.1-0.2,0.4-0.9,0.6-1.6
	c0.2-0.7,0.5-1.5,0.7-1.7c0.1-0.2,0.2-0.5,0.1-0.7C-38.3,758.9-38.4,758.8-38.4,758.9 M-196.4,760.5c1,0.8,1.2,1.7,0.5,2.7
	c-0.5,0.8-0.2,0.9,0.3,0.1c0.8-1.1-0.2-3.6-1.5-3.6C-197.2,759.7-196.9,760.1-196.4,760.5 M-54.2,760.8c0.2,1.4-0.5,2-2.5,2.6
	c-1,0.3-1.2,0.4-0.6,0.4c2.3,0.1,4.8-2.9,3.2-3.9C-54.3,759.8-54.3,760.2-54.2,760.8 M-184.9,761.6c0,0.8,0.1,1.1,0.1,0.7
	c0.1-0.4,0.1-1.1,0-1.5C-184.9,760.5-184.9,760.8-184.9,761.6 M-99.7,760.7c-0.1,0.2-0.1,2.5-0.1,5.2l0.1,4.8l0.1-5l0.1-5l1.8,0.1
	l1.8,0.1l2.6,5.1c2.7,5.3,3.2,6.1,3.7,6.1c0.2,0,0.1-0.2-0.2-0.4c-0.3-0.2-1.8-2.8-3.2-5.7l-2.6-5.3l-2-0.1
	C-99,760.3-99.5,760.4-99.7,760.7 M5.6,760.8c-0.1,0.3-0.2,2.7-0.2,5.5c0,3.2-0.1,5.1-0.3,5.1s-0.3,0.1-0.3,0.3c0,0.2,0.1,0.2,0.4,0
	c0.4-0.3,0.4-1.3,0.4-5.2c0-2.7,0.1-5.1,0.2-5.3c0.3-0.8,3.4-0.6,4,0.2c0.3,0.5,0.5,0.5,0.5,0.2C10.4,760.3,6.1,759.7,5.6,760.8
	 M19.1,760.4c0,0.1,0.2,0.6,0.5,1.2c0.3,0.5,0.7,1.3,0.9,1.6c0.2,0.4,0.4,0.6,0.5,0.5c0.1-0.1-0.1-0.6-0.5-1.3
	C19.8,761.1,19.1,760.1,19.1,760.4 M58.8,761.1c-1.2,3.6-6,8.8-8.1,8.8c-0.2,0-0.5,0.1-0.6,0.3c-0.8,1.2,3.9-1.6,5.6-3.5
	c1.8-1.9,3.9-5.7,3.4-6.1C59,760.6,58.9,760.8,58.8,761.1 M-86.1,761c0,0.1,0.7,1.3,1.5,2.8c4,7.1,4.1,7.3,3.2,7.8
	c-0.4,0.2-0.4,0.3-0.1,0.3c0.9,0,1.1-1,0.5-2.2C-83.4,765.1-86.1,760.5-86.1,761 M-205.8,761.9c1.1,1,3,1.9,3.6,1.9
	c0.3,0,0-0.2-0.7-0.5c-0.6-0.3-1.6-0.7-2-1.1C-206.3,761.2-206.8,761-205.8,761.9 M-210.1,763.8c-2.9,3.4-2.9,3.6-1.4,5
	c0.7,0.6,1.3,1.1,1.4,1c0.1-0.1-0.1-0.3-0.4-0.5c-2.1-1.2-2.1-2.1,0-4.7c1.9-2.3,2.5-3.1,2.3-3.1
	C-208.1,761.5-209,762.5-210.1,763.8 M-27.2,761.7c1.3,0.1,3.4,0.1,4.7,0c1.2-0.1,0.1-0.1-2.4-0.1
	C-27.5,761.6-28.5,761.6-27.2,761.7 M-76.8,762c0.1,0.8,0.5,1.4,0.5,0.8c0-0.4-0.1-0.7-0.3-0.8C-76.7,761.8-76.8,761.8-76.8,762
	 M-115.6,762.6c-0.1,0.3-0.1,0.7-0.1,0.8c0.1,0.1,0.2-0.1,0.3-0.5c0.1-0.3,0.1-0.7,0.1-0.8C-115.4,762.1-115.5,762.3-115.6,762.6
	 M11.6,764.5c0.7,1.4,1.3,2.4,1.3,2.3c0.2-0.2-2.1-4.8-2.3-4.8C10.5,762.1,11,763.2,11.6,764.5 M-10.5,763.1c0,0.4,0.1,0.7,0.3,0.8
	c0.3,0.2,0.3-0.1,0-0.9C-10.5,762.5-10.5,762.5-10.5,763.1 M-143.4,763.4c0,2.4,7.4,9.6,8.6,8.4c0.1-0.1-0.8-0.6-1.9-1.1
	c-2.8-1.3-6.2-5-6.2-6.9c0-0.2-0.1-0.5-0.3-0.6C-143.3,763.3-143.4,763.3-143.4,763.4 M-75.6,764.7c1.6,2.9,7.8,7.6,9.3,7.1
	c0.2-0.1-0.2-0.3-0.8-0.5c-3.4-1.1-6.4-3.6-8.2-6.6c-0.4-0.7-0.8-1.2-0.9-1.2C-76.2,763.5-76,764.1-75.6,764.7 M-201.6,764.2
	c0,0.1,1.1,0.2,2.5,0.2s2.5-0.1,2.5-0.2c0-0.1-1.1-0.2-2.5-0.2C-200.5,763.9-201.6,764-201.6,764.2 M-185.8,765.4
	c-0.9,2.2-2.9,4.2-5.5,5.4c-1.2,0.5-2,1-1.9,1.1c1.9,0.6,8.7-6,8.1-7.8C-185.1,763.9-185.5,764.5-185.8,765.4 M-60.8,764.1
	c0.6,0.4,2.2,0.4,2.5,0c0.1-0.2-0.4-0.3-1.4-0.3C-60.8,763.8-61.1,763.9-60.8,764.1 M-116.7,765.5c-1,1.9-3.2,4.2-4.7,5
	c-0.7,0.4-1.3,0.7-1.2,0.8c0.3,0.3,2.9-1.5,4.1-2.7s3-4.1,2.7-4.3C-115.9,764.1-116.3,764.7-116.7,765.5 M21.2,764.3
	c0,0.1,0.3,0.5,0.6,0.9l0.6,0.7l-0.5-0.9C21.5,764.1,21.2,763.8,21.2,764.3 M-9.9,764.8c0,0.3,0.1,0.7,0.3,1c0.1,0.3,0.4,1,0.6,1.5
	c0.2,0.5,0.4,0.9,0.5,0.7c0.1-0.2-0.2-1.1-0.6-2C-9.6,765-9.9,764.5-9.9,764.8 M-31.8,767c-0.2,0.7-0.5,1.4-0.6,1.5
	c-0.1,0.2-0.2,0.5-0.2,0.8c0,0.6-0.6,1.7-1.2,2.2c-0.3,0.2-0.3,0.4-0.1,0.4c0.7,0,3.1-5.5,2.6-6C-31.4,765.8-31.6,766.4-31.8,767
	 M22.3,766.2c0,0.3,2,3.8,2.4,4.2c0.2,0.2-0.2-0.6-0.8-1.7C22.9,766.7,22.3,765.8,22.3,766.2 M-18.6,767.2c0.1,0.8,0.5,1.4,0.5,0.8
	c0-0.4-0.1-0.7-0.3-0.8C-18.5,767-18.7,767.1-18.6,767.2 M-41.6,767.5c0,0.2-0.1,0.6-0.2,0.9c-0.1,0.4-0.1,0.5,0.2,0.2
	c0.2-0.2,0.3-0.6,0.2-0.9C-41.5,767.4-41.6,767.3-41.6,767.5 M13.3,767.9c0.5,1.3,1.6,3.3,2.1,3.6c0.7,0.6,1,0.4,0.3-0.1
	c-0.3-0.3-1-1.3-1.5-2.3C13.3,767.3,12.8,766.7,13.3,767.9 M-18,769.2c0.1,0.3,0.3,0.8,0.4,1.1c0.2,0.7,0.9,1.6,1.4,1.6
	c0.2,0,0-0.2-0.3-0.5s-0.7-0.9-0.8-1.4s-0.3-1-0.5-1.1C-18.1,768.7-18.1,768.8-18,769.2 M-42.4,769.9c-0.2,0.9,0.2,2.1,0.8,2
	c0.2,0,0.2-0.1-0.1-0.3c-0.3-0.2-0.4-0.7-0.4-1.4C-42,768.8-42.1,768.7-42.4,769.9 M-208.1,770.8c1,0.5,2.1,0.9,2.5,1l0.7,0.2
	l-0.7-0.3c-0.4-0.2-1.4-0.6-2.2-1c-0.8-0.4-1.6-0.7-1.7-0.7C-209.7,769.9-209.1,770.3-208.1,770.8 M-7.9,770.3
	c0,0.3-0.3,0.8-0.5,1.1c-0.3,0.3-0.3,0.5-0.2,0.5c0.5,0,1-1.1,0.8-1.7C-7.8,769.8-7.8,769.9-7.9,770.3 M-171.4,771.2
	c-0.3,0.4-0.4,0.7-0.3,0.7c0.4,0,1-0.8,0.9-1.1C-170.8,770.7-171.1,770.9-171.4,771.2 M48.2,770.8c-0.3,0.2-1.6,0.4-2.9,0.5
	c-2.6,0.2-4.1,0.7-2.1,0.7c1.7,0,7.7-1.4,6.1-1.4C48.9,770.5,48.4,770.6,48.2,770.8 M-100.5,771.4c-0.3,0.3-0.4,0.6-0.2,0.6
	c0.4,0,1.1-0.8,0.9-1C-99.9,770.8-100.2,771-100.5,771.4 M-203.6,772.2c1.1,0.3,2.1,0.3,1.9,0c-0.1-0.2-0.7-0.3-1.4-0.3
	C-204.1,772-204.2,772-203.6,772.2 M-196,772.2c-0.6,0.4,0.4,0.4,1.3,0c0.5-0.2,0.5-0.3-0.1-0.3C-195.3,772-195.8,772.1-196,772.2
	 M-133.7,772.2c0.9,0.4,1.9,0.4,1.3,0c-0.2-0.2-0.8-0.3-1.2-0.3C-134.2,772-134.2,772-133.7,772.2 M-126.5,772.2
	c-0.6,0.4,0.4,0.4,1.3,0c0.5-0.2,0.5-0.3-0.1-0.3C-125.8,772-126.3,772.1-126.5,772.2 M-64.8,772.2c1.4,0.3,2.1,0.3,1.6,0
	c-0.2-0.2-0.9-0.3-1.5-0.3h-1L-64.8,772.2 M-57.3,772.2c-0.5,0.3,0.2,0.3,1.6,0l0.9-0.2h-1C-56.4,772-57.1,772.1-57.3,772.2
	 M-130,772.7c0.4,0.1,1.1,0.1,1.5,0c0.4-0.1,0-0.1-0.8-0.1S-130.4,772.7-130,772.7 M-172.5,786.8c-0.1,1.1,0,1.8,0.1,1.7
	c0.1-0.1,0.2-1,0.1-1.9l-0.1-1.7L-172.5,786.8 M-30.4,793.6v8.7h1.7h1.7l-1.7-0.1l-1.7-0.1V793.6v-8.7V793.6 M-184.9,793.8v8.5h6.3
	h6.3l-6.2-0.1l-6.2-0.1L-184.9,793.8v-8.5V793.8 M-128.8,786.9c0,1,0.1,1.3,0.1,0.8c0.1-0.5,0.1-1.3,0-1.7
	C-128.7,785.5-128.8,786-128.8,786.9 M42.8,794c0,4.6,0,6.4,0.1,4.1c0-2.3,0-6,0-8.3C42.9,787.6,42.8,789.5,42.8,794 M-66.1,787.4
	c-0.1,0.8,0,1.3,0.1,1.1c0.1-0.1,0.2-0.7,0.1-1.4L-66,786L-66.1,787.4 M18.7,787.1l-0.9,0.9L18.7,787.1c1-0.7,1.2-0.9,0.9-0.9
	C19.6,786.2,19.2,786.6,18.7,787.1 M31.1,789c-0.7,0.7-1.2,1.3-1.1,1.3s0.7-0.6,1.4-1.3c0.7-0.7,1.2-1.3,1.1-1.3
	C32.4,787.6,31.8,788.2,31.1,789 M-207.6,790.1c0,0.6,0.1,0.9,0.1,0.5c0.1-0.4,0.1-0.9,0-1.2C-207.6,789.1-207.6,789.5-207.6,790.1
	 M-118.6,793.1c1.2,0.1,3.2,0.1,4.4,0c1.2-0.1,0.1-0.1-2.3-0.1C-118.9,793-119.9,793-118.6,793.1 M33.1,796.6
	c-0.1,2.1,0,3.7,0.1,3.6c0.1-0.1,0.2-1.9,0.1-3.8l-0.1-3.6L33.1,796.6 M-180.1,795.4c-0.1,0.1,0.8,0.2,1.9,0.1
	c3.7-0.1,4.2-0.3,1.2-0.3C-178.7,795.2-180.1,795.3-180.1,795.4 M49.3,795.4c0.8,0.1,2.2,0.1,2.9,0c0.8-0.1,0.1-0.1-1.5-0.1
	C49.1,795.3,48.5,795.4,49.3,795.4 M-0.6,795.7c0.4,0.1,1.2,0.1,1.6,0c0.4-0.1,0.1-0.1-0.8-0.1C-0.6,795.6-1,795.6-0.6,795.7
	 M-134.3,796c0.8,0.1,1.9,0.1,2.6,0c0.7-0.1,0-0.1-1.4-0.1S-135.1,795.9-134.3,796 M-89.3,797.2c0,0.6,0.1,0.8,0.1,0.5
	c0.1-0.3,0.1-0.7,0-1C-89.2,796.5-89.3,796.7-89.3,797.2 M-157.7,798.5c0.1,0.1,1.9,0.2,3.8,0.1l3.6-0.1l-3.8-0.1
	C-156.2,798.3-157.8,798.4-157.7,798.5 M-178.2,798.6c1.1,0.1,2.9,0.1,4.1,0c1.2-0.1,0.3-0.1-1.9-0.1
	C-178.4,798.5-179.3,798.6-178.2,798.6 M49.7,798.6c1.1,0.1,2.9,0.1,4.1,0c1.2-0.1,0.3-0.1-2-0.1C49.6,798.5,48.7,798.6,49.7,798.6
	 M-149.7,800.4c0,1,0.1,1.5,0.1,0.9c0.1-0.5,0.1-1.4,0-1.9C-149.7,799-149.7,799.4-149.7,800.4 M-1.1,798.9c0.8,0.1,2,0.1,2.8,0
	c0.8-0.1,0.1-0.1-1.4-0.1C-1.3,798.8-1.9,798.9-1.1,798.9 M-159,802.4c1.7,0.1,4.5,0.1,6.1,0c1.6-0.1,0.2-0.1-3.1-0.1
	C-159.4,802.3-160.8,802.4-159,802.4 M-139.8,802.4c0.6,0.1,1.6,0.1,2.2,0c0.6-0.1,0.1-0.1-1.1-0.1
	C-139.9,802.3-140.4,802.3-139.8,802.4 M-74.4,802.4c0.6,0.1,1.6,0.1,2.2,0c0.6-0.1,0.1-0.1-1.1-0.1S-75,802.3-74.4,802.4
	 M-20.2,802.4c0.7,0.1,1.7,0.1,2.3,0c0.6-0.1,0-0.1-1.2-0.1C-20.4,802.3-20.9,802.3-20.2,802.4 M-7.3,802.4c0.6,0.1,1.6,0.1,2.2,0
	c0.6-0.1,0.1-0.1-1.1-0.1C-7.4,802.3-7.9,802.3-7.3,802.4 M5.5,802.4c0.6,0.1,1.6,0.1,2.2,0c0.6-0.1,0.1-0.1-1.1-0.1
	C5.4,802.3,4.9,802.3,5.5,802.4 M46.2,802.4c1.7,0.1,4.6,0.1,6.4,0c1.8-0.1,0.4-0.1-3.1-0.1C46,802.3,44.5,802.4,46.2,802.4
	 M-202.2,803c0.4,0.1,0.9,0.1,1.3,0c0.4-0.1,0.1-0.1-0.7-0.1C-202.3,802.8-202.6,802.9-202.2,803 M-97.1,803c0.4,0.1,1.1,0.1,1.5,0
	c0.4-0.1,0-0.1-0.8-0.1C-97.2,802.9-97.5,802.9-97.1,803 M-49.9,803c0.4,0.1,0.9,0.1,1.3,0c0.4-0.1,0.1-0.1-0.7-0.1
	S-50.2,802.9-49.9,803 M24.7,803c0.4,0.1,1.2,0.1,1.6,0c0.4-0.1,0.1-0.1-0.8-0.1S24.3,802.9,24.7,803"/>
<path id="path2" style="fill:#979797;" d="M-202.5,737.5c-4.2,1.1-8.5,5.3-8.3,8.1c0,0.3,0.2,0,0.5-0.8c1.8-5.1,5.7-7.3,12.7-7.4
	c2.3,0,4-0.1,3.8-0.2C-194.4,736.9-201,737.1-202.5,737.5 M-64.2,737.3c-0.2,0.1,1.6,0.2,4,0.2s4.2-0.1,4-0.2c-0.2-0.1-2-0.2-4-0.2
	S-64,737.2-64.2,737.3 M-191.5,738.2c4.4,1.5,6.4,3.3,5.4,4.9c-2.3,3.6-4,4.9-5.6,4.2c-0.6-0.3-0.6-0.3,0.1,0.3c1.2,1,2.2,0.5,4.1-2
	c0.4-0.5,1.1-1.4,1.5-1.9c1-1.2,1-1.9-0.1-2.9c-0.8-0.7-1.6-1.2-4.9-2.8c-0.3-0.1-0.8-0.2-1.2-0.2
	C-192.7,737.7-192.4,737.9-191.5,738.2 M-179.5,738.1c-1.1,0.7-1.1,0.3-1.1,17.1c0,18.9-0.6,17,5.2,17c5.3,0,5,0.5,5-6.9
	c0-3.7,0.1-5.9,0.3-6c0.2-0.1,0.1-0.1-0.1-0.1c-0.3,0.1-0.4,1.5-0.4,6c-0.1,3.8-0.2,6.1-0.4,6.3c-0.4,0.5-8.1,0.6-8.6,0
	c-0.5-0.5-0.5-32.5,0-33c0.4-0.4,8-0.5,8.6-0.1c0.3,0.2,0.4,1.8,0.4,5.9l0.1,5.7h5.5h5.5l0.1-5.6c0.2-6.7-0.2-6.2,4.9-6.2
	c5.3,0,4.7-2.1,4.7,16.8c0,19,0.6,16.9-4.8,16.9c-5.1,0-4.7,0.5-4.7-6.8c0-3.1-0.1-5.8-0.2-5.8c-0.5-0.3-0.1,11.8,0.4,12.4
	c0.9,1,8.3,0.8,9.3-0.3l0.7-0.8V755v-15.6l-0.9-0.9l-0.9-0.9h-3.5c-3.1,0-3.6,0.1-4.3,0.6l-0.8,0.6v5.5v5.5h-5.6h-5.4v-5.6v-5.6
	l-0.7-0.5C-172.2,737.4-178.4,737.4-179.5,738.1 M-143.5,738.2l-0.8,0.6l0.1,11.7c0.1,12.1,0.1,12.6,1.4,15.2
	c1.8,3.7,7.2,7.2,11,7.1h1.3l-1.6-0.2c-5.8-0.8-10.2-4.6-11.5-9.9c-0.7-2.8-0.6-23.3,0-23.9c0.4-0.4,1.2-0.5,4.3-0.5
	c5.3,0,4.8-1.2,4.8,11.1c0,10,0,10.3,0.7,11.5c2,4,8.8,3.1,8.9-1.1c0-0.6-0.1-0.5-0.4,0.4c-0.9,2.5-2.6,3.5-5.4,3
	c-3.1-0.5-3.5-1.9-3.5-14.2c0-12.2,0.4-11.2-4.9-11.2C-142.4,737.6-142.8,737.7-143.5,738.2 M-124,738.2l-0.8,0.6l0.1,10.1l0.1,10.1
	l0.1-10c0.1-6.8,0.2-10.1,0.4-10.4c0.4-0.5,8.1-0.6,8.8,0c0.9,0.6,0.6,23.3-0.3,25.5c-2,4.9-6,7.9-11.6,8.6
	c-0.6,0.1-0.5,0.1,0.4,0.2c5.3,0.2,10.8-4.9,12.1-11.2c0.6-2.6,0.6-22.1,0-22.8C-115.7,737.4-122.5,737-124,738.2 M-107.9,737.8
	c-1.5,0.6-1.5-0.3-1.5,17.2c0,19.3-0.6,17.2,5,17.2c4.1,0,4.9-0.2,4.9-1.5c0-0.2-0.2-0.1-0.4,0.3c-0.5,1-8.1,1.3-8.8,0.4
	c-0.7-0.9-0.6-32.1,0.1-32.8c0.4-0.4,1.4-0.5,9.5-0.4l9,0.1l1.7,0.8c3.2,1.5,4.4,2.7,5.6,5.7c0.4,0.9,0.7,1.4,0.7,1.2
	c0-3-4.2-6.9-8.5-7.8C-92.2,737.8-107.2,737.5-107.9,737.8 M-66.6,737.9c-0.2,0.1-1,0.5-1.6,0.7c-0.6,0.3-1.5,0.7-1.9,1.1
	c-0.5,0.4-0.3,0.3,0.9-0.2c0.9-0.4,2.2-1,3.1-1.3c1-0.3,1.2-0.5,0.7-0.5S-66.4,737.8-66.6,737.9 M-54.9,737.9
	c2.9,0.7,5.4,2.1,7.2,3.8c1.6,1.6,1.5,2.1-1.4,5c-2.9,2.9-3.4,3-5,1.7c-2.1-1.7-5.8-2.6-7.8-1.9c-0.4,0.2,0.2,0.3,2,0.3
	c2.7,0,5.3,1,6.2,2.4c1,1.5,7.4-3.4,7.4-5.7c0-1.5-4.9-5.4-6.8-5.4c-0.2,0-0.5-0.1-0.6-0.3c-0.1-0.2-0.6-0.3-1.1-0.3h-0.9
	L-54.9,737.9 M-30.5,738.2c-0.7,0.4-1.1,1-1.5,2.4c-0.4,1-0.8,2.1-0.9,2.4c-0.2,0.3-0.3,0.7-0.3,1c0,0.6,0.5-0.4,1.4-3.1
	s0.8-2.6,6.7-2.6c5.3,0,5.5,0,6.1,1c0.3,0.5,0.3,0.5,0.3,0.1C-18.6,737.6-28.1,736.7-30.5,738.2 M-3.3,738.5l-0.9,0.9v15.4
	c0,19.2-0.6,17.5,5.5,17.5c4.9,0,4.7,0.4,4.7-6.1v-5l1.8,0.1l1.8,0.1l1.7,3.4c0.9,1.9,1.8,3.4,1.8,3.3c0.1-0.1-0.7-1.7-1.7-3.7
	l-1.8-3.6l-1.7-0.1c-2.2-0.1-2.2-0.2-2.2,5.6c0,3.5-0.1,5.1-0.4,5.3c-0.6,0.6-7.9,0.5-8.5-0.2c-0.7-0.8-0.7-32,0-32.7
	c1.2-1.2,18-0.5,20.9,0.8c6.6,3,7.8,12.4,2.4,18.1c-1.6,1.7-1.6,2.1-0.2,3.9l0.6,0.7l-0.6-1c-1-1.9-1-1.9,0.5-3.5
	c4.5-4.7,4.5-12.6-0.1-16.8c-3-2.7-4.6-3-14.9-3.2l-7.9-0.1L-3.3,738.5 M29.4,738.1l-0.7,0.5v16.3c0,15.5,0,16.4,0.5,16.8
	c1.3,1.2,16.9,0.6,20.5-0.8c1.8-0.7,1.6-0.8-0.3-0.3c-3.5,1.1-5.1,1.3-12.4,1.3c-5.9,0-7.3-0.1-7.6-0.4c-0.6-0.6-0.6-32.5,0-33
	s17-0.2,18.5,0.3c0.6,0.2,1.7,0.6,2.6,1c3.2,1.2,5.8,3.5,7.3,6.5c1.8,3.5,2.1,5.1,1.9,10c-0.1,2.1,0,3.7,0.1,3.5
	c0.4-0.6,0.3-7.9-0.2-9.7c-1.8-7-6.1-10.4-15.1-12C41.6,737.4,30.2,737.6,29.4,738.1 M-72.8,741.8c-1.6,1.5-3.7,4.5-3.7,5.2
	c0,0.2,0.5-0.5,1.1-1.5s1.9-2.6,2.8-3.5C-70.5,739.8-70.7,739.7-72.8,741.8 M-18,741.9c0.2,0.6,1.8,4.8,2.2,5.9
	c0.2,0.4,0.3,0.6,0.3,0.4c0-0.3-0.1-0.7-0.9-2.6c-0.1-0.3-0.5-1.4-0.9-2.4C-17.8,741.6-18.4,740.6-18,741.9 M-199.1,745.4
	c-1.4,0.4-1.9,1.5-1.3,2.7c0.3,0.6,1.4,1.3,1.4,0.9c0-0.1-0.3-0.3-0.6-0.4c-0.9-0.2-1.1-1.6-0.3-2.3c0.9-0.9,4-0.8,5.8,0.1
	c0.7,0.3,1.3,0.6,1.4,0.5C-192,746.2-197.6,745-199.1,745.4 M-96.6,746.3c2.9,0.1,3.1,0.1,3.9,0.9c0.4,0.4,0.8,0.6,0.8,0.4
	c0-1-1.7-1.5-4.7-1.5l-3,0.1L-96.6,746.3 M-34.3,746.9c-0.2,0.5-0.5,1.3-0.7,1.8c-0.3,1-0.5,1.5-1.1,2.9c-0.2,0.4-0.3,1-0.3,1.2
	c0,0.3,0.5-0.8,2.1-5c0.3-0.8,0.5-1.6,0.4-1.7C-33.9,746.1-34.1,746.4-34.3,746.9 M5.9,746.4c-0.1,0.2-0.1,1.7-0.1,3.4l0.1,3
	l2.6,0.1c4.2,0.1,6.2-1.5,5.4-4.4c-0.2-0.7-0.4-1.1-0.5-0.9s0,0.6,0.2,0.9c1,1.9-0.8,3.8-3.9,4c-3.7,0.3-3.6,0.3-3.6-3.3v-3h3
	c2.3,0,3.1,0.1,3.4,0.4c0.2,0.2,0.5,0.4,0.7,0.4s0-0.3-0.4-0.6C11.9,745.9,6.1,745.8,5.9,746.4 M-211.1,748.2c0,1.1,0.1,1.5,0.1,0.9
	c0.1-0.6,0.1-1.5,0-2C-211,746.6-211.1,747.1-211.1,748.2 M-82,749.4c0,2.4,0,2.5,0.3,1.2c0.2-0.9,0.2-1.9,0-2.6
	C-82,746.9-82,747.1-82,749.4 M-64.2,747.5c-1.7,1-3.6,4.2-3.5,5.8c0,0.6,0.1,0.4,0.4-0.5c0.7-2.4,2.7-5.2,3.8-5.2
	c0.2,0,0.4-0.1,0.5-0.3C-62.7,746.8-63.2,746.9-64.2,747.5 M38.7,755c-0.1,9.5-0.3,8.7,2.9,8.3l2.1-0.3h-2.4h-2.4l-0.1-8.1l-0.1-8.1
	V755 M43.7,747.2c0.3,0.1,0.8,0.3,1.2,0.3h0.6l-0.6-0.3c-0.3-0.1-0.8-0.2-1.2-0.2h-0.6L43.7,747.2 M-77,748
	c-0.1,0.3-0.3,0.9-0.4,1.2c-0.1,0.4-0.3,1-0.2,1.3c0,0.4,0.3-0.1,0.6-1.1c0.3-1,0.5-1.8,0.4-1.9C-76.8,747.5-76.9,747.7-77,748
	 M46,747.9c2.4,1.5,3.4,3.2,3.6,6.1c0.3,4.1-1.4,7.3-4.6,8.4c-0.7,0.3-1,0.5-0.7,0.5c4.7,0.2,7.5-9.5,4-13.5
	c-0.6-0.7-2.3-1.9-2.6-1.9C45.6,747.5,45.7,747.7,46,747.9 M-91.9,749.4c0,2.6-2.1,3.7-6.4,3.3c-0.6-0.1-1.2,0-1.2,0.1
	c0,0.6,5.7,0.1,6.6-0.6c1.1-0.8,1.8-2.7,1.3-3.7C-91.9,748-91.9,748.1-91.9,749.4 M-198.4,749.6c0.2,0.2,1.2,0.5,2,0.8
	c7.5,2.2,10.4,4.6,11.4,9.1l0.2,1v-0.9c0.1-2.3-2.6-5.9-5.6-7.3C-193,750.9-199.7,748.7-198.4,749.6 M-31.3,750.1
	c-0.7,0.8-0.7,12,0,12.6c1,0.8,1.4,0.9,0.6,0.1l-0.8-0.8l0.1-5.8l0.1-5.8l6.1-0.1c4.7-0.1,6.1,0,6.3,0.3c0.1,0.2,0.2,2.9,0.2,5.9
	c0,5.7-0.1,6.2-1.2,6.6c-0.4,0.1,0.2,2.7,0.7,3.3c0.2,0.2,0.2,0,0.1-0.4c-0.6-2.3-0.6-2.5,0-3c1-0.8,1.1-11.7,0.1-12.7
	C-19.8,749.3-30.5,749.2-31.3,750.1 M-14.9,750.4c0,0.2,0.1,0.7,0.3,1.1c0.4,1,0.7,1.7,1.1,2.9c0.2,0.5,0.4,0.9,0.5,0.8
	c0.1-0.1-1.6-4.8-1.8-5.1C-14.8,750.1-14.9,750.2-14.9,750.4 M-210.8,750.8c-0.1,2.3,3.6,5.7,8.3,7.5c0.3,0.1,0.9,0.4,1.4,0.6
	c0.4,0.2,1,0.3,1.3,0.3s-0.5-0.4-1.8-0.9c-5.4-2-7.8-4-9-7.5C-210.8,750.4-210.8,750.4-210.8,750.8 M-78.1,752.6
	c-0.2,1.7-0.2,3.7,0.1,5.2c0.1,0.8,0.2-0.1,0.2-2.7C-77.8,750.9-77.8,750.7-78.1,752.6 M-30.2,751.7c-0.4,1,0,9.9,0.5,10
	c0.3,0.1,0.4,0.1,0-0.2c-0.3-0.2-0.4-1.3-0.3-5.1l0.1-4.8h4.9h4.9l-0.1,5.1c0,2.8,0,5,0.1,4.8c0.1-0.1,0.2-2.4,0.1-5.1l-0.1-4.9
	l-5-0.1C-28.9,751.3-30.1,751.4-30.2,751.7 M-58.3,752.4c-0.4,0.4-0.5,1.2-0.5,3.6c0,3.8,0.1,4,2.5,4.1l1.7,0.1v1
	c0,0.9-0.1,1.1-1.3,1.7c-0.7,0.4-1,0.6-0.6,0.5c3.1-0.8,3.3-3.6,0.3-3.6c-2.2,0-2.3-0.2-2.3-3.9c0-3.9-0.3-3.7,6.6-3.7
	c7.1,0,6.5-0.8,6.5,8.2v6.9l-0.9,0.9c-0.5,0.5-1.3,1.1-1.7,1.4c-0.4,0.3-0.6,0.5-0.4,0.5s0.9-0.5,1.7-1.1l1.5-1.1l0.1-7.3
	c0.1-6.6,0-7.4-0.4-8l-0.5-0.7h-5.8C-57.3,751.9-57.9,751.9-58.3,752.4 M-82.3,752.5c-0.1,1.1-1.4,3.3-2.9,4.9
	c-0.9,1-1.5,1.9-1.4,2.1s1.3,2.4,2.7,4.9c4.6,8.1,4.7,7.5-1.5,7.5c-5.2,0-4.4,0.7-7.8-6.1l-2.6-5.1l-1.8-0.1c-1.1-0.1-1.8,0-1.8,0.2
	s0.7,0.3,1.8,0.3h1.8l2.4,5c3.2,6.6,2.6,6.1,8,6.1c6.3,0,6.3,0,3.5-4.8c-1.5-2.7-2.4-4.4-3-5.4c-0.3-0.6-0.6-1.1-0.7-1.2
	c-1.1-1-0.9-1.6,0.6-3.2c0.9-0.9,1.7-1.9,1.9-2.3c0.2-0.4,0.5-1.1,0.7-1.5C-82.2,753.4-82.1,752.8-82.3,752.5
	C-82.3,752.1-82.3,752.1-82.3,752.5 M-36.9,753.9c-0.5,1.3-0.7,2.1-0.5,1.9c0.3-0.3,1-2.3,0.8-2.5
	C-36.6,753.3-36.8,753.6-36.9,753.9 M-68,755.2c0,0.6,0.1,0.9,0.1,0.5c0.1-0.4,0.1-0.9,0-1.2C-68,754.3-68,754.6-68,755.2
	 M-12.8,756c0,0.2,0.1,0.6,0.3,0.9c0.3,0.4,0.3,0.4,0.3,0c0-0.2-0.1-0.6-0.3-0.9C-12.8,755.6-12.8,755.6-12.8,756 M-38.4,758
	c-0.4,1-0.6,1.8-0.5,1.9c0.1,0.1,0.3-0.3,0.5-0.8s0.5-1.2,0.7-1.6c0.2-0.3,0.2-0.8,0.2-0.9C-37.7,756.4-38,757-38.4,758
	 M-67.7,757.4c0.4,2.6,3.5,6.2,5.4,6.1c0.3,0,0.1-0.2-0.3-0.3c-2.4-1.1-3.7-2.5-4.7-5.3C-67.7,756.7-67.8,756.6-67.7,757.4
	 M-12.1,757.8c0.1,0.3,0.4,1.2,0.6,1.9c0.7,2.1,1.3,3.2,1.3,2.5c0-0.3-0.1-0.7-0.2-0.9c-0.1-0.2-0.5-1-0.8-1.9
	c-0.3-0.9-0.6-1.7-0.8-1.9C-12.3,757.4-12.3,757.4-12.1,757.8 M-199.2,759.3c0,0.1,0.7,0.4,1.5,0.8c3.6,1.6,2.1,4-2.3,3.6
	c-1.2-0.1-1.7-0.1-1.3,0.1c3.4,1.5,7.7-1.2,5.2-3.2C-197.3,759.8-199.2,758.9-199.2,759.3 M-77.7,760.1c0,0.4,0.1,0.9,0.3,1
	c0.3,0.2,0.3-0.4,0-1.2C-77.6,759.4-77.7,759.4-77.7,760.1 M-39.5,760.9c-0.1,0.3-0.1,0.7-0.1,0.8s0.2-0.1,0.3-0.5
	c0.1-0.3,0.1-0.7,0.1-0.8S-39.3,760.6-39.5,760.9 M59,761.5c-0.9,2.9-3.6,6.1-6.2,7.7c-0.8,0.4-1.3,0.9-1.3,1c1.1,1.1,8.4-7.4,8-9.4
	C59.4,760.4,59.2,760.7,59,761.5 M-184.6,761.6c0,0.6,0.1,0.9,0.1,0.5c0.1-0.4,0.1-0.9,0-1.2C-184.6,760.7-184.6,761-184.6,761.6
	 M-208.4,761.3c-0.2,0.2-0.7,0.8-1.2,1.4c-3.4,4-3.4,4.2-3.2,5.1c0.3,1.1,3.9,3.4,6.6,4.2c0.7,0.2,1.7,0.5,2.2,0.6
	c1.2,0.4,8.8,0.3,10-0.1c3.4-1.1,5.2-2.1,6.9-4c1.3-1.4,2.4-3.7,2.4-4.8v-0.9l-0.2,1c-1.6,8-14.6,11.5-24.1,6.5
	c-4.2-2.2-4.2-2.7-0.8-6.7c2.4-2.8,2.9-3,4.6-1.7c1.1,0.8,2.9,1.7,3.1,1.4c0.1-0.1,0-0.1-0.1-0.1c-0.2,0-1.1-0.5-2.1-1.2
	C-206.3,760.9-207.8,760.6-208.4,761.3 M-77.1,762c0,0.4,0.1,0.7,0.3,0.8c0.3,0.2,0.3-0.1,0-0.9C-77.1,761.4-77.1,761.4-77.1,762
	 M-40.1,762.7c-0.1,0.4-0.4,1.2-0.6,1.9c-0.2,0.6-0.5,1.3-0.6,1.4c-0.1,0.1-0.2,0.5-0.2,0.9c0,0.7,0.3,0.2,1.3-2.7
	C-39.7,762.4-39.5,761.1-40.1,762.7 M20.6,762.4c0,0.2,1.7,3.4,2,3.9c3.4,4.7,3.1,5.5-2.3,5.6c-5.1,0.1-5,0.1-6.1-2
	c-0.4-0.8-0.8-1.3-0.8-1.3c-0.2,0.2,1,2.5,1.6,3.2c0.5,0.5,8.6,0.8,9.8,0.3c1-0.4,0.6-1.9-1.4-5c-0.4-0.6-0.9-1.5-1.1-2.1
	c-0.2-0.5-0.5-0.9-0.6-0.9s-0.2-0.2-0.2-0.4C21.4,763.4,20.6,762.1,20.6,762.4 M-10.2,763.1c0.1,0.8,0.5,1.4,0.5,0.8
	c0-0.4-0.1-0.7-0.3-0.8C-10.1,763-10.2,763-10.2,763.1 M-76.5,763.5c0,1,2.7,4.5,4.9,6.3c3.1,2.5,11.1,3.9,16.3,2.8
	c3.3-0.7,6.2-1.7,4.9-1.7c-0.3,0-0.6,0.1-0.7,0.3c-0.1,0.1-0.5,0.3-1,0.4c-0.4,0.1-1.8,0.4-3,0.6c-8.8,1.8-16.8-1-20.4-7.1
	C-76,763.9-76.5,763.3-76.5,763.5 M-60.6,763.7c0.5,0.1,1.4,0.1,1.9,0c0.5-0.1,0.1-0.1-0.9-0.1C-60.7,763.6-61.1,763.7-60.6,763.7
	 M-31.6,767.4c-1.6,4.9-1.2,4.6-6.2,4.6s-5.3-0.2-4.4-2.8c0.3-0.8,0.4-1.4,0.3-1.5c-0.1-0.1-0.2,0.1-0.3,0.4
	c-0.1,0.3-0.3,0.8-0.4,1.1c-1.3,2.4-0.1,3.1,4.9,3.1c4.9,0,4.8,0,6.1-3.8c0.4-1.4,0.9-2.8,1.1-3.1c0.2-0.3,0.2-0.8,0.2-1
	C-30.4,764.2-31,765.5-31.6,767.4 M-9.5,765.1c2.7,7.1,2.8,6.8-2.8,6.8c-4.7,0-4.7,0-5.4-2.3c-0.2-0.7-0.5-1.1-0.5-0.9
	c-0.2,0.5,0.8,2.7,1.3,3.1c0.3,0.3,1.7,0.4,4.6,0.4h4.1l0.6-0.9c0.4-0.6,0.5-1.1,0.3-1.4c-0.1-0.3-0.6-1.4-1-2.6
	c-0.4-1.2-0.9-2.3-1.1-2.5C-9.6,764.6-9.7,764.7-9.5,765.1 M-18.9,767.2c0,0.4,0.1,0.7,0.3,0.8c0.3,0.2,0.3-0.1,0-0.9
	C-18.9,766.6-18.9,766.6-18.9,767.2 M-130,773c0.3,0.1,0.7,0.1,1,0c0.3-0.1,0.1-0.1-0.5-0.1C-130,772.9-130.2,772.9-130,773
	 M-204.8,785c-5.2,2.6-4.1,8.4,2,10.5c2.2,0.8,2.9,1.3,2.9,2.2c0,1.4-4.5,1-5.4-0.5c-0.5-0.8-3.6,1.9-3.6,3.2c0,0.4,2.4,2,3,2
	c0.2,0-0.3-0.4-1.2-0.9c-1.8-1.1-1.9-1.2-0.3-3l1.2-1.4l1.3,0.8c3,1.8,5.9,1.1,5-1.1c-0.2-0.5-2.3-1.6-3.1-1.6
	c-0.3,0-0.6-0.1-0.7-0.3c-0.1-0.2-0.4-0.3-0.6-0.3c-0.7,0-2.6-1.7-3.1-2.8c-2.1-4.5,3.5-8.8,9.1-7.1c3.4,1.1,3.7,1.5,2.6,3.1
	c-1.2,1.6-1.3,1.7-2.6,0.9c-0.6-0.3-1.2-0.6-1.4-0.5c-0.2,0.1,0.3,0.4,1.1,0.8c1.7,0.8,1.8,0.7,3.3-1.3l0.8-1.1l-0.6-0.7
	C-196.7,784.1-201.9,783.5-204.8,785 M-98.5,784.4c-0.1,0.2-0.4,0.3-0.8,0.3c-0.3,0-1.1,0.6-1.8,1.3c-3,3.1-1.9,7.5,2.3,9
	c0.8,0.3,1.6,0.6,1.9,0.8c0.3,0.1,0.7,0.3,0.9,0.3c0.2,0,0.6,0.2,0.9,0.5c1.7,1.9-1.8,2.7-4.3,1c-1.4-0.9-1.7-0.9-2.8,0.5
	c-0.5,0.7-1.1,1.3-1.2,1.3c-0.5,0.2-0.2,1.4,0.4,1.8c1.1,0.7,2,1.2,2.4,1.2c0.2,0-0.4-0.4-1.2-0.9c-1.8-1.1-1.9-1.3-0.3-3l1.2-1.4
	l1.3,0.7c2.5,1.4,5.2,1.3,5.2-0.2c0-0.9-1.1-1.8-3.3-2.5c-5.4-1.8-6.8-7.8-2.3-9.7c0.6-0.3,1.3-0.6,1.7-0.8c1.4-0.7,6,0,7.7,1.2
	l1.1,0.7l-0.6,0.8c-0.3,0.4-0.8,1.1-1.1,1.5l-0.6,0.7l-1.3-0.7c-0.7-0.4-1.4-0.6-1.5-0.5c-0.1,0.1,0.5,0.5,1.3,0.8l1.5,0.7l0.8-0.9
	c2.2-2.3,1.9-3.2-1.4-4.3C-93.7,784.1-98.2,784-98.5,784.4 M-52,784.4c-0.1,0.2-0.4,0.3-0.7,0.3c-1.5,0-4.9,3.4-5.4,5.5
	c-0.1,0.4,0.1,0.1,0.5-0.7c1.6-3.3,4.6-5.1,8.4-5.1c1.8,0,2.3,0.1,4.5,1.1c1.3,0.6,3,2.4,3.8,4c0.7,1.6,1,1.4,0.3-0.3
	c-1.3-3.1-4.7-5.1-8.7-5.1C-50.7,784.2-51.9,784.3-52,784.4 M21.8,784.7c-6.1,2.3-7.9,11.3-3.2,16c1,1,2.8,2,3.1,1.7
	c0.1-0.1,0-0.2-0.2-0.2c-0.7,0-3-1.8-3.7-2.9c-2.8-4.3-1.7-10.9,2.3-13.4c3.1-1.9,8.1-1.9,10.8-0.1c1.9,1.3,1.9,1.6,0.5,3.1
	c-1.5,1.5-1.6,1.5-3,0.6c-4.2-2.9-9.3,2.4-6.6,6.9c1.7,2.8,7.5,3.2,7.2,0.4c-0.1-0.9-0.2-0.9-1.5-1l-1.4-0.1l0.1-1.5l0.1-1.5
	l2.9-0.1c4.5-0.1,4.2-0.4,4.2,3.8c0,4.1,0,4.1-2.3,5.2c-0.9,0.4-1.4,0.8-1.1,0.8c0.7,0,2.6-1.1,3.2-1.8c0.4-0.5,0.5-1.2,0.5-4
	c0-4.7,0.3-4.4-4.1-4.4h-3.7v1.9v1.9h1.5c1.4,0,1.5,0,1.5,0.8c0,2-4,2.2-6,0.2c-3.9-3.9,0.9-10.4,5.5-7.3c1.4,1,1.6,0.9,3.2-0.6
	c1.6-1.6,1.7-2.1,0.3-3.2C29.3,784.2,24.7,783.6,21.8,784.7 M-185.1,785.2c-0.4,0.9-0.2,16.9,0.2,17.2c0.5,0.5,12.2,0.5,13,0
	c0.5-0.2,0.6-0.6,0.6-2c0-2.2-0.2-2.3-4.9-2.3h-3.8l0.1-1.1l0.1-1.1l2.9-0.1c3.5-0.1,3.7-0.2,3.6-2.5l-0.1-1.8l-3.2-0.1l-3.2-0.1v-1
	v-1l3.9-0.1l3.9-0.1v-2v-2l-6.4-0.1C-184.2,784.7-184.9,784.8-185.1,785.2 M-162.7,784.9c-0.1,0.1-0.2,4.1-0.2,8.8v8.6l0.7,0.2
	c1.1,0.3,11.8,0.2,12.5-0.1c0.5-0.2,0.6-0.6,0.6-2c0-2.2-0.2-2.3-4.8-2.3h-3.6l-0.1-6.6l-0.1-6.6l-2.3-0.1
	C-161.4,784.8-162.6,784.8-162.7,784.9 M-141,785.1c-0.1,0.2-0.1,4.2-0.1,8.9l0.1,8.6l0.1-8.8l0.1-8.8l6,0.1l6,0.1v1.7v1.7l-3.5,0.1
	c-3.9,0.1-4.2,0.2-4.2,1.8s0.2,1.7,3.2,1.8l2.8,0.1v1.7v1.7l-2.7,0.1c-3.3,0.1-3.3,0.1-3.4,3.6l-0.1,2.7l-2,0.2l-2,0.2l1.9,0.1
	c2.7,0.1,2.9-0.1,3-3.4l0.1-2.8l2.8-0.1l2.8-0.1v-2v-2l-2.9-0.1l-2.9-0.1l0.1-1.4l0.1-1.4l3.5-0.1c3.9-0.1,3.9-0.1,3.9-2.1
	c0-2.4,0.4-2.3-6.4-2.3C-139.4,784.7-140.8,784.8-141,785.1 M-81.4,785.1c-0.1,0.2-0.1,1.2-0.1,2.1l0.1,1.7l2.6,0.1l2.6,0.1l0.1,6.5
	c0.1,7.4-0.1,7,2.7,6.9h1.9l-2-0.2l-2-0.2l-0.1-6.7l-0.1-6.7l-2.6-0.1l-2.6-0.1l-0.1-1.8l-0.1-1.8l7.6,0.1l7.6,0.1v1.7v1.7l-2.5,0.1
	c-3.1,0.1-2.9-0.4-2.8,7.3l0.1,6.5l0.2-6.7l0.2-6.7l2.6-0.1l2.6-0.1v-2v-2l-7.8-0.1C-79.8,784.7-81.2,784.8-81.4,785.1 M-30.7,784.9
	c-0.1,0.1-0.2,4.1-0.2,8.8c0,9.7-0.2,9,2.3,9c2.7,0,2.7,0,2.6-3.3l-0.1-2.9l-0.1,2.8c-0.1,3.2-0.1,3.2-2.9,3.1l-1.4-0.1l-0.1-8.6
	l-0.1-8.6l4.9-0.1l4.9-0.1l-4.8-0.1C-28.3,784.8-30.6,784.8-30.7,784.9 M-2.5,785c-0.1,0.2-0.1,0.4,0,0.5c0.1,0.1,0.2,0,0.2-0.2
	s0.8-0.3,2.7-0.3c3,0,2.9-0.1,3.8,2.6c1,3.1,2.3,6.6,2.5,7c0.2,0.3,0.3,0.7,0.3,0.9s0.1,0.7,0.3,0.9c0.2,0.3,0.6,1.3,0.9,2.3
	c0.3,1,0.7,1.8,0.8,1.7s-0.1-0.8-0.8-2.6c-0.2-0.6-0.3-0.8-1.9-5.4c-0.6-1.7-1.2-3.3-1.3-3.6s-0.4-1.1-0.6-1.7
	c-0.7-2.4-0.9-2.5-3.9-2.5C-1.2,784.7-2.4,784.9-2.5,785 M42.6,784.9c-0.6,0.6-0.2,17.2,0.4,17.5c0.8,0.4,12.6,0.4,13,0
	c0.2-0.2,0.3-1.1,0.3-2c0-2.3-0.1-2.3-4.6-2.3h-3.9V797v-1.2l3.1-0.1l3.1-0.1v-2v-2l-3.1-0.1l-3.1-0.1v-1.1v-1.1l3.9-0.1l3.9-0.1v-2
	v-2l-6.4-0.1C45.7,784.8,42.7,784.8,42.6,784.9 M-172.3,786.8l-0.1,1.8l-3.9,0.1l-3.9,0.1v1.3v1.3l3.1,0.1l3.1,0.1l-0.1,1.8
	l-0.1,1.8l-3.1,0.1l-3.1,0.1l-0.1,1.4l-0.1,1.4l4.2,0.1l4.2,0.1v1.9v1.9h-6.4h-6.4l-0.1-8.3c0-4.6,0-8.4,0.1-8.7
	c0.1-0.3,1.6-0.4,6.4-0.4h6.3V786.8 M-157.9,791.6l0.1,6.6l4.1,0.2c4.8,0.2,4.2-0.1,4.2,2c0,2.2,0.3,2.1-6.5,2.1
	c-3.1,0-5.8-0.1-6.1-0.2c-0.4-0.2-0.5-1.2-0.5-8.7V785h2.3h2.3L-157.9,791.6 M-20.6,785.2c0.1,0.1,0.5,0.3,0.8,0.5
	c3,1.5,3.4,8,0.5,9.5c-0.6,0.3-0.5,1,0.3,2.5c0.3,0.5,1,1.7,1.5,2.7c1.2,2.1,1.3,2-2,2.2l-1.7,0.1l2,0.1c3,0.1,3.3-0.2,2.2-2.1
	c-1.7-3-2.4-4.6-2.2-5c2.9-4,2.8-8.2-0.3-10.1C-20.2,785.1-21,784.8-20.6,785.2 M55.4,786.8l-0.1,1.8l-3.8,0.1
	c-4,0.1-4.2,0.2-4.2,1.5s0.5,1.4,3.7,1.4h3v1.7c0,2.1,0,2.1-3.7,2.1c-3,0-3.4,0.3-2.9,2.2c0.2,0.7,0.2,0.7,4.3,0.8l4.1,0.1v1.9v1.9
	l-6,0.1c-3.3,0-6.3,0-6.6-0.1l-0.7-0.2v-8.4c0-4.6,0.1-8.5,0.2-8.6c0.1-0.1,3-0.2,6.4-0.2h6.2L55.4,786.8 M-3.2,786.8
	c-0.2,0.5-0.5,1.2-0.6,1.5s-0.3,0.7-0.3,0.9c0,0.2-0.1,0.7-0.3,0.9c-0.4,0.8-0.8,1.8-1.6,4.1c-0.4,1.2-1,2.8-1.3,3.6
	c-0.6,1.5-0.7,2.4-0.3,1.6c0.1-0.3,0.5-1.1,0.7-1.9c0.3-0.8,0.6-1.7,0.7-2c0.3-0.6,2.2-5.9,2.7-7.3c0.2-0.5,0.4-1.2,0.6-1.5
	c0.2-0.4,0.2-0.7,0.2-0.8C-2.8,786-3,786.3-3.2,786.8 M-97,788.5c-1.3,1-0.8,1.9,1.6,2.7c0.7,0.2,1.6,0.5,1.9,0.6
	c0.5,0.2,0.5,0.1,0.1-0.1c-0.2-0.2-1.1-0.5-1.9-0.8c-2.4-0.8-2.6-2.2-0.3-2.8c0.8-0.2,0.9-0.2,0.1-0.2
	C-95.9,788-96.6,788.2-97,788.5 M-202.4,788.7c-0.8,1,0.7,2.8,2.3,2.8c0.8,0,4.6,2,5.1,2.8c2.2,3,0.2,7.3-4,8.4
	c-0.9,0.2-1.2,0.4-0.8,0.4c1,0,2.7-0.6,3.3-1.2c0.3-0.3,0.7-0.5,0.8-0.5c0.6,0,1.7-2.6,1.7-4c0-3-1.4-4.6-5.3-5.9
	c-3.1-1-3.7-1.7-2.7-2.7c0.3-0.3,0.3-0.5,0.2-0.5C-202,788.2-202.2,788.4-202.4,788.7 M-26.1,788.9c-0.1,0.2-0.1,1.2-0.1,2.1
	l0.1,1.7h1.6c2.2,0,3.6-2.2,2.3-3.6c-0.6-0.6-1-0.4-0.4,0.2c1.2,1.4,0,3.2-2.2,3.2H-26l0.1-1.8l0.1-1.8l1.3-0.2l1.3-0.2h-1.4
	C-25.5,788.5-26,788.6-26.1,788.9 M-51.8,789.7c-4.6,4.3,0.7,11.9,5.4,7.8c3.3-2.9,1.5-8.7-2.8-8.7C-50.7,788.8-51,788.9-51.8,789.7
	 M-47,789.8c2.9,2,2.3,7.3-1,8.3c-1.5,0.5-2.4,0.3-3.7-0.9C-55.7,793.7-51.3,786.8-47,789.8 M-0.7,792c-1.2,3.4-1.1,3.5,1,3.5
	c2.2,0,2.2-0.2,0.7-4.6C0.3,789.2,0.2,789.3-0.7,792 M1.4,793.2c0.6,1.8,0.5,2-1.1,2c-1.4,0-2.2-1-1.2-1.6c0.2-0.1,0.3-0.4,0.3-0.7
	c0-0.3,0.2-1,0.5-1.7l0.5-1.1l0.4,1C0.9,791.7,1.2,792.6,1.4,793.2 M-58.4,793.9c0.1,2.5,0.2,3.1,0.8,4.4c1,1.9,3.8,4.4,4.6,4.1
	c0.2-0.1-0.1-0.3-0.7-0.6c-2.8-1.3-4.4-4-4.7-8.1l-0.2-2.8L-58.4,793.9 M-40.2,793.5c0,4-1.4,6.5-4.2,8.1c-1.5,0.9-1.5,1.2-0.1,0.5
	c3.2-1.7,5.5-6.6,4.6-10C-40.1,791.1-40.1,791.2-40.2,793.5 M-91.9,792.6c1.9,1,2.7,2.4,2.7,4.6c0,2.3-0.8,3.6-2.7,4.6
	c-0.6,0.3-0.9,0.6-0.7,0.6c1.6,0.1,3.8-3,3.8-5.2c0-2.3-2.2-5.3-3.8-5.2C-92.8,792-92.5,792.3-91.9,792.6 M-120.9,793
	c-0.1,0.2-0.1,1.3-0.1,2.4l0.1,2h4.5h4.5v-2.3v-2.3l-4.4-0.1C-119.9,792.6-120.8,792.7-120.9,793 M-112.1,795.1l0.1,2.1h-4.4h-4.4
	V795v-2.2l4.3,0.1l4.3,0.1L-112.1,795.1 M-23,799.6c0.8,1.6,1.6,2.9,1.6,2.8c0.2-0.2-2.6-5.7-2.9-5.7C-24.4,796.7-23.8,798-23,799.6
	 M-3,799.6c-0.2,0.3-0.3,0.8-0.2,1s0.2,0,0.3-0.5l0.2-0.8h2.8h2.8l0.5,1.6c0.6,1.9,0.9,2,3.8,1.8c2.2-0.1,2.4-0.3,1.9-1.2l-0.3-0.7
	l0.1,0.7c0.2,0.8-0.5,1-2.9,0.9l-1.7-0.1l-0.6-1.6l-0.6-1.6l-3-0.1C-2.4,799-2.7,799-3,799.6 M-8.3,800.3c-0.1,0.1-0.2,0.4-0.2,0.7
	c0,0.3,0.1,0.4,0.3,0.1c0.2-0.2,0.3-0.5,0.2-0.7C-8,800.3-8.2,800.2-8.3,800.3 M-3.7,801.7c-0.4,0.9-4.1,1.2-4.7,0.3
	c-0.3-0.4-0.4-0.4-0.4,0c0,0.6,0.6,0.8,2.7,0.8c2,0,2.9-0.4,2.8-1.3C-3.4,801.1-3.4,801.1-3.7,801.7 M-204.9,802.8
	c0.3,0.1,1,0.2,1.5,0.2h0.9l-0.9-0.2c-0.5-0.1-1.1-0.2-1.5-0.2h-0.6L-204.9,802.8 M-99.8,802.8c0.2,0.2,0.8,0.3,1.3,0.3
	c0.9,0,0.9,0,0.1-0.3C-99.5,802.4-100.3,802.4-99.8,802.8 M-94.6,802.8l-0.7,0.2h0.7c0.4,0,0.9-0.1,1.2-0.3
	C-92.8,802.4-93.4,802.4-94.6,802.8 M-52.1,802.8c0.2,0.2,0.8,0.3,1.2,0.3h0.7l-0.7-0.2C-52.1,802.4-52.7,802.4-52.1,802.8
	 M-47.5,802.8c-0.7,0.2-0.7,0.2,0.2,0.3c0.5,0,1-0.1,1.1-0.3C-45.9,802.4-46.4,802.4-47.5,802.8 M22.3,802.8
	c0.2,0.2,0.8,0.3,1.2,0.3h0.7l-0.7-0.2C22.4,802.4,21.8,802.4,22.3,802.8 M27.6,802.8c-0.7,0.2-0.7,0.2,0.1,0.3
	c0.5,0,1.1-0.1,1.3-0.3C29.6,802.4,28.7,802.4,27.6,802.8"/>
<path id="path4" style="fill:#DA1934;" d="M-29.7,756.5v4.9h4.8h4.8v-4.9v-4.9h-4.8h-4.8V756.5 M-203,784.7c-0.2,0.2-0.7,0.3-1,0.3
	c-1.7,0-3.4,2.4-3.4,4.9s1,3.8,4.1,4.9c2.9,1.1,3.3,1.3,3.7,2.1c0.7,1.4-1.1,2.7-2.9,2c-1.8-0.7-2.8-1.2-3-1.5
	c-0.2-0.4-0.7-0.1-2,1.4l-1.1,1.3l0.7,0.6c4,3.6,12.8,2,13.5-2.6c0.5-3.2-0.9-5-4.7-6.4c-3.9-1.4-4.5-2-3.3-3.3
	c0.8-0.9,2.3-0.8,4.1,0.1c1.6,0.8,1.5,0.8,2.9-1l0.8-1l-1.1-0.8C-197.2,784.8-202,784-203,784.7 M-98.6,784.8
	c-5.4,1.8-4.2,10.4,1.5,10.4c0.3,0,0.6,0.1,0.7,0.3c0.1,0.2,0.4,0.3,0.7,0.3c0.7,0,1.5,0.9,1.5,1.8c0,1.9-3.4,1.9-5.7,0.1l-0.8-0.6
	l-1.3,1.4c-1.5,1.7-1.5,2,0,2.9c3.3,1.8,7.9,1.8,10.6,0c3.5-2.4,2.6-8-1.6-9.2s-5.6-2.5-4.2-3.7c0.9-0.8,2.4-0.7,4.1,0.2
	c1.2,0.7,1.5,0.7,1.7,0.4c0.1-0.2,0.6-0.8,1-1.3c0.9-1.1,0.9-1.1-0.1-1.9C-92.2,784.7-96.5,784.1-98.6,784.8 M-52.4,785
	c-8.1,3.1-7.6,15.2,0.7,17.4c6.1,1.7,11.6-2.5,11.6-8.7C-40.2,787-46.3,782.7-52.4,785 M22.8,784.8c-6.6,2.2-8.7,10.5-3.9,15.7
	c2.3,2.5,8.8,3,12.4,1c1.7-0.9,1.7-1.2,1.7-5c0-4.1,0.2-3.9-3.5-3.9c-3.4,0-3.5,0-3.5,1.8v1.4h1.5H29v1c0,1.3-0.9,1.9-3,2
	c-2,0-4.3-1.2-4.3-2.3c0-0.2-0.1-0.4-0.3-0.4c-1.3,0-0.5-4.5,1-6c1.2-1.2,5-1.9,5.4-1c0.1,0.1,0.5,0.4,1,0.7l0.9,0.5l1.4-1.5
	l1.4-1.5l-1-0.8c-1-0.8-1.4-1-3.5-1.7C26.9,784.4,24,784.4,22.8,784.8 M-184.7,793.6v8.6h6.4h6.4v-1.7v-1.7l-4.1-0.1l-4.1-0.1V797
	v-1.6l3.1-0.1l3.1-0.1l-0.1-1.7l-0.1-1.7l-3.1-0.1l-3.1-0.1v-1.4v-1.4l3.9-0.1l3.9-0.1l0.1-1.8l0.1-1.8h-6.1h-6.1v8.6 M-162.4,785.2
	c-0.1,0.1-0.2,4-0.2,8.6v8.4h6.4h6.4v-1.7v-1.7l-4-0.1l-4-0.1l-0.1-6.8l-0.1-6.8h-2.1C-161.3,785-162.3,785.1-162.4,785.2
	 M-140.8,793.6v8.6h2.2h2.2v-2.9c0-3.5,0-3.5,3.6-3.5h2.5v-1.4c0-1.8-0.2-2-3.2-2c-2.9,0-3-0.1-2.9-2l0.1-1.4l3.7-0.1l3.7-0.1v-1.9
	V785h-6h-6v8.6 M-81,785.2c-0.1,0.1-0.2,0.9-0.2,1.7c0,1.8,0.1,1.9,3.2,1.9h2.3v6.7v6.7h2.2h2.2l0.1-6.6l0.1-6.6l2.5-0.1l2.5-0.1
	l0.1-1.8l0.1-1.8h-7.4C-77.5,785-80.9,785.1-81,785.2 M-30.3,793.6v8.6h2h2l0.1-2.8l0.1-2.8h1c0.9,0,1,0.1,2.4,2.8l1.5,2.8h2.3
	c2.5,0,2.5,0,1.3-2c-0.3-0.6-1-1.8-1.5-2.7l-0.9-1.7l0.7-0.6c2.9-2.6,2.5-7.5-0.7-9.4c-1.2-0.7-1.5-0.7-5.8-0.7h-4.6L-30.3,793.6
	 M-2.7,786.4c-0.3,0.7-0.6,1.5-0.6,1.7s-0.1,0.5-0.3,0.6c-0.2,0.1-0.3,0.4-0.3,0.7c0,0.3-0.1,0.8-0.3,1.1c-0.1,0.3-0.6,1.5-1,2.7
	s-0.9,2.4-1,2.8c-0.1,0.3-0.4,1-0.6,1.6c-0.5,1.4-0.7,2-1.3,3.3c-0.3,0.6-0.5,1.2-0.5,1.2c0,0.1,1,0.1,2.3,0.1H-4l0.3-1.2
	c0.5-2.1,0.9-2.3,3.8-2.3c2.9,0,3.2,0.2,3.8,2.3l0.3,1.2h2.3c2.3,0,2.3,0,2.2-0.7c-0.1-0.6-1.1-3.6-1.7-5c-0.1-0.3-0.5-1.4-0.9-2.3
	c-0.3-1-0.8-2.2-1-2.7s-0.4-1.2-0.4-1.5s-0.1-0.6-0.3-0.7c-0.2-0.1-0.3-0.4-0.3-0.7c0-0.3-0.1-0.8-0.3-1.1c-0.1-0.3-0.4-0.9-0.6-1.4
	l-0.4-0.9H0.2h-2.6L-2.7,786.4 M43,793.6v8.6h6.5H56v-1.7v-1.7h-4c-4.5,0-4.7-0.1-4.7-1.7c0-1.6,0.3-1.7,3.7-1.7h3l-0.1-1.7
	l-0.1-1.7l-3.2-0.1l-3.2-0.1v-1.3V789l3.9-0.1l3.9-0.1v-1.7v-1.7l-6.2-0.1l-6-0.3V793.6 M-22.5,789c1,0.8,0.9,2.4,0,3.3
	c-0.5,0.5-1,0.6-2.1,0.5l-1.5-0.1l-0.1-1.7c0-0.9,0-1.9,0.1-2.1C-25.9,788.3-23.2,788.4-22.5,789 M-46.7,789.6c1.9,1.4,2.6,4,1.7,6
	c-1.9,4.4-7,4.1-8.5-0.4C-54.9,790.9-50.1,786.9-46.7,789.6 M1.2,791.4c1.3,3.8,1.2,4.4-1.2,4.3c-1.5-0.1-2.2-1.5-1.3-2.4
	c0.2-0.2,0.3-0.5,0.3-0.8c0-0.9,0.9-2.9,1.3-2.8C0.5,789.8,0.9,790.6,1.2,791.4 M-120.7,795.2v2l4.3-0.1l4.3-0.1l0.1-2l0.1-2h-4.4
	h-4.4L-120.7,795.2"/>
</svg>
