<?xml version="1.0" encoding="utf-8"?>
<!-- Generator: Adobe Illustrator 19.0.0, SVG Export Plug-In . SVG Version: 6.00 Build 0)  -->
<svg version="1.1" id="Layer_1" xmlns="http://www.w3.org/2000/svg" xmlns:xlink="http://www.w3.org/1999/xlink" x="0px" y="0px"
	 width="147px" height="155.3px" viewBox="-232 319.7 147 155.3" style="enable-background:new -232 319.7 147 155.3;"
	 xml:space="preserve">
<path style="fill:#030303;" d="M-168.7,474.3c-16.7-2.3-31.2-9.8-43.4-22.6c-9.6-10-16.2-22.6-18.9-36.3c-1.3-6.5-1.2-21.6,0.2-28.2
	c2-9.1,5.6-17.8,11-25.9c3.7-5.6,14.2-16.1,20.1-20c8.4-5.5,18.1-9.5,28-11.3c6.6-1.2,19.6-1.2,26.3,0c29.6,5.5,52.8,28,59.1,57.3
	c1.4,6.6,1.5,21.7,0.2,28.2c-4.9,23.9-21.4,44.2-44,53.8C-141.6,474.2-155.8,476.1-168.7,474.3z M-146.4,464.1
	c9.5-1.9,19.1-6.1,26.8-11.9l4.3-3.2l-4-0.2l-4-0.2l-1.5-3.7l-1.5-3.7h-17.3l-1.1,2.8c-2.1,5-1.9,4.9-7,4.9c-2.4,0-4.6-0.1-4.7-0.3
	c-0.1-0.2,3.2-8.1,7.4-17.5c4.2-9.4,7.6-17.2,7.6-17.3s-2-0.2-4.4-0.3l-4.4-0.1v-7.6h18.6l8.7,20.3c4.8,11.2,8.8,20.5,8.9,20.8
	c0.4,0.8,5.4-4.9,8.7-9.8c4.7-7.1,7.6-14.1,9.6-23.4c1.1-5.4,1.1-17.7,0-23.2c-4.2-19.8-16.1-35.6-33.4-44.4
	c-10.1-5.2-18.3-7.1-29.8-7.1c-11.3,0-19.4,2-29.4,7.2c-4.4,2.3-12.4,7.6-12.4,8.3c0,0.1,4.2,4.4,9.2,9.5l9.2,9.2l9.5-9.6
	c5.3-5.4,9.7-9.4,9.9-9.2c0.2,0.2,0.3,10.3,0.3,22.4l-0.1,21.9h-9.1l-0.1-12.4l-0.1-12.8l-5.3,5.2l-5.3,5.3l-5-5.3l-5-5.3l-0.1,12.4
	l-0.1,12.4h-9.1l-0.2-21.5l-0.2-21.5l-3.2,3.5c-8.2,9-13.6,19.6-16,32c-1.2,6.3-1.1,17.1,0.3,23.5c4.7,22.4,20,39.9,41.1,47.4
	C-169,465.4-157.6,466.3-146.4,464.1z M-130.1,431.9c-2.7-6.9-4.8-11.9-4.9-11.8c-0.2,0.2-5,11.9-5,12.1c0,0.1,2.3,0.2,5.1,0.2
	C-131,432.5-129.9,432.3-130.1,431.9z M-201.8,448.2c-0.1-0.3-0.2-10.1-0.1-21.6l0.1-21l11.7-0.1c10.6-0.1,12,0,14.9,0.9
	c13.2,4,19.5,18.5,13.3,30.7c-2.5,4.9-9.1,10-14.8,11.3C-180,449-201.6,448.9-201.8,448.2z M-176.1,438.3c4.7-2.3,7-6.1,7-11.3
	c0-5.2-2.3-9-7-11.3c-3.1-1.5-3.5-1.6-9.8-1.7l-6.6-0.3v26.5l6.6-0.2C-179.6,439.9-179.2,439.8-176.1,438.3z M-139.5,399
	c-3.7-0.7-8.9-3.6-11.9-6.6c-7.4-7.4-8.6-19.5-2.9-28c1.7-2.5,6.1-6.6,8.1-7.6c5.3-2.7,11.2-3.6,16.7-2.4c4.9,1.1,8.1,2.7,11.8,6.1
	c9.2,8.6,9.5,22.5,0.7,31.6C-122.8,398.1-131,400.6-139.5,399z M-128.2,389.1c6.1-3.1,9-10,7.1-16.6c-1.1-3.9-5-7.8-9-9
	c-8.5-2.7-17.2,3.1-17.8,11.9c-0.5,6.6,3,12,9.3,14.4C-136.1,390.7-130.7,390.4-128.2,389.1z M-100.9,349.9
	c-0.7-0.8-1.3-1.6-1.3-1.9c0-0.3,0.9-1.1,2-1.8c3.2-2.2,7-6.7,7.4-8.6c0.4-2.2-0.1-2.7-4.4-4.8c-4.1-2-5.4-3.6-5.4-6.8
	c0-2.2,1.5-4.4,3.9-5.6c2-1.1,7-0.9,8.8,0.2c3.2,2,5,5.5,5,10.1c0,3.7-1.1,7.1-3.5,10.6c-2,2.9-6.7,7.4-9.7,9.1
	C-99.6,351.2-99.7,351.2-100.9,349.9z"/>
</svg>
