<?xml version="1.0" encoding="utf-8"?>
<!-- Generator: Adobe Illustrator 19.0.0, SVG Export Plug-In . SVG Version: 6.00 Build 0)  -->
<svg version="1.1" id="svg" xmlns="http://www.w3.org/2000/svg" xmlns:xlink="http://www.w3.org/1999/xlink" x="0px" y="0px"
	 width="220.9px" height="109.7px" viewBox="-210.9 684.2 220.9 109.7" style="enable-background:new -210.9 684.2 220.9 109.7;"
	 xml:space="preserve">
<g id="svgg">
	<path id="path0" style="fill:none;" d="M-210.5,684.2"/>
	<path id="path1" style="fill:none;" d="M-210.5,684.2"/>
	<path id="path2" style="fill:none;" d="M-210.5,684.2"/>
	<path id="path3" style="fill:none;" d="M-210.5,684.2"/>
	<path id="path4" style="fill:none;" d="M-210.5,684.2"/>
	<path id="path5" style="fill:#3E4F61;" d="M-94.6,725.4c0,0.2,0,0.3,0.1,0.2c0-0.1,0-0.3,0-0.4C-94.5,725.1-94.6,725.1-94.6,725.4
		 M-74.6,726.3l-0.4,0.1L-74.6,726.3c0.2,0.1,0.3,0.1,0.4,0c0-0.1,0.1-0.1,0-0.1C-74.2,726.3-74.4,726.3-74.6,726.3 M-103.8,726.4
		c0.1,0,0.3,0,0.4,0s0,0-0.2,0C-103.9,726.4-104,726.4-103.8,726.4 M-99.2,726.4c0.1,0,0.3,0,0.4,0s0,0-0.2,0
		C-99.3,726.4-99.3,726.4-99.2,726.4 M-70.4,726.4c0.1,0,0.4,0,0.5,0s0,0-0.2,0C-70.4,726.4-70.5,726.4-70.4,726.4 M-140.3,727.9
		c0,0.2,0,0.4,0,0.3C-140.2,728.2-140.2,728-140.3,727.9C-140.3,727.5-140.3,727.5-140.3,727.9 M-123.1,728.1c0,0.2,0,0.3,0.1,0.2
		c0-0.1,0-0.3,0-0.4S-123.1,727.9-123.1,728.1 M-69.2,728.4c0,0.2,0,0.3,0.1,0.2c0-0.1,0-0.3,0-0.4
		C-69.2,728.1-69.2,728.2-69.2,728.4 M-20.4,732.5c0,0.2,0,0.3,0.1,0.2c0-0.1,0-0.3,0-0.4C-20.4,732.2-20.4,732.3-20.4,732.5
		 M2.7,733c0,0,0.1,0.1,0.3,0c0.2,0,0.3-0.1,0.3-0.1S2.7,732.9,2.7,733 M-123.1,733.2c0,0.1,0,0.3,0,0.6c0,0.4,0,0.4,0.1-0.2
		C-122.9,733-122.9,732.9-123.1,733.2 M-55.2,734.4c0,0.2,0,0.3,0,0.2c0-0.1,0-0.3,0-0.4C-55.2,734.1-55.2,734.2-55.2,734.4
		 M-0.2,736.1l-0.5,0.1L-0.2,736.1c0.2,0.1,0.5,0.1,0.5,0c0-0.1,0.1-0.1,0-0.1C0.4,736,0.1,736.1-0.2,736.1 M-153.5,737.7
		c0,0.7,0,1,0,0.6c0-0.4,0-1,0-1.3C-153.5,736.7-153.5,737-153.5,737.7 M-68,738c0,0.2,0,0.3,0.1,0.2c0-0.1,0-0.3,0-0.4
		C-68,737.7-68,737.8-68,738 M-56,738.5c0,0.2,0,0.3,0,0.3c0.1-0.1,0.1-0.2,0.1-0.4C-55.9,738.2-55.9,738.2-56,738.5 M-36.4,739.3
		c0,0.1,0,0.3,0,0.5c0,0.3,0,0.3,0.1-0.2C-36.3,739.2-36.3,739.1-36.4,739.3 M-97.3,739.7c0,0.2,0,0.3,0,0.2s0-0.3,0-0.4
		C-97.3,739.4-97.3,739.5-97.3,739.7 M-68.8,741.7c0,0.1,0,0.3,0,0.4c0,0.2,0.1,0.1,0.1-0.2C-68.6,741.6-68.7,741.5-68.8,741.7
		 M-19.2,742.4c0,0.3,0,0.4,0,0.2c0-0.1,0-0.4,0-0.5S-19.2,742.1-19.2,742.4 M-143,742.4c0,0.2,0,0.3,0.1,0.2c0-0.1,0-0.3,0-0.4
		C-143,742.1-143,742.1-143,742.4 M-98.1,743.8c0,0.3,0,0.4,0,0.2c0-0.1,0-0.4,0-0.5C-98,743.4-98.1,743.5-98.1,743.8 M-143.8,746.4
		c0,0.2,0,0.3,0,0.2c0-0.1,0-0.3,0-0.4C-143.8,746-143.8,746.1-143.8,746.4 M-20,746.4c0,0.2,0,0.3,0.1,0.2c0-0.1,0-0.3,0-0.4
		C-19.9,746.1-20,746.2-20,746.4 M-142.6,756.2c0,0.2,0,0.3,0.1,0.2c0-0.1,0-0.3,0-0.4C-142.6,755.9-142.6,756-142.6,756.2
		 M-186.2,756.8c0.2,0,0.4,0,0.6,0s0,0-0.3,0C-186.3,756.8-186.4,756.8-186.2,756.8 M-174.5,756.8c0.2,0,0.4,0,0.5,0
		c0.1,0,0,0-0.3,0C-174.6,756.8-174.7,756.8-174.5,756.8"/>
	<path id="path6" style="fill:#4D5C65;" d="M-151.7,691.2c0,0.1-0.6,0.1-1.3,0.2c-0.7,0-1.2,0.1-1.2,0.2c0,0-0.5,0.1-1.2,0.2
		c-0.6,0.1-1.2,0.2-1.2,0.2s-0.2,0.1-0.5,0.2c-0.3,0-0.5,0.1-0.6,0.2c-0.1,0-0.3,0.1-0.5,0.2c-0.2,0-0.5,0.1-0.6,0.2
		c-0.1,0.1-0.4,0.2-0.6,0.2s-0.4,0.1-0.4,0.2s0.1,0.1-0.2,0.1c-0.2,0.1-0.4,0.2-0.4,0.2s-0.1,0.1-0.2,0.1c-0.1,0-0.5,0.2-0.8,0.5
		s-0.6,0.4-0.6,0.4s-0.2,0.1-0.4,0.3c-0.2,0.2-0.4,0.3-0.4,0.3c-0.1,0-1.4,1.3-1.4,1.4s-0.1,0.2-0.2,0.3c-0.1,0.1-0.2,0.2-0.2,0.2
		s-0.2,0.3-0.4,0.7c-0.2,0.3-0.4,0.7-0.5,0.8c0,0.1-0.1,0.2-0.1,0.2s-0.1,0.3-0.2,0.6c-0.1,0.3-0.2,0.6-0.2,0.6s-0.1,0.3-0.2,0.6
		c0,0.3-0.1,0.6-0.2,0.7c-0.2,0.2-0.2,5.3,0,5.4c0.1,0,0.2,0.3,0.2,0.7c0,0.3,0.1,0.7,0.2,0.7c0,0.1,0.1,0.4,0.2,0.8
		c0.1,0.4,0.2,0.7,0.2,0.7s0.1,0.2,0.2,0.5c0.1,0.5,0.1,0.6,0.6,1.5c0.1,0.3,0.2,0.6,0.2,0.7s0.1,0.3,0.2,0.3
		c0.1,0.1,0.2,0.3,0.2,0.5s0.1,0.3,0.2,0.3c0,0,0.1,0.2,0.2,0.4c0.1,0.2,0.2,0.4,0.2,0.4s0.1,0.1,0.2,0.3c0,0.2,0.1,0.3,0.2,0.3
		c0.1,0,0.1,0,0.1,0.1c0,0,0,0.2,0.2,0.4c0.1,0.2,0.3,0.5,0.3,0.6c0,0.1,0.1,0.2,0.2,0.2c0,0,0.2,0.2,0.2,0.4
		c0.1,0.2,0.2,0.4,0.3,0.4c0.1,0,0.2,0.2,0.2,0.4s0.1,0.4,0.2,0.4c0.3,0.3,0.4,0.5,0.4,0.6s0.5,0.9,0.7,1.1c0.1,0.1,0.1,0.2,0.1,0.3
		c0,0.1,0.1,0.2,0.1,0.2c0.1,0,0.2,0.2,0.3,0.4c0.3,0.7,0.5,0.9,0.6,0.9c0.1,0,0.1,0.1,0.2,0.3c0,0.2,0.1,0.3,0.2,0.3
		s0.2,0.1,0.2,0.3c0.1,0.2,0.2,0.3,0.2,0.3c0.1,0,0.1,0.2,0.2,0.3c0,0.2,0.1,0.4,0.2,0.4s0.2,0.2,0.2,0.4c0,0.2,0.1,0.3,0.2,0.3
		c0,0,0.2,0.3,0.4,0.7s0.4,0.7,0.4,0.7s0.1,0.1,0.1,0.3c0,0.2,0.1,0.3,0.2,0.4c0.1,0,0.2,0.2,0.2,0.4c0,0.2,0.1,0.3,0.2,0.3
		c0,0,0.1,0.2,0.2,0.4c0.1,0.2,0.2,0.4,0.2,0.4c0.1,0,0.1,0.1,0.1,0.1c0,0.1,0.3,0.9,0.7,1.6c0.1,0.2,0.2,0.5,0.2,0.7
		c0,0.2,0.1,0.4,0.2,0.5c0.1,0,0.1,0.3,0.2,0.5c0,0.3,0.1,0.5,0.2,0.5c0,0,0.1,0.5,0.2,1c0.1,0.6,0.2,1.1,0.2,1.1
		c0.1,0.1,0.1,0.7,0.2,1.5c0,0.8,0.1,1.4,0.2,1.4s0.1,0.6,0.1,1.3c0,0.7,0,1.3-0.1,1.3c-0.1,0-0.1,0.4-0.2,0.8c0,0.5-0.1,0.9-0.2,1
		c-0.1,0.1-0.2,0.5-0.2,0.9c-0.1,0.4-0.2,0.8-0.2,0.8c-0.1,0-0.1,0.2-0.2,0.4c0,0.2-0.1,0.4-0.1,0.4s-0.1,0.2-0.2,0.4
		c-0.2,0.5-0.5,1.1-0.6,1.3c-0.1,0.1-0.2,0.3-0.2,0.4s-0.1,0.3-0.1,0.3s-0.1,0.2-0.2,0.4c-0.1,0.2-0.2,0.4-0.3,0.4
		c-0.1,0-0.1,0.1-0.1,0.2s0,0.2-0.1,0.2c-0.1,0-0.2,0.1-0.2,0.3c-0.1,0.2-0.2,0.3-0.2,0.3c-0.1,0-0.1,0.1-0.2,0.2
		c0,0.1-0.3,0.4-0.5,0.6c-0.3,0.3-0.5,0.5-0.5,0.6s-1.5,1.6-1.6,1.6c0,0-0.2,0.1-0.4,0.3c-0.9,0.8-1.2,1.1-1.4,1.1
		c-0.1,0-0.2,0.1-0.2,0.2s-0.1,0.2-0.2,0.2c-0.1,0-0.2,0.1-0.2,0.1c0,0.1-0.2,0.2-0.4,0.3c-0.2,0.1-0.4,0.2-0.4,0.3
		c0,0.1-0.2,0.1-0.2,0.1c-0.1,0-0.2,0-0.2,0.1c0,0.1-0.2,0.1-0.3,0.2c-0.2,0-0.4,0.1-0.4,0.2c0,0.1-0.1,0.2-0.2,0.2
		c-0.2,0-1.3,0.6-1.4,0.7c0,0-0.1,0.1-0.2,0.1c-0.1,0-0.4,0.1-0.6,0.2s-0.6,0.2-0.8,0.3c-0.2,0-0.4,0.1-0.4,0.2c0,0-0.3,0.2-0.6,0.2
		c-0.3,0.1-0.6,0.2-0.6,0.2s-0.2,0.1-0.5,0.2c-0.3,0-0.5,0.1-0.5,0.2s-0.1,0.1-0.3,0.1c-0.2,0-0.3,0-0.3,0s-0.4,0.1-0.7,0.2
		c-0.4,0-0.7,0.1-0.7,0.2c0,0-0.4,0.1-0.8,0.2c-0.4,0-0.8,0.1-0.9,0.2c-0.3,0.4-12.4,0.4-12.7,0c0,0-0.5-0.1-1.1-0.2
		c-0.6,0-1.1-0.1-1.1-0.2c0,0-0.4-0.1-0.8-0.2l-0.7-0.1l0.1,0.4c0,0.2,0.1,0.4,0.2,0.5c0.1,0.1,0.3,0.4,0.6,0.9
		c0.1,0.2,0.3,0.5,0.4,0.7c0.1,0.2,0.3,0.4,0.3,0.5s2.1,0.4,2.9,0.4c0.2,0,0.4,0.1,0.5,0.1c0.2,0.2,9.8,0.2,10.2,0
		c0.1-0.1,0.9-0.2,1.6-0.3c0.8-0.1,1.4-0.2,1.4-0.2s0.4-0.1,0.7-0.2c0.4,0,0.7-0.1,0.7-0.2c0,0,0.4-0.1,0.8-0.2
		c0.5-0.1,0.8-0.2,0.8-0.2s0.2-0.1,0.5-0.2c0.3,0,0.5-0.1,0.5-0.2c0,0,0.3-0.2,0.6-0.2c0.3-0.1,0.6-0.2,0.6-0.2s0.2-0.1,0.4-0.2
		c0.2,0,0.4-0.1,0.4-0.2s0.1-0.1,0.2-0.1c0.2,0,1.5-0.6,1.5-0.7l0.1-0.1c0.2,0,2-0.9,2.2-1.1c0,0,0.2-0.1,0.4-0.2
		c0.3-0.2,0.4-0.2,0.8-0.6c0.1-0.1,0.3-0.2,0.4-0.2s0.2-0.1,0.3-0.2c0.1-0.1,0.2-0.2,0.2-0.2s0.3-0.1,0.4-0.3
		c0.2-0.2,0.4-0.3,0.4-0.3s0.3-0.2,0.6-0.5c0.3-0.3,0.5-0.5,0.6-0.5c0.1,0,1.1-1,1.1-1.1c0,0,0.2-0.3,0.5-0.6
		c0.3-0.3,0.5-0.6,0.5-0.6s0.1-0.2,0.3-0.4c0.2-0.2,0.3-0.4,0.3-0.4s0.1-0.2,0.3-0.5c0.3-0.4,0.4-0.5,0.7-0.8
		c0.1-0.1,0.2-0.3,0.2-0.5c0-0.2,0.1-0.3,0.2-0.3c0.1,0,0.2-0.2,0.3-0.5c0.1-0.2,0.2-0.4,0.2-0.4c0.1,0,0.1-0.1,0.1-0.1
		s0.1-0.4,0.3-0.7c0.2-0.3,0.4-0.8,0.5-1c0.1-0.2,0.2-0.5,0.2-0.5c0-0.1,0.1-0.4,0.2-0.8c0.1-0.3,0.2-0.6,0.2-0.7
		c0.1,0,0.1-0.3,0.2-0.6c0-0.3,0.1-0.6,0.2-0.6c0.3-0.2,0.3-7.1,0-7.5c-0.1-0.1-0.1-0.5-0.2-0.9c0-0.4-0.1-0.8-0.2-0.9
		c-0.1-0.1-0.2-0.5-0.2-1c-0.1-0.5-0.2-0.9-0.2-0.9s-0.1-0.2-0.2-0.4c0-0.2-0.1-0.5-0.2-0.5c0-0.1-0.1-0.3-0.2-0.6
		c-0.1-0.3-0.2-0.6-0.3-0.8c-0.1-0.2-0.1-0.4-0.1-0.5s0-0.2-0.1-0.2c-0.1,0-0.2-0.2-0.2-0.4c-0.1-0.2-0.2-0.4-0.2-0.4
		s-0.1-0.1-0.2-0.3c0-0.2-0.1-0.4-0.2-0.5c-0.2-0.2-0.4-0.5-0.7-1.3c-0.2-0.4-0.4-0.8-0.5-0.9c-0.1-0.1-0.2-0.2-0.2-0.3
		s-0.1-0.3-0.3-0.6c-0.3-0.4-0.5-0.7-0.8-1.4c-0.1-0.2-0.2-0.3-0.2-0.3c-0.1-0.1-0.7-0.9-0.7-1c0-0.1-0.4-0.7-0.6-0.8
		c0,0-0.1-0.2-0.2-0.3c-0.3-0.7-0.5-0.9-0.6-0.9c0,0-0.2-0.2-0.2-0.4c-0.1-0.2-0.2-0.4-0.3-0.4c-0.1,0-0.1-0.1-0.1-0.2
		s0-0.2-0.1-0.2c0,0-0.2-0.2-0.2-0.4c-0.1-0.2-0.2-0.4-0.2-0.4s-0.1-0.2-0.2-0.4c-0.1-0.2-0.2-0.4-0.2-0.4c-0.1-0.1-0.3-0.5-0.7-1.3
		c-0.2-0.3-0.3-0.6-0.4-0.7c0,0-0.1-0.2-0.2-0.5c-0.1-0.2-0.2-0.4-0.2-0.4c-0.1,0-0.1-0.1-0.2-0.3c0-0.2-0.1-0.3-0.2-0.3
		s-0.2-0.2-0.2-0.5c-0.1-0.3-0.2-0.6-0.3-0.7c-0.1-0.1-0.1-0.3-0.1-0.4s-0.1-0.3-0.2-0.4c-0.1-0.1-0.2-0.4-0.2-0.7
		c0-0.3-0.1-0.5-0.2-0.5c-0.1,0-0.3-1.1-0.3-1.5c0-0.1-0.1-0.3-0.1-0.3c-0.2-0.1-0.2-4.7,0-4.9c0.1-0.1,0.2-0.4,0.3-0.8
		c0.1-0.3,0.2-0.6,0.2-0.6s0.1-0.2,0.2-0.4c0.1-0.2,0.2-0.4,0.2-0.4c0.1,0,0.1-0.1,0.1-0.1c0-0.4,2.1-2.5,2.5-2.5
		c0.1,0,0.2-0.1,0.2-0.1s0.2-0.2,0.4-0.3c0.2-0.1,0.4-0.2,0.4-0.2s0.2-0.1,0.4-0.2c0.4-0.1,0.9-0.3,1.5-0.6c0.2-0.1,0.5-0.2,0.7-0.2
		s0.5-0.1,0.5-0.2c0.1,0,0.4-0.1,0.7-0.2c0.3,0,0.6-0.1,0.6-0.2s0.8-0.2,1.6-0.2c0.9-0.1,1.6-0.2,1.6-0.2c0-0.1,6-0.1,6.2,0
		c0.5,0.3,0.7-0.1,0.3-0.5c-0.2-0.2-0.3-0.3-0.3-0.4c0-0.1-0.6-0.8-1.2-1.4c-0.2-0.2-0.3-0.4-0.3-0.4
		C-146.8,691.2-151.6,691.1-151.7,691.2 M-128.5,723.6c0,0.1-0.4,0.1-0.8,0.2c-0.5,0-1,0.2-1.3,0.3c-0.3,0.1-0.6,0.2-0.7,0.2
		s-0.2,0-0.2,0.1s-0.1,0.2-0.3,0.2c-0.5,0.2-0.9,0.5-0.9,0.6c0,0.1-0.1,0.1-0.1,0.1c-0.2,0-2.6,2.2-2.6,2.4c0,0-0.2,0.3-0.4,0.5
		c-0.6,0.7-0.7,0.8-0.8,1.1c-0.1,0.2-0.2,0.3-0.2,0.3s-0.1,0.1-0.1,0.2s-0.1,0.2-0.2,0.2c-0.1,0-0.2,0.2-0.2,0.4
		c0,0.2-0.1,0.4-0.2,0.4s-0.2,0.2-0.2,0.4c0,0.2-0.1,0.4-0.2,0.4c-0.1,0.1-0.2,0.3-0.2,0.4c0,0.2-0.1,0.3-0.2,0.3s-0.1,0.1-0.1,0.2
		c0,0.1,0,0.2-0.1,0.1c-0.1-0.1,0.2-1.4,0.3-1.4c0,0,0.1-0.2,0.2-0.5c0-0.3,0.1-0.5,0.2-0.5c0,0,0.2-0.4,0.2-0.8
		c0.1-0.5,0.2-0.8,0.2-0.8s0.1-0.4,0.2-0.8c0.1-0.5,0.2-0.8,0.2-0.8s0.1-0.3,0.2-0.6c0-0.3,0.1-0.6,0.2-0.7c0.1-0.1,0.1-0.5,0.1-0.9
		v-0.7h-1.5c-1.2,0-1.5,0-1.5,0.1s0,0.2-0.1,0.2c-0.1,0-0.1,0.4-0.2,0.9c0,0.5-0.1,0.9-0.2,0.9c0,0-0.1,0.5-0.2,1.1
		c-0.1,0.6-0.2,1.1-0.2,1.2c0,0.1-0.1,0.5-0.2,0.9c0,0.4-0.1,0.8-0.2,0.8c0,0-0.1,0.5-0.2,1.2s-0.2,1.2-0.2,1.2s-0.1,0.3-0.2,0.8
		c0,0.4-0.1,0.8-0.2,0.8c0,0-0.1,0.5-0.2,1.2s-0.2,1.2-0.2,1.2s-0.1,0.4-0.2,0.8c0,0.4-0.1,0.8-0.2,0.9c0,0.1-0.1,0.6-0.2,1.2
		c-0.1,0.6-0.2,1.1-0.2,1.2c0,0.1-0.1,0.6-0.2,1.2c-0.1,0.6-0.2,1.1-0.2,1.2c0,0-0.1,0.4-0.2,0.9c0,0.5-0.1,0.8-0.2,0.8
		c0,0-0.1,0.5-0.2,1.2c-0.1,0.6-0.2,1.2-0.2,1.2s-0.1,0.4-0.2,0.8c0,0.5-0.1,0.8-0.2,0.8c0,0-0.1,0.5-0.2,1.2
		c-0.1,0.7-0.2,1.2-0.2,1.2s-0.1,0.3-0.2,0.7c0,0.4-0.1,0.8-0.2,0.9c0,0.1-0.1,0.6-0.2,1.2c-0.1,0.6-0.2,1.1-0.2,1.2
		c-0.1,0.1-0.1,0.5-0.2,0.9c0,0.4-0.1,0.8-0.1,0.8c-0.1,0-0.3,1.7-0.3,2.1c0,0.1,0.4,0.1,1.5,0.1c1.4,0,1.5,0,1.5-0.2
		c0-0.1,0-0.2,0.1-0.2c0.1,0,0.2-0.5,0.2-1.2s0.2-1.2,0.2-1.2s0.1-0.4,0.2-0.8c0-0.4,0.1-0.8,0.2-0.9c0.1-0.1,0.2-0.6,0.2-1.3
		c0.1-0.6,0.2-1.2,0.2-1.2s0.1-0.3,0.1-0.7s0.1-0.7,0.2-0.8c0-0.1,0.2-0.7,0.2-1.3c0.1-0.7,0.2-1.2,0.2-1.2s0.1-0.1,0.1-0.2
		c0-0.2,0-0.2,0.5-0.2c1.7,0.3,6.5,0.1,6.7-0.1c0,0,0.3-0.1,0.6-0.2c0.3,0,0.5-0.1,0.5-0.2c0,0,0.2-0.1,0.4-0.2
		c0.2,0,0.6-0.2,0.9-0.3s0.5-0.2,0.6-0.2c0.1,0,0.1,0,0.1-0.1c0,0,0.2-0.2,0.4-0.2c0.2,0,0.4-0.2,0.4-0.2s0.1-0.1,0.3-0.2
		c0.8-0.4,3.5-3.1,3.8-3.8c0-0.1,0.1-0.2,0.1-0.2c0.3-0.2,1.3-2.2,1.4-2.7c0-0.2,0.1-0.3,0.2-0.3s0.1-0.2,0.2-0.4s0.1-0.5,0.2-0.5
		s0.1-0.1,0-0.2c0-0.1,0-0.2,0-0.2c0.1-0.1,0.1-0.3,0.2-0.6c0-0.2,0.1-0.5,0.2-0.6c0-0.1,0.1-0.7,0.2-1.4c0.1-0.7,0.2-1.3,0.2-1.4
		c0.1-0.1,0.1-4.7,0-4.7c0,0-0.1-0.4-0.2-0.9s-0.2-0.9-0.2-1c-0.1,0-0.1-0.2-0.2-0.4c0-0.2-0.1-0.4-0.2-0.4s-0.2-0.1-0.2-0.2
		c0-0.1-0.9-1-1.4-1.5c-0.2-0.2-1.1-0.4-1.6-0.4c-0.2,0-0.4,0-0.4-0.1c0-0.1-0.2-0.1-0.5-0.1C-128.2,723.5-128.5,723.5-128.5,723.6
		 M-44.5,723.6c0,0.1-0.2,0.1-0.5,0.2c-0.4,0.1-1.3,0.4-1.5,0.6c0,0-0.2,0.1-0.4,0.2c-0.4,0.2-1.8,1.6-2.4,2.4
		c-0.2,0.3-0.4,0.6-0.5,0.6c-0.1,0.1-0.1,0.2-0.2,0.3c0,0.1-0.1,0.2-0.2,0.2c-0.1,0-0.1,0.1-0.2,0.3c0,0.2-0.1,0.4-0.2,0.4
		c-0.1,0-0.3,0.4-0.5,0.7c-0.2,0.3-0.4,0.7-0.4,0.7s-0.3,0.4-0.5,0.9s-0.4,0.8-0.5,0.8c-0.1-0.1,0.2-1,0.3-1.1c0,0,0.1-0.3,0.2-0.5
		c0-0.2,0.1-0.5,0.2-0.5c0-0.1,0.1-0.4,0.2-0.8c0.1-0.4,0.2-0.7,0.2-0.8c0-0.1,0.1-0.3,0.2-0.6c0-0.3,0.1-0.5,0.2-0.6
		c0.1-0.1,0.1-0.5,0.2-0.9c0.1-0.4,0.2-0.9,0.2-0.9c0-0.1,0.1-0.4,0.2-0.7l0.1-0.6h-1.5c-1.3,0-1.5,0-1.5,0.2c0,0.1,0,0.2-0.1,0.2
		s-0.1,0.4-0.2,0.8c0,0.4-0.1,0.8-0.2,0.9c0,0.1-0.1,0.6-0.2,1.2c-0.1,0.6-0.2,1.1-0.2,1.2c0,0.1-0.1,0.5-0.2,0.9
		c0,0.4-0.1,0.8-0.2,0.8c0,0-0.1,0.5-0.2,1.2s-0.2,1.2-0.2,1.2s-0.1,0.5-0.2,1.2c-0.1,0.7-0.2,1.2-0.2,1.2s-0.1,0.3-0.2,0.8
		c0,0.4-0.1,0.8-0.2,0.8c0,0-0.1,0.4-0.2,0.8c0,0.4-0.1,0.8-0.1,0.9c0,0.1-0.1,0.2,0,0.4c0,0.1,0,0.3-0.1,0.4
		c-0.1,0.1-0.1,0.5-0.2,0.9c0,0.4-0.1,0.8-0.2,0.9c0,0.1-0.1,0.6-0.2,1.2c-0.1,0.6-0.2,1.1-0.2,1.1s-0.1,0.3-0.2,0.8
		s-0.1,0.8-0.2,0.8c0,0-0.1,0.5-0.2,1.2c-0.1,0.6-0.2,1.2-0.2,1.2c-0.3,0.2,0.1,0.3,1.5,0.3c1.6,0,1.6,0,1.6-0.8
		c0-0.2,0-0.3,0.1-0.3s0.2-0.5,0.2-1.2c0.1-0.6,0.2-1.2,0.2-1.3s0.1-0.4,0.2-0.8c0-0.4,0.1-0.7,0.2-0.8c0-0.1,0.1-0.6,0.2-1.1
		c0.1-0.6,0.2-1,0.2-1s0.1-0.2,0.2-0.4c0-0.2,0.1-0.5,0.2-0.5c0-0.1,0.1-0.4,0.2-0.7c0.1-0.3,0.2-0.6,0.2-0.6s0.1-0.3,0.2-0.6
		c0.1-0.3,0.2-0.6,0.2-0.6s0.1-0.2,0.2-0.4c0-0.2,0.1-0.4,0.2-0.5c0.1-0.1,0.2-0.2,0.2-0.3c0-0.2,0.4-1.1,0.6-1.2
		c0,0,0.1-0.1,0.1-0.2c0-0.2,0.9-2,1.1-2.2c0,0,0.1-0.2,0.2-0.4c0.1-0.2,0.2-0.4,0.2-0.4s0.1-0.1,0.1-0.2s0.1-0.2,0.1-0.2
		c0.1,0,0.2-0.2,0.3-0.3s0.2-0.4,0.4-0.6c0.1-0.2,0.3-0.4,0.4-0.4c0.1,0,0.2-0.1,0.2-0.2c0-0.2,1.2-1.3,1.3-1.3s0.1,0,0.1-0.1
		c0-0.1,0.8-0.6,1.1-0.7c0.1,0,0.3-0.1,0.4-0.2c0.1-0.1,0.6-0.1,1.1-0.2h0.9l0.1-0.5c0-0.3,0.1-0.6,0.2-0.7c0.2-0.3,0.3-1.5,0.1-1.7
		C-42.6,723.5-44.5,723.4-44.5,723.6 M-22.5,723.6c0,0.1-0.2,0.1-0.4,0.1c-0.5,0-1.6,0.2-1.6,0.3c0,0-0.2,0.1-0.4,0.2
		c-0.2,0-0.4,0.1-0.4,0.2c0,0-0.2,0.1-0.4,0.2s-0.5,0.2-0.5,0.2c-0.5,0.4-0.7,0.5-0.8,0.5s-0.3,0.2-0.4,0.3
		c-0.2,0.2-0.3,0.3-0.3,0.3s-0.3,0.2-0.6,0.5s-0.6,0.6-0.6,0.7s-0.2,0.3-0.5,0.6c-0.3,0.3-0.5,0.5-0.5,0.6c0,0-0.1,0.2-0.3,0.4
		c-0.1,0.2-0.3,0.4-0.4,0.4c0,0.1-0.2,0.3-0.2,0.5c-0.1,0.2-0.2,0.4-0.2,0.4s-0.2,0.3-0.4,0.6s-0.3,0.6-0.4,0.6
		c-0.1,0-0.7,1.2-0.7,1.4c0,0.1-0.1,0.1-0.1,0.1c-0.1,0,0-0.6,0.1-0.8c0-0.1,0.1-0.3,0.2-0.5c0-0.2,0.1-0.4,0.2-0.4
		c0,0,0.1-0.4,0.2-0.8c0.1-0.5,0.2-0.8,0.2-0.8s0.1-0.2,0.2-0.5c0-0.3,0.1-0.5,0.2-0.5c0,0,0.1-0.4,0.2-0.8c0.1-0.5,0.2-0.8,0.2-0.8
		s0.1-0.3,0.2-0.6c0-0.3,0.1-0.6,0.2-0.7c0.1-0.1,0.1-0.4,0.1-0.7v-0.6h-1.4c-1.6,0-1.7,0-1.8,0.8c0,0.3-0.1,0.7-0.2,0.7
		c0,0.1-0.1,0.5-0.2,0.9c0,0.4-0.1,0.8-0.2,0.8c0,0-0.1,0.6-0.2,1.2c-0.1,0.6-0.2,1.2-0.2,1.2s-0.1,0.3-0.2,0.8
		c0,0.4-0.1,0.8-0.2,0.8c0,0-0.1,0.5-0.2,1.2c-0.1,0.7-0.2,1.2-0.2,1.2s-0.1,0.4-0.2,0.8c0,0.4-0.1,0.8-0.1,0.9s-0.1,0.3,0,0.4
		c0,0.2,0,0.3-0.1,0.3s-0.1,0.4-0.2,0.9c0,0.5-0.1,0.9-0.2,0.9c0,0-0.1,0.6-0.2,1.2c-0.1,0.6-0.2,1.2-0.2,1.2s-0.1,0.3-0.2,0.8
		c0,0.4-0.1,0.8-0.2,0.8c0,0-0.1,0.5-0.2,1.2c-0.1,0.7-0.2,1.2-0.2,1.2s-0.1,0.4-0.2,0.8c0,0.4-0.1,0.8-0.2,0.9
		c0,0.1-0.1,0.4-0.2,0.7l-0.1,0.6h1.5c1.7,0,1.6,0.1,1.7-1.2c0.1-0.6,0.2-1,0.2-1s0.1-0.4,0.2-0.8c0-0.5,0.1-0.8,0.2-0.9
		c0,0,0.1-0.5,0.2-1.1c0.1-0.6,0.2-1,0.2-1s0.1-0.3,0.2-0.6c0-0.3,0.1-0.6,0.2-0.6c0,0,0.1-0.3,0.2-0.7c0.1-0.4,0.2-0.7,0.2-0.7
		c0.1,0,0.1-0.3,0.2-0.5c0.1-0.4,0.4-1.2,0.6-1.3c0,0,0.1-0.3,0.2-0.6c0.1-0.3,0.2-0.5,0.2-0.5c0.1,0,0.7-1.2,0.7-1.4
		c0-0.1,0-0.1,0.1-0.1s0.2-0.3,0.4-0.7c0.2-0.4,0.3-0.7,0.4-0.7c0.1,0,0.1-0.2,0.2-0.3c0-0.2,0.1-0.4,0.2-0.4c0.1,0,0.2-0.1,0.2-0.2
		c0-0.1,0.2-0.3,0.3-0.5c0.2-0.2,0.3-0.4,0.3-0.4v-0.1c0.5-0.6,0.7-0.8,0.7-0.9c0,0,0.2-0.3,0.5-0.6c0.3-0.3,0.5-0.5,0.5-0.6
		s0.6-0.7,0.7-0.7c0,0,0.2-0.1,0.4-0.3c0.2-0.2,0.4-0.3,0.4-0.3c0.1,0,0.2-0.1,0.3-0.2s0.3-0.2,0.3-0.2s0.2-0.1,0.3-0.1
		c0.1-0.1,0.3-0.2,0.4-0.2s0.3-0.1,0.3-0.2c0.1-0.2,2.5-0.2,2.6,0c0,0.1,0.1,0.1,0.2,0.1c0.1,0,0.2,0.1,0.2,0.2s0.1,0.2,0.2,0.2
		c0.1,0,0.2,0.1,0.2,0.2s0.1,0.2,0.2,0.2s0.1,0,0,0.1c0,0,0,0.1,0.1,0.2c0.3,0.4,0.2,5.2-0.1,5.2c0,0-0.1,0.4-0.2,0.8
		c0,0.4-0.1,0.8-0.2,0.9s-0.2,0.6-0.2,1.3c-0.1,0.6-0.2,1.2-0.2,1.2s-0.1,0.3-0.2,0.8c0,0.4-0.1,0.8-0.2,0.8c0,0-0.1,0.5-0.2,1.2
		c-0.1,0.7-0.2,1.2-0.2,1.2s-0.1,0.4-0.2,0.8c0,0.4-0.1,0.8-0.2,0.9c0,0.1-0.1,0.6-0.2,1.2c-0.1,0.6-0.2,1.1-0.2,1.1s-0.1,0.5-0.2,1
		c-0.1,0.5-0.1,1-0.2,1.1c0,0.1,0.2,0.2,1.5,0.2c1.7,0,1.6,0,1.6-0.8c0-0.2,0-0.3,0.1-0.3s0.1-0.4,0.2-0.8c0-0.4,0.1-0.8,0.2-0.9
		c0.1-0.1,0.2-0.6,0.2-1.3c0.1-0.6,0.2-1.2,0.2-1.2s0.1-0.3,0.1-0.7s0.1-0.8,0.2-0.8c0.1-0.2,0.3-1.6,0.3-2.1c0-0.2,0-0.3,0.1-0.3
		s0.1-0.3,0.2-0.8c0-0.4,0.1-0.8,0.2-0.8c0,0,0.1-0.5,0.2-1.2c0.1-0.7,0.2-1.2,0.2-1.2s0.1-0.3,0.2-0.7c0-0.4,0.1-0.8,0.2-0.8
		c0.4-0.5,0.4-6,0-6c0,0-0.1-0.2-0.2-0.4c0-0.2-0.1-0.4-0.2-0.4c-0.1,0-0.2-0.1-0.2-0.2c0-0.2-0.8-1-1-1c-0.1,0-0.1,0-0.1-0.1
		c0-0.2-1-0.6-1.7-0.6c-0.4,0-0.7-0.1-0.7-0.1c0-0.1-0.3-0.1-0.6-0.1C-22.2,723.5-22.5,723.5-22.5,723.6 M-103.1,723.8
		c-0.6,0.1-1.1,0.1-1.1,0.2c0,0-0.3,0.1-0.6,0.2c-0.3,0-0.6,0.1-0.6,0.2c0,0.1-0.3,0.1-0.5,0.2c-0.2,0-0.5,0.1-0.7,0.2
		c-0.1,0.1-0.4,0.2-0.5,0.2c-0.2,0-0.3,0.1-0.3,0.2c0,0.1-0.1,0.1-0.1,0.1c-0.2,0-1.7,1-1.7,1.1c0,0.1-0.1,0.1-0.1,0.1
		c-0.2,0-2.2,2-2.2,2.2c0,0.1-0.1,0.2-0.2,0.2s-0.2,0.2-0.3,0.3c-0.2,0.4-0.4,0.7-0.5,0.8s-0.7,1.2-0.7,1.4c0,0.1,0,0.1-0.1,0.1
		s-0.2,0.2-0.2,0.4c-0.1,0.2-0.2,0.4-0.2,0.4s-0.1,0.2-0.2,0.4c0,0.2-0.1,0.5-0.2,0.5c0,0-0.2,0.4-0.2,0.8c-0.1,0.4-0.2,0.7-0.2,0.7
		s-0.1,0.3-0.2,0.7c0,0.4-0.1,0.7-0.2,0.7c-0.4,0.3-0.4,7.3,0,7.8c0,0.1,0.1,0.3,0.2,0.5c0,0.2,0.1,0.4,0.2,0.4c0,0,0.1,0.1,0.2,0.3
		c0,0.2,0.2,0.4,0.3,0.4c0.1,0.1,0.2,0.2,0.2,0.2c0,0.2,0.5,0.7,0.6,0.7s0.1,0,0.1,0.1c0,0.2,0.9,0.6,1.4,0.6c0.3,0,0.5,0.1,0.5,0.2
		c0,0.1,1.7,0.1,1.8,0c0-0.1,0.2-0.1,0.4-0.1c0.4,0,1.4-0.2,1.4-0.3c0,0,0.2-0.1,0.4-0.2c0.2,0,0.4-0.1,0.4-0.2s0.2-0.1,0.3-0.2
		c0.2,0,0.4-0.1,0.4-0.2s0.1-0.2,0.2-0.2s0.2-0.1,0.2-0.1c0-0.1,0.2-0.2,0.4-0.3c0.2-0.1,0.3-0.2,0.3-0.2c0-0.1,0.1-0.1,0.1-0.1
		c0.2,0,1.8-1.7,1.8-1.8c0-0.1,0.1-0.2,0.1-0.2c0.3-0.2,1.5-1.9,1.5-2.1c0-0.1,0-0.1,0.1-0.1s0.2-0.3,0.4-0.6
		c0.2-0.3,0.3-0.6,0.4-0.6c0,0,0.1-0.2,0.2-0.4c0.1-0.2,0.2-0.4,0.2-0.4s0.1-0.1,0.2-0.3c0-0.2,0.1-0.4,0.2-0.5
		c0.2-0.1,0.2-0.1,0.1,0.2c0,0.2-0.1,0.4-0.2,0.4c0,0-0.1,0.4-0.2,0.8c-0.1,0.4-0.2,0.7-0.2,0.7c-0.1,0-0.1,0.2-0.2,0.5
		c0,0.3-0.1,0.5-0.2,0.5c0,0-0.1,0.2,0,0.3c0,0.1,0,0.2-0.1,0.2s-0.1,0.2-0.2,0.5c0,0.3-0.1,0.5-0.2,0.5c0,0-0.2,0.5-0.2,0.9
		c-0.1,0.5-0.2,0.9-0.2,0.9s-0.1,0.3-0.2,0.6s-0.1,0.6-0.2,0.6c0,0-0.1,0.3-0.2,0.6l-0.1,0.5h1.6h1.6l0.1-0.7c0-0.4,0.1-0.7,0.2-0.7
		c0,0,0.1-0.6,0.2-1.3c0.1-0.7,0.2-1.3,0.2-1.3s0.1-0.3,0.2-0.8c0-0.4,0.1-0.8,0.2-0.8c0,0,0.1-0.5,0.2-1.2s0.2-1.2,0.2-1.2
		s0.1-0.4,0.2-0.9s0.1-0.9,0.2-0.9c0,0,0.1-0.5,0.2-1.1c0.1-0.6,0.2-1.1,0.2-1.2c0,0,0.1-0.4,0.2-0.9c0-0.5,0.1-0.8,0.2-0.8
		c0,0,0.1-0.5,0.2-1.2c0.1-0.6,0.2-1.2,0.2-1.2s0.1-0.4,0.2-0.8c0-0.5,0.1-0.8,0.2-0.9c0,0,0.2-0.5,0.2-1.2c0-0.7,0.2-1.1,0.2-1.1
		s0.1-0.5,0.2-1.2s0.2-1.2,0.2-1.2c0.1,0,0.1-0.2,0.1-0.4v0.4l-0.8-0.1c-0.4,0-0.8-0.1-0.9-0.2C-96.4,723.8-101.3,723.7-103.1,723.8
		 M-74.2,723.8c-0.6,0.1-1.2,0.1-1.2,0.2c0,0-0.3,0.1-0.6,0.2c-0.3,0-0.5,0.1-0.5,0.2c0,0.1-0.2,0.1-0.5,0.2
		c-0.3,0.1-0.5,0.1-0.6,0.2c-0.1,0.1-0.3,0.2-0.5,0.2s-0.4,0.1-0.4,0.2c0,0-0.2,0.1-0.4,0.2c-0.2,0.1-0.4,0.2-0.4,0.2
		s-0.1,0.1-0.2,0.1s-0.2,0.1-0.2,0.2s-0.1,0.2-0.2,0.2s-0.2,0.1-0.4,0.2c-0.1,0.1-0.3,0.2-0.3,0.2c-0.1,0-2.3,2.2-2.3,2.3
		s-0.1,0.1-0.2,0.2c-0.1,0-0.2,0.1-0.2,0.2s-0.1,0.3-0.2,0.4c-0.1,0.1-0.3,0.3-0.3,0.4s-0.2,0.3-0.2,0.5c-0.1,0.2-0.2,0.4-0.2,0.4
		s-0.1,0.2-0.2,0.4c-0.1,0.2-0.2,0.4-0.2,0.4s-0.1,0.2-0.2,0.4c0,0.2-0.1,0.4-0.2,0.4c0,0-0.1,0.3-0.2,0.6s-0.2,0.6-0.2,0.6
		s-0.1,0.2-0.2,0.5c0,0.3-0.1,0.6-0.2,0.6s-0.2,0.5-0.2,1.1c-0.1,0.6-0.2,1.1-0.2,1.2c-0.2,0.1-0.2,6.2,0,6.6
		c0.1,0.1,0.2,0.5,0.3,0.8c0.1,0.3,0.2,0.6,0.2,0.6s0.1,0.1,0.2,0.3c0,0.2,0.1,0.3,0.2,0.4c0.1,0,0.2,0.1,0.2,0.2s0.1,0.3,0.3,0.4
		c0.2,0.1,0.4,0.3,0.5,0.4c0.4,0.3,1,0.6,1.5,0.7c0.3,0,0.6,0.1,0.6,0.2c0.1,0.1,1.8,0.1,1.8,0c0,0,0.4-0.1,0.8-0.2s0.9-0.2,1-0.2
		c0.1-0.1,0.5-0.2,0.8-0.4c0.3-0.2,0.6-0.3,0.6-0.4s0-0.1,0.1-0.1c0.2,0,0.9-0.5,1-0.7c0-0.1,0.1-0.2,0.2-0.2s1.7-1.5,1.7-1.7
		c0,0,0.1-0.2,0.3-0.4c0.2-0.2,0.3-0.4,0.3-0.4c0-0.1,0.1-0.2,0.2-0.2c0.1-0.1,0.2-0.2,0.2-0.3s0.1-0.3,0.5-0.8
		c0.1-0.1,0.1-0.3,0.2-0.4c0-0.2,0.1-0.3,0.2-0.4c0.1,0,0.2-0.3,0.3-0.5c0.1-0.2,0.2-0.4,0.2-0.4c0.1-0.1,0.6-1.1,0.6-1.3
		c0-0.1,0.1-0.1,0.1-0.1c0.1,0,0,0.9-0.1,1c-0.1,0-0.1,0.3-0.2,0.5c0,0.3-0.1,0.6-0.2,0.8c-0.1,0.2-0.2,0.5-0.2,0.8
		c0,0.3-0.1,0.5-0.2,0.5c0,0-0.2,0.4-0.2,0.8c-0.1,0.5-0.2,0.8-0.2,0.8s-0.1,0.2-0.2,0.5c-0.1,0.3-0.1,0.6-0.2,0.6
		c-0.1,0.1-0.2,0.5-0.2,1c-0.1,0.5-0.2,0.9-0.2,0.9c-0.4,0.3,0.1,0.4,1.6,0.4h1.5v-0.3c0-0.2,0-0.4,0.1-0.4s0.2-0.6,0.2-1.2
		c0.1-0.6,0.2-1.2,0.2-1.2s0.1-0.5,0.2-1.2c0.1-0.6,0.2-1.2,0.2-1.3c0.1-0.1,0.1-0.5,0.2-0.9c0-0.4,0.1-0.8,0.2-0.8
		c0,0,0.1-0.5,0.2-1.2c0.1-0.6,0.2-1.2,0.2-1.2s0.1-0.4,0.2-0.8c0-0.5,0.1-0.8,0.2-0.8c0,0,0.1-0.5,0.2-1.2c0.1-0.6,0.2-1.2,0.2-1.2
		s0.1-0.4,0.2-0.8c0-0.5,0.1-0.8,0.2-0.8c0,0,0.1-0.5,0.2-1.2c0.1-0.6,0.2-1.2,0.2-1.2s0.1-0.4,0.2-0.8c0-0.5,0.1-0.8,0.2-0.9
		c0,0,0.1-0.5,0.2-1.1c0.1-0.6,0.2-1.1,0.2-1.1s0.1-0.4,0.2-0.8l0.1-0.7l-0.8-0.1c-0.4,0-0.9-0.1-0.9-0.2
		C-67.4,723.8-72.1,723.7-74.2,723.8 M1.9,723.8c-0.3,0.1-0.6,0.1-0.7,0.2c-0.1,0.1-0.2,0.1-0.3,0.1s-0.7,0.2-1.3,0.5
		c-1.4,0.7-1.6,0.8-1.6,0.9c0,0.1-0.1,0.1-0.1,0.1c-0.1,0-0.3,0.1-0.4,0.3c-0.1,0.1-0.3,0.3-0.4,0.3c-0.1,0-1.1,1-1.1,1.1
		c0,0-0.2,0.3-0.4,0.5c-0.6,0.7-0.6,0.7-0.8,1c-0.1,0.1-0.2,0.4-0.3,0.6s-0.2,0.4-0.3,0.4s-0.1,0.1-0.2,0.3c0,0.2-0.1,0.3-0.2,0.3
		c0,0-0.1,0.2-0.2,0.4c-0.1,0.2-0.2,0.4-0.2,0.4c-0.1,0-0.1,0.1-0.1,0.2c0,0.1-0.1,0.4-0.2,0.6c-0.1,0.3-0.2,0.7-0.3,0.9
		c0,0.3-0.1,0.5-0.2,0.5s-0.1,0.2-0.2,0.5c0,0.3-0.1,0.5-0.2,0.6c-0.1,0.1-0.3,1.5-0.3,2.1c0,0.2-0.1,0.4-0.1,0.4
		c-0.2,0.1-0.2,5.5,0,5.7c0.1,0,0.2,0.3,0.2,0.6c0,0.3,0.1,0.6,0.2,0.7c0.1,0.1,0.2,0.3,0.2,0.4s0.1,0.2,0.1,0.3
		c0.1,0,0.2,0.2,0.3,0.4c0.2,0.4,0.8,1,1,1.1c0.1,0,0.2,0.1,0.2,0.2s0.2,0.2,0.4,0.2c0.2,0.1,0.4,0.2,0.4,0.2s0.2,0.1,0.4,0.1
		s0.4,0.1,0.4,0.2c0,0.1,1.6,0.3,2.4,0.3c0.4,0,0.7,0,0.7,0.1s0.2,0.1,0.4,0.1s0.4,0,0.4-0.1s0.4-0.1,0.9-0.1c1.1,0,3-0.2,3.2-0.3
		c0.1-0.1,0.4-0.1,0.7-0.2c0.3,0,0.6-0.1,0.6-0.2c0,0,0.3-0.1,0.7-0.2c0.4-0.1,0.7-0.2,0.7-0.2s0.1-0.1,0.2-0.1
		c0.1,0,0.2-0.2,0.2-1.3c0-1.2,0-1.3-0.2-1.3c-0.1,0-0.3,0.1-0.5,0.1s-0.3,0.1-0.3,0.1s-0.3,0.1-0.6,0.2s-0.7,0.2-0.7,0.2
		c-0.1,0-0.4,0.1-0.8,0.2c-0.4,0-0.7,0.1-0.8,0.2c-0.2,0.2-4.9,0.2-5,0c0-0.1-0.3-0.2-0.5-0.2c-1-0.2-2.1-1.5-2.1-2.4
		c0-0.2-0.1-0.4-0.1-0.4c-0.2-0.1-0.2-4.1,0-4.3c0.1-0.1,0.1-0.3,0.1-0.5v-0.4l1.9-0.1c1.1,0,2-0.1,2-0.2c0,0,0.6-0.1,1.3-0.2
		s1.3-0.2,1.4-0.2c0.1-0.1,0.6-0.2,1-0.2c0.5-0.1,0.9-0.2,0.9-0.2c0.1,0,0.3-0.1,0.5-0.2c0.2,0,0.4-0.1,0.4-0.2c0,0,0.3-0.1,0.6-0.2
		s0.6-0.2,0.6-0.2s0.1-0.1,0.3-0.2c0.2,0,0.3-0.1,0.3-0.1s0.1-0.1,0.3-0.2c0.6-0.3,0.9-0.5,0.9-0.6s0.1-0.1,0.1-0.1
		c0.3,0,1.9-1.9,1.9-2.3c0-0.1,0-0.2,0.1-0.2c0.4-0.1,0.4-4.3,0-4.3c0,0-0.1-0.1-0.1-0.3c-0.1-0.3-1.3-1.6-1.7-1.7
		c-0.2-0.1-0.3-0.2-0.3-0.2s-0.2-0.1-0.4-0.2c-0.2,0-0.4-0.1-0.4-0.2C7,723.7,3.3,723.6,1.9,723.8 M5.2,726.2
		c0.4,0.1,0.7,0.2,0.7,0.3s0.1,0.2,0.2,0.2c0.2,0,1,0.9,1.1,1.2c0,0.2,0.1,0.3,0.2,0.3c0.1,0,0.1,1.4,0,1.6
		c-0.1,0.1-0.2,0.3-0.2,0.5c-0.3,0.7-0.7,1.1-1.4,1.5c-0.2,0.1-0.5,0.3-0.5,0.4s-0.1,0.1-0.2,0.1c-0.1,0-0.6,0.2-0.8,0.3
		c-0.1,0-0.4,0.1-0.6,0.2c-0.2,0-0.4,0.1-0.4,0.2c0,0-0.4,0.1-1,0.2c-0.5,0.1-1,0.2-1,0.2c-0.1,0.1-2.7,0.3-3.5,0.3
		c-0.3,0-0.7,0-0.7,0.1c-0.1,0.2-1.2,0.1-1.2,0s0-0.2,0.1-0.2c0.1,0,0.2-0.3,0.2-0.7s0.2-0.8,0.3-1s0.2-0.4,0.2-0.5s0.1-0.3,0.3-0.6
		c0.2-0.2,0.3-0.5,0.3-0.6s0.1-0.2,0.2-0.3c0.8-1,1.1-1.4,1.2-1.4c0.1,0,0.1-0.1,0.1-0.2c0-0.1,0.1-0.2,0.2-0.2
		c0.1,0,0.3-0.2,0.5-0.4s0.4-0.4,0.5-0.4s0.2-0.1,0.2-0.2c0-0.1,0.2-0.2,0.4-0.2s0.3-0.1,0.3-0.2c0-0.1,0.2-0.1,0.4-0.2
		c0.2,0,0.4-0.1,0.4-0.2C1.9,726.2,4.1,726,5.2,726.2 M-127.3,726.7c0.6,0.6,0.9,1.1,1,1.8c0,0.3,0.1,0.6,0.2,0.6
		c0.1,0.1,0.1,4.2,0,4.4c-0.1,0.1-0.2,0.7-0.2,1.3c-0.1,0.6-0.2,1.1-0.2,1.2s-0.1,0.4-0.2,0.7s-0.2,0.6-0.2,0.6s-0.1,0.2-0.2,0.4
		c-0.1,0.4-0.8,1.9-1,2.1c-0.1,0.1-0.2,0.3-0.2,0.4s-0.1,0.3-0.2,0.3c-0.1,0-0.1,0.1-0.2,0.2c-0.1,0.3-1.6,2-1.7,2
		c-0.1,0-0.3,0.2-0.9,0.7c-0.1,0.1-0.1,0.1-0.1,0.1s-0.2,0.1-0.5,0.3c-0.2,0.2-0.6,0.4-0.8,0.4c-0.2,0-0.4,0.1-0.4,0.2
		c0,0-0.2,0.1-0.5,0.2c-0.3,0-0.5,0.1-0.5,0.2c-0.1,0.2-4.6,0.2-4.7,0c0-0.1-0.3-0.2-0.6-0.2c-0.6-0.1-1.3-0.6-0.7-0.6
		c0,0,0.1-0.5,0.2-1.1c0.1-0.6,0.2-1.1,0.2-1.2c0.1-0.1,0.1-0.4,0.2-0.7c0-0.3,0.1-0.6,0.2-0.6c0,0,0.1-0.3,0.2-0.7
		c0.1-0.4,0.2-0.7,0.2-0.7s0.1-0.2,0.2-0.4c0-0.2,0.1-0.5,0.2-0.6c0.1-0.1,0.2-0.3,0.2-0.5c0-0.1,0.1-0.3,0.2-0.4
		c0.1-0.1,0.2-0.2,0.2-0.3c0-0.1,0.2-0.5,0.4-0.9c0.6-1.2,0.7-1.4,0.6-1.5c0,0,0-0.1,0.1-0.1c0.1,0,0.1-0.1,0.1-0.2s0.1-0.2,0.2-0.3
		c0.1-0.1,0.2-0.3,0.3-0.6c0.1-0.2,0.2-0.4,0.2-0.4c0.1,0,0.1-0.1,0.1-0.2s0.1-0.2,0.1-0.2c0.1,0,0.2-0.2,0.3-0.4
		c0.1-0.2,0.2-0.4,0.2-0.4s0.1-0.1,0.1-0.2s0.1-0.2,0.2-0.2c0.1,0,0.2-0.1,0.2-0.2s0.1-0.3,0.7-0.9c0.1-0.1,0.1-0.2,0.1-0.2
		c0-0.1,0.1-0.2,0.3-0.4c0.2-0.2,0.3-0.4,0.3-0.4c0-0.1,1.2-1.3,1.3-1.3c0,0,0.2-0.1,0.3-0.3c0.1-0.2,0.3-0.3,0.4-0.3
		c0.1,0,0.2-0.1,0.2-0.2c0-0.1,0.2-0.2,0.4-0.2s0.3-0.1,0.3-0.2c0,0,0.2-0.1,0.4-0.2C-129.1,726.1-127.9,726.1-127.3,726.7
		 M-98.7,726.4c0,0.1,0.2,0.1,0.4,0.2h0.3v0.7c0,0.4-0.1,0.7-0.1,0.8c0,0-0.1,0.5-0.2,1s-0.2,1-0.2,1c-0.1,0-0.1,0.3-0.2,0.6
		c0,0.3-0.1,0.5-0.2,0.5c0,0-0.1,0.2-0.2,0.5c0,0.3-0.1,0.6-0.2,0.8c-0.1,0.1-0.2,0.4-0.2,0.6s-0.1,0.5-0.2,0.5
		c-0.1,0.1-0.2,0.2-0.2,0.3s-0.1,0.4-0.3,0.7c-0.2,0.3-0.3,0.6-0.3,0.7s0,0.2-0.1,0.2s-0.1,0.1-0.2,0.3c0,0.2-0.1,0.3-0.2,0.3
		c0,0-0.1,0.2-0.2,0.4c-0.1,0.2-0.2,0.4-0.2,0.4s-0.1,0.2-0.2,0.3c0,0.2-0.1,0.4-0.2,0.4s-0.2,0.2-0.2,0.4c0,0.2-0.1,0.3-0.2,0.4
		c-0.1,0-0.2,0.1-0.2,0.2c0,0.1,0,0.2-0.1,0.2s-0.2,0.2-0.2,0.4c-0.1,0.2-0.2,0.4-0.2,0.4s-0.1,0.1-0.2,0.3
		c-0.1,0.2-0.2,0.3-0.2,0.3c-0.1,0-0.1,0.1-0.1,0.1c0,0.1-0.1,0.2-0.2,0.3s-0.2,0.3-0.2,0.3c0,0.1-0.1,0.2-0.3,0.4
		c-0.2,0.1-0.3,0.3-0.3,0.4c0,0.2-1.3,1.5-1.5,1.5c-0.1,0-0.1,0-0.1,0.1c0,0.1-0.8,0.6-1.1,0.7c-0.1,0-0.2,0.1-0.2,0.2
		c0,0.1-0.1,0.1-0.3,0.2c-0.2,0-0.3,0.1-0.4,0.2c-0.1,0.2-2.3,0.2-2.5-0.1c-0.1-0.1-0.2-0.2-0.3-0.2c-0.1,0-0.2-0.2-0.6-0.9
		c-0.1-0.2-0.2-0.3-0.2-0.3c-0.4-0.3-0.4-6.9,0-7.4c0.1-0.1,0.1-0.3,0.2-0.6c0-0.3,0.1-0.5,0.2-0.6c0-0.1,0.1-0.4,0.2-0.7
		s0.2-0.6,0.2-0.6s0.1-0.2,0.2-0.5c0.1-0.3,0.2-0.5,0.2-0.5s0.2-0.3,0.4-0.7c0.2-0.4,0.3-0.7,0.4-0.7s0.1,0,0.1-0.1
		c0-0.2,0.5-0.9,0.7-1c0.1,0,0.2-0.1,0.2-0.2c0-0.2,0.9-1.1,1-1.1s0.2-0.1,0.4-0.3c0.1-0.2,0.4-0.4,0.6-0.4s0.3-0.1,0.4-0.2
		c0-0.1,0.1-0.2,0.2-0.2s0.2,0,0.2-0.1c0-0.1,0.2-0.2,0.5-0.2c0.3-0.1,0.5-0.2,0.5-0.2s0.2-0.1,0.4-0.2c0.2,0,0.4-0.1,0.4-0.2
		C-104,726.2-98.8,726.2-98.7,726.4 M-69.7,726.4c0,0.1,0.2,0.1,0.4,0.1c0.2,0,0.3,0,0.4,0.1s-0.2,2.1-0.3,2.1c0,0-0.1,0.3-0.2,0.7
		c0,0.4-0.1,0.7-0.2,0.7c0,0-0.1,0.3-0.2,0.7s-0.2,0.8-0.2,0.8s-0.1,0.2-0.2,0.4c0,0.2-0.1,0.4-0.2,0.5c0,0.1-0.1,0.3-0.2,0.5
		s-0.2,0.6-0.3,0.8c-0.5,1.1-0.6,1.3-0.6,1.5c0,0.1,0,0.1-0.1,0.1s-0.1,0.1-0.1,0.2c0,0.2-0.6,1.4-0.7,1.5c-0.1,0-0.2,0.2-0.2,0.4
		s-0.1,0.3-0.2,0.3s-0.1,0.1-0.2,0.3c0,0.2-0.1,0.3-0.2,0.4c-0.1,0-0.2,0.2-0.2,0.4c0,0.2-0.1,0.4-0.2,0.4s-0.2,0.1-0.2,0.2
		c0,0.1-0.1,0.2-0.1,0.2c-0.1,0-0.1,0.1-0.2,0.2c-0.1,0.2-0.4,0.7-0.7,1c-0.1,0.1-0.2,0.2-0.2,0.3c0,0-0.1,0.2-0.3,0.4
		c-0.2,0.2-0.3,0.4-0.3,0.4c0,0.1-0.9,1-1.2,1.2c-0.2,0.1-0.3,0.3-0.4,0.4s-0.2,0.2-0.3,0.2c-0.1,0-0.2,0-0.2,0.1
		c0,0.1-0.2,0.2-0.4,0.2c-0.2,0.1-0.4,0.2-0.4,0.2s-0.1,0.1-0.3,0.2c-0.2,0-0.3,0.1-0.4,0.2c-0.2,0.3-2,0.2-2.5,0
		c-0.5-0.3-1-1-1.1-1.5c0-0.2-0.1-0.4-0.2-0.5c-0.2-0.2-0.2-5.7,0-6.1c0.1-0.1,0.2-0.6,0.3-1.1c0.1-0.4,0.2-0.9,0.2-0.9
		c0.1-0.1,0.1-0.3,0.2-0.6c0-0.3,0.1-0.5,0.2-0.5s0.2-0.3,0.2-0.5c0.1-0.3,0.2-0.5,0.2-0.5c0.1-0.1,0.4-0.7,0.4-0.8
		c0,0,0-0.1,0.1-0.1s0.1-0.1,0.2-0.3c0-0.2,0.1-0.3,0.2-0.3s0.1-0.1,0.2-0.2c0-0.1,0.2-0.4,0.4-0.6c0.2-0.3,0.4-0.5,0.4-0.5
		c0-0.1,1.3-1.4,1.4-1.4s0.2-0.1,0.2-0.1c0.1-0.2,0.7-0.6,1-0.7c0.1,0,0.2-0.1,0.2-0.2c0-0.1,0.2-0.2,0.5-0.2
		c0.3-0.1,0.5-0.2,0.5-0.2s0.2-0.1,0.4-0.2c0.2,0,0.5-0.1,0.5-0.2C-74.7,726.2-69.8,726.2-69.7,726.4"/>
	<path id="path9" style="fill:#00B0F0;" d="M-161.5,684.4c-0.5,0.1-0.8,0.1-0.9,0.2c0,0-0.5,0.1-1,0.2s-1,0.2-1,0.2
		s-0.2,0.1-0.5,0.2c-0.3,0-0.5,0.1-0.5,0.1s-0.3,0.1-0.7,0.2c-0.4,0.1-0.7,0.2-0.7,0.2s-0.2,0.1-0.4,0.2c-0.2,0-0.6,0.2-0.8,0.3
		c-0.2,0.1-0.5,0.2-0.6,0.2c-0.1,0-0.2,0-0.2,0.1s-0.2,0.1-0.4,0.2s-0.5,0.2-0.6,0.3c-0.1,0.1-0.2,0.2-0.3,0.2c-0.1,0-0.2,0-0.2,0.1
		c0,0.1-0.1,0.2-0.3,0.2c-0.2,0.1-0.4,0.2-0.5,0.3c-0.3,0.3-0.4,0.4-0.8,0.5c-0.2,0.1-0.5,0.3-0.6,0.4c-0.2,0.2-0.5,0.5-0.8,0.7
		c-0.6,0.5-1.2,1.1-1.7,1.7c-0.2,0.3-0.5,0.6-0.7,0.8c-0.2,0.2-0.4,0.5-0.5,0.7s-0.2,0.4-0.3,0.4c-0.1,0-0.1,0.2-0.1,0.2
		s0,0.2-0.1,0.2c0,0-0.2,0.2-0.2,0.4c-0.1,0.2-0.2,0.4-0.2,0.4s-0.1,0.2-0.2,0.5c-0.1,0.3-0.2,0.5-0.2,0.5c-0.1,0-0.1,0.1-0.1,0.2
		c0,0.1-0.1,0.3-0.2,0.4c-0.1,0.1-0.2,0.5-0.3,0.8c-0.1,0.3-0.2,0.6-0.2,0.6s-0.1,0.2-0.2,0.4c0,0.2-0.1,0.5-0.2,0.5
		c-0.1,0.1-0.2,0.6-0.2,1.1s-0.2,1-0.2,1s-0.1,0.6-0.2,1.3c0,0.7-0.1,1.3-0.2,1.3c-0.1,0.1-0.1,3.9,0,3.9c0.1,0,0.1,0.7,0.2,1.5
		c0,0.8,0.1,1.5,0.2,1.5c0,0,0.1,0.7,0.2,1.4c0.1,0.7,0.2,1.3,0.2,1.4c0,0,0.1,0.4,0.2,0.7c0,0.4,0.1,0.7,0.2,0.7
		c0,0,0.1,0.4,0.2,0.9c0.1,0.5,0.2,0.9,0.2,0.9s0.1,0.2,0.2,0.5c0,0.3,0.1,0.5,0.2,0.5c0,0,0.1,0.3,0.2,0.7c0.1,0.4,0.2,0.7,0.2,0.7
		s0.1,0.3,0.2,0.7s0.2,0.7,0.2,0.7c0.1,0,0.1,0.1,0.1,0.2s0.1,0.4,0.2,0.7c0.1,0.2,0.2,0.5,0.2,0.6c0,0.1,0.1,0.3,0.2,0.4
		c0.1,0.1,0.2,0.4,0.2,0.6c0,0.3,0.1,0.5,0.2,0.5s0.1,0.3,0.2,0.7c0.1,0.4,0.2,0.7,0.2,0.8s0.1,0.4,0.2,0.7c0,0.3,0.1,0.6,0.2,0.6
		s0.2,0.6,0.2,1.3c0.1,0.7,0.2,1.2,0.2,1.2s0.1,0.8,0.1,1.9c0,1,0,1.9-0.1,1.9c-0.1,0-0.1,0.4-0.2,1c-0.1,0.5-0.2,1-0.2,1
		c-0.1,0-0.1,0.2-0.2,0.4c0,0.2-0.1,0.4-0.2,0.4c0,0-0.1,0.2-0.2,0.3c0,0.2-0.1,0.4-0.2,0.4s-0.2,0.1-0.2,0.2c0,0.1-0.1,0.2-0.2,0.2
		c-0.1,0-0.2,0.1-0.2,0.2c0,0.2-1,1.2-1.4,1.4c-0.2,0.1-0.4,0.2-0.5,0.3c-0.1,0.1-0.2,0.2-0.3,0.2c-0.1,0.1-0.4,0.2-0.7,0.3
		c-0.3,0.1-0.5,0.2-0.5,0.2s-0.2,0.1-0.5,0.2c-0.3,0-0.6,0.1-0.6,0.2c-0.1,0.2-5.4,0.2-5.5,0c0-0.1-0.5-0.2-0.9-0.2
		c-0.5,0-0.8-0.1-0.8-0.2c0,0-0.4-0.1-0.9-0.2s-0.9-0.2-0.9-0.2s-0.2-0.1-0.5-0.2c-0.3,0-0.5-0.1-0.5-0.2c0,0-0.3-0.2-0.7-0.2
		c-0.4-0.1-0.7-0.2-0.7-0.2s-0.2-0.1-0.4-0.2c-0.2,0-0.4-0.1-0.4-0.2s-0.2-0.1-0.5-0.2c-0.5-0.1-1.2-0.4-1.3-0.6
		c0,0-0.3-0.1-0.6-0.2c-0.3-0.1-0.5-0.2-0.5-0.2s-0.2-0.1-0.4-0.2c-0.2-0.1-0.4-0.2-0.4-0.2s-0.1-0.1-0.3-0.2
		c-0.2,0-0.3-0.1-0.3-0.2c0-0.1-0.2-0.2-0.4-0.2c-0.2-0.1-0.4-0.2-0.5-0.2c0,0-0.3-0.2-0.7-0.4c-0.3-0.2-0.6-0.4-0.6-0.4
		s-0.1-0.1-0.3-0.1s-0.3-0.1-0.4-0.2c0-0.1-0.2-0.2-0.4-0.2c-0.2,0-0.4-0.1-0.4-0.2s-0.1-0.2-0.2-0.2c-0.1,0-0.2,0-0.2-0.1
		c0-0.1-0.2-0.2-0.4-0.2c-0.2-0.1-0.4-0.2-0.4-0.3s-0.2-0.2-0.4-0.2c-0.2,0-0.4-0.1-0.4-0.2c0-0.1-0.1-0.2-0.2-0.2
		c-0.1,0-0.2,0-0.2-0.1s-0.1-0.2-0.3-0.2c-0.2-0.1-0.3-0.2-0.3-0.2s-0.1-0.1-0.2-0.1c-0.1,0-0.2-0.1-0.2-0.1c0-0.1-0.2-0.2-0.4-0.3
		c-0.2-0.1-0.5-0.3-0.6-0.5c-0.2-0.2-0.4-0.3-0.6-0.4c-0.1,0-0.3-0.2-0.4-0.3c-0.1-0.1-0.2-0.2-0.3-0.2c-0.1,0-0.2-0.1-0.4-0.3
		c-0.2-0.2-0.3-0.3-0.4-0.3s-0.2-0.1-0.3-0.2c-0.1-0.1-0.2-0.2-0.3-0.2c-0.1,0-0.2-0.1-0.4-0.3c-0.2-0.2-0.3-0.3-0.3-0.3
		s-0.2-0.1-0.4-0.3c-0.2-0.2-0.4-0.3-0.4-0.3c-0.1,0-0.3-0.2-0.5-0.4c-0.6-0.6-0.8-0.7-0.9-0.7c-0.1,0,0.1,0.6,0.2,0.7
		c0.1,0.1,0.2,0.3,0.3,0.4c0.1,0.2,0.2,0.4,0.3,0.4s0.1,0.2,0.1,0.2c0,0.1,0,0.2,0.1,0.2c0,0,0.2,0.2,0.2,0.4
		c0.1,0.2,0.2,0.4,0.2,0.4s0.2,0.3,0.4,0.6c0.2,0.3,0.3,0.6,0.4,0.6c0.2,0.2,0.6,0.8,0.6,1s0.1,0.3,0.2,0.3c0.1,0,0.1,0.1,0.2,0.3
		c0.1,0.2,0.2,0.3,0.2,0.3c0.1,0,0.1,0.1,0.2,0.3c0,0.2,0.1,0.3,0.2,0.3s0.2,0.1,0.2,0.3c0.1,0.2,0.2,0.3,0.2,0.3
		c0.1,0,0.1,0.1,0.1,0.2s0.1,0.2,0.2,0.2c0.1,0,0.2,0.2,0.2,0.4c0,0.2,0.1,0.4,0.2,0.4c0.1,0,0.2,0.1,0.2,0.2s0.5,1,0.7,1.1
		c0,0,0.1,0.2,0.2,0.4c0.1,0.2,0.2,0.4,0.2,0.4s0.1,0.1,0.2,0.2c0.1,0.1,0.1,0.3,0.2,0.4c0.2,0.3,0.6,1,0.6,1.1c0,0.1,0,0.1,0.1,0.1
		c0.1,0,0.2,0.2,0.3,0.4c0.2,0.5,0.4,0.8,0.6,0.9c0.1,0,0.2,0.2,0.2,0.4c0,0.2,0.1,0.3,0.2,0.3c0.1,0,0.2,0.1,0.2,0.3
		c0.1,0.2,0.2,0.3,0.2,0.3c0.1,0,0.1,0.1,0.1,0.1c0,0.1,0.1,0.3,0.2,0.4c0.1,0.1,0.2,0.3,0.2,0.4s0.1,0.2,0.2,0.2
		c0.1,0,0.2,0.1,0.2,0.2s0.1,0.2,0.2,0.4c0.1,0.1,0.2,0.3,0.2,0.4s0.1,0.2,0.2,0.4c0.4,0.4,0.5,0.7,0.8,1.3c0.1,0.2,0.3,0.3,0.5,0.4
		c0.2,0,0.3,0.1,0.3,0.1s0.2,0.1,0.5,0.2c0.3,0.1,0.5,0.2,0.5,0.2c0,0.1,0.2,0.1,0.4,0.2c0.2,0,0.4,0.1,0.4,0.2c0,0,0.3,0.2,0.6,0.2
		c0.3,0.1,0.6,0.2,0.6,0.2s0.2,0.1,0.4,0.2c0.2,0,0.4,0.1,0.5,0.2c0.1,0,0.4,0.1,0.7,0.2c0.3,0.1,0.6,0.2,0.6,0.2s0.2,0.1,0.5,0.2
		c0.3,0,0.5,0.1,0.5,0.2c0,0,0.4,0.1,0.8,0.2c0.4,0.1,0.9,0.2,1,0.2c0.1,0.1,0.6,0.2,1.2,0.2c0.6,0.1,1,0.2,1.1,0.2
		c0,0,0.7,0.1,1.4,0.2c0.7,0,1.3,0.1,1.3,0.2c0,0.1,1,0.1,2.1,0.1c1.1,0,2.1,0,2.1-0.1c0-0.1,0.5-0.1,1.2-0.2c0.6,0,1.2-0.1,1.2-0.2
		c0-0.1,0.2-0.1,0.4-0.1c0.5,0,1.9-0.3,1.9-0.3s0.2-0.1,0.5-0.2c0.3,0,0.7-0.1,0.8-0.2c0.2-0.1,0.5-0.2,0.7-0.2s0.4-0.1,0.4-0.2
		s0.2-0.1,0.5-0.2c0.3-0.1,0.5-0.2,0.5-0.2c0-0.1,0.1-0.1,0.3-0.2c0.2,0,0.3-0.1,0.3-0.2s0.1-0.1,0.1-0.1c0.2,0,1.2-0.5,1.3-0.6
		c0,0,0.2-0.1,0.4-0.2c0.2-0.1,0.4-0.2,0.4-0.3c0-0.1,0.1-0.1,0.2-0.1c0.1,0,0.2-0.1,0.3-0.2c0.5-0.5,1.1-0.9,1.2-0.9
		c0.1,0,1.4-1.3,1.4-1.4c0,0,0.2-0.3,0.5-0.6c0.3-0.3,0.5-0.6,0.5-0.6c0-0.1,0.1-0.3,0.3-0.5c0.4-0.5,0.9-1.6,0.9-1.8
		c0-0.1,0-0.2,0.1-0.2c0.1,0,0.1-0.2,0.2-0.4c0-0.2,0.1-0.5,0.2-0.5c0.1-0.1,0.3-1.4,0.3-2c0-0.3,0.1-0.5,0.1-0.5
		c0.1,0,0.1-0.6,0.1-1.6s0-1.6-0.1-1.6c-0.1,0-0.1-0.2-0.1-0.4c0-0.6-0.2-2.2-0.3-2.2c0,0-0.1-0.2-0.2-0.5c0-0.3-0.1-0.5-0.2-0.5
		c-0.1,0-0.1-0.3-0.2-0.7s-0.2-0.7-0.2-0.7s-0.1-0.2-0.2-0.5c-0.1-0.3-0.2-0.5-0.2-0.5s-0.1-0.2-0.2-0.4c0-0.2-0.1-0.4-0.2-0.4
		c0,0-0.2-0.2-0.2-0.4c-0.1-0.2-0.2-0.4-0.2-0.4s-0.1-0.2-0.2-0.4c0-0.2-0.1-0.4-0.2-0.4c0,0-0.1-0.2-0.2-0.4
		c-0.1-0.2-0.2-0.4-0.2-0.4s-0.1-0.1-0.2-0.3c0-0.2-0.1-0.3-0.2-0.3c0,0-0.1-0.2-0.2-0.4c-0.1-0.2-0.2-0.4-0.2-0.4
		c-0.1,0-0.1-0.1-0.1-0.1c0-0.2-0.6-1.4-0.7-1.4l-0.1-0.1c0-0.1-0.1-0.4-0.3-0.7c-0.2-0.3-0.3-0.6-0.3-0.7s0-0.2-0.1-0.2
		c-0.1,0-0.2-0.2-0.2-0.5c-0.1-0.3-0.2-0.5-0.2-0.5s-0.1-0.1-0.2-0.3c0-0.2-0.1-0.3-0.2-0.3c0,0-0.1-0.3-0.2-0.6
		c-0.1-0.3-0.2-0.6-0.2-0.6c-0.1,0-0.1-0.2-0.2-0.4c0-0.2-0.1-0.4-0.2-0.4c0,0-0.1-0.3-0.2-0.8c-0.1-0.4-0.2-0.8-0.2-0.8
		s-0.1-0.4-0.2-0.8s-0.2-0.8-0.2-0.9c-0.1-0.1-0.1-0.4-0.2-0.7c0-0.3-0.1-0.6-0.2-0.6c0,0-0.1-0.5-0.2-1.2c-0.1-0.6-0.2-1.3-0.2-1.4
		c-0.1-0.1-0.1-0.8-0.2-1.5c0-0.7-0.1-1.3-0.2-1.3c-0.1,0-0.1-0.6-0.1-1.4s0-1.4,0.1-1.4c0.1,0,0.1-0.4,0.2-1c0-0.5,0.1-1,0.2-1
		c0.1,0,0.1-0.3,0.2-0.5c0-0.3,0.1-0.6,0.2-0.8c0.4-0.7,0.7-1.5,0.7-1.6s0.1-0.1,0.1-0.1s0.2-0.1,0.2-0.3c0.1-0.2,0.2-0.3,0.2-0.3
		s0.1-0.1,0.1-0.2c0-0.1,0.1-0.3,0.2-0.4c0.1-0.1,0.2-0.2,0.2-0.3c0-0.2,1.9-1.9,2.2-1.9c0.1,0,0.2-0.1,0.2-0.2
		c0-0.1,0.1-0.2,0.2-0.2c0.1,0,0.2-0.1,0.2-0.2c0-0.1,0.1-0.2,0.2-0.2s0.2-0.1,0.3-0.1c0.1-0.1,0.6-0.4,1.1-0.6
		c0.5-0.3,1.1-0.5,1.3-0.6s0.5-0.2,0.7-0.2c0.2,0,0.4-0.1,0.4-0.2c0,0,0.4-0.2,0.8-0.2c0.5-0.1,0.8-0.2,0.8-0.2s0.3-0.1,0.7-0.2
		c0.4,0,0.7-0.1,0.7-0.2s1.9-0.3,2.6-0.3c0.2,0,0.4-0.1,0.5-0.1c0-0.1,1-0.1,4.1-0.1c2.2,0,4,0,4-0.1c0-0.1-0.5-0.7-1.1-1.3
		c-0.2-0.2-0.3-0.4-0.3-0.5c0-0.1-0.2-0.3-0.4-0.4c-0.2-0.2-0.4-0.4-0.4-0.4s-0.1-0.2-0.3-0.4c-0.2-0.2-0.4-0.5-0.5-0.7l-0.2-0.3h-4
		C-158.9,684.2-161,684.3-161.5,684.4 M4.5,775.9c0,0.1-0.2,0.1-0.4,0.1c-0.5,0-1.7,0.2-1.7,0.3c0,0-0.2,0.1-0.4,0.2
		c-0.2,0-0.4,0.1-0.4,0.1s-0.2,0.1-0.4,0.2c-0.5,0.2-1.5,1.3-1.8,1.8c-0.1,0.2-0.3,0.5-0.3,0.5c-0.3,0.3-0.4,3.3,0,3.8
		c0.1,0.1,0.2,0.3,0.2,0.4c0,0.3,1.3,1.7,1.7,1.8c0.2,0,0.3,0.1,0.3,0.2c0,0.1,0.1,0.2,0.2,0.2s0.2,0,0.2,0.1c0,0,0.2,0.2,0.5,0.2
		c0.3,0.1,0.5,0.2,0.5,0.2s0.2,0.1,0.4,0.2c0.2,0,0.4,0.1,0.4,0.2c0,0,0.2,0.1,0.5,0.2c0.5,0.1,0.6,0.2,1.3,0.9
		c0.9,0.9,0.5,2.7-0.7,3c-0.1,0-0.3,0.1-0.3,0.2c-0.1,0.2-3,0.1-3.1,0c0-0.1-0.3-0.1-0.6-0.2c-0.3,0-0.6-0.1-0.7-0.2
		c-0.4-0.3-0.5-0.1-0.6,1.6c0,0.9-0.1,1.6,0,1.7c0.4,0.4,6.8,0.2,6.8-0.2c0,0,0.1-0.1,0.3-0.2c0.2,0,0.3-0.1,0.3-0.2
		c0,0,0.1-0.1,0.3-0.2c0.3-0.1,1.7-1.4,1.7-1.6c0-0.1,0.1-0.2,0.1-0.2c0.7-0.8,1.1-4.9,0.4-4.9c0,0-0.1-0.1-0.1-0.2
		s-0.1-0.2-0.2-0.2c-0.1,0-0.2-0.1-0.2-0.2c0-0.2-0.9-1-1-1s-0.2-0.1-0.2-0.2s-0.1-0.2-0.2-0.2c-0.1,0-0.2,0-0.2-0.1
		c0-0.1-0.2-0.2-0.4-0.2c-0.2-0.1-0.4-0.2-0.4-0.2s-0.2-0.1-0.4-0.2c-0.2,0-0.4-0.1-0.4-0.2c0-0.1-0.2-0.1-0.5-0.2
		c-0.3-0.1-0.5-0.2-0.6-0.2c0,0-0.2-0.1-0.3-0.2c-1.2-0.6-1.6-1.1-1.6-1.9c0-0.4,0-0.7,0.1-0.7s0.1-0.1,0.1-0.2
		c0-0.2,0.4-0.6,0.8-0.7c0.2,0,0.3-0.1,0.4-0.2c0.1-0.2,3.4-0.2,3.5,0c0,0.1,0.3,0.1,0.5,0.2l0.5,0.1v-0.8c0-0.5,0-0.8,0.1-0.8
		s0.1-0.3,0.1-0.8V776L8,775.9c-0.3,0-0.8-0.1-1.1-0.1s-0.5-0.1-0.5-0.1c0-0.1-0.4-0.1-1-0.1C4.9,775.8,4.5,775.9,4.5,775.9
		 M-188.5,777.7v1.6h3.3c3.6,0,3.5,0,3.1,0.6c-0.1,0.2-0.3,0.5-0.4,0.6c-0.1,0.2-0.2,0.4-0.2,0.4c0,0.1,0,0.1-0.1,0.1
		c-0.1,0-0.2,0.2-0.2,0.4s-0.2,0.4-0.2,0.4s-0.1,0.1-0.2,0.3c-0.1,0.2-0.2,0.3-0.2,0.3c-0.1,0-0.1,0.1-0.1,0.1
		c0,0.1-0.1,0.3-0.2,0.4c-0.1,0.1-0.2,0.3-0.2,0.4s-0.1,0.2-0.2,0.4c-0.1,0.1-0.2,0.3-0.2,0.4s0,0.1-0.1,0.1c-0.1,0-0.2,0.2-0.2,0.4
		c-0.1,0.2-0.2,0.4-0.2,0.4c-0.1,0.1-0.4,0.5-0.8,1.3c-0.1,0.2-0.2,0.4-0.3,0.5c0,0.1-0.1,0.2-0.2,0.2c-0.1,0-0.1,0.1-0.1,0.2
		c0,0.1-0.1,0.2-0.2,0.2c-0.1,0-0.2,0.2-0.2,0.4s-0.1,0.4-0.2,0.4c-0.1,0-0.2,0.2-0.2,0.4c0,0.2-0.1,0.3-0.2,0.4
		c-0.1,0-0.2,0.2-0.2,0.4s-0.1,0.3-0.2,0.3c-0.1,0-0.2,0.2-0.6,1c-0.1,0.1-0.2,0.2-0.2,0.2s-0.1,0.6-0.1,1.4v1.4h5.7h5.8v-1.6v-1.6
		h-3.6c-3.1,0-3.6,0-3.6-0.2c0-0.1,0-0.2,0.1-0.2c0.1,0,0.7-0.9,0.7-1c0,0,0.1-0.1,0.1-0.2c0.4-0.5,0.5-0.7,0.5-0.8
		c0-0.1,0.1-0.2,0.2-0.4c0.1-0.1,0.2-0.3,0.2-0.4s0.1-0.2,0.1-0.2c0.2-0.3,0.7-1,0.7-1.1c0-0.1,0-0.1,0.1-0.1c0.1,0,0.2-0.2,0.2-0.4
		c0.1-0.2,0.2-0.4,0.2-0.4s0.1-0.2,0.2-0.4c0.1-0.2,0.2-0.4,0.3-0.4c0.1,0,0.1-0.2,0.1-0.2s0-0.2,0.1-0.2c0.1,0,0.2-0.2,0.2-0.4
		c0.1-0.2,0.2-0.4,0.3-0.4c0.1,0,0.1-0.2,0.1-0.2c0-0.1,0-0.2,0.1-0.2c0,0,0.2-0.2,0.2-0.4c0.1-0.2,0.2-0.4,0.2-0.4s0.1-0.1,0.1-0.2
		s0.1-0.2,0.1-0.2c0.1,0,0.2-0.2,0.3-0.4c0.1-0.2,0.2-0.4,0.2-0.4s0.1-0.1,0.1-0.2s0.1-0.2,0.1-0.2c0.1,0,0.2-0.2,0.3-0.4
		c0.1-0.2,0.2-0.4,0.2-0.4c0.3-0.3,0.3-0.7,0.3-2V776h-5.5h-5.2V777.7 M-167.5,784.9v8.8h1.7h1.7v-8.8v-8.8h-1.7h-1.7V784.9
		 M-152.7,776.2c0,0-0.1,4-0.1,8.8v8.7h4.8h4.8v-1.5v-1.5h-3h-3v-2.2v-2.2h2.9h2.9v-1.5c0-1.8,0.3-1.6-3-1.6h-2.7v-2v-2h3h3v-1.5
		v-1.5h-4.7C-150.6,776.1-152.7,776.2-152.7,776.2 M-132.8,776.2c-0.1,0-0.1,1.9-0.1,8.8v8.7h1.8h1.8v-3.9c0-4,0-4.2,0.4-3.6
		c0.3,0.5,0.4,0.8,0.6,0.9c0.1,0,0.1,0.2,0.1,0.3s0.1,0.2,0.2,0.2s0.2,0.1,0.2,0.2c0,0.1,0.5,0.9,0.7,1.1s0.6,0.8,0.6,1
		s0.1,0.3,0.2,0.3s0.1,0.1,0.2,0.3c0.1,0.2,0.2,0.3,0.2,0.3c0.1,0,0.1,0.1,0.1,0.2s0.1,0.2,0.1,0.2c0.1,0,0.2,0.2,0.3,0.4
		c0.2,0.3,0.2,0.4,0.6,0.8c0.1,0.1,0.2,0.3,0.2,0.4s0.1,0.2,0.1,0.2c0.1,0,0.2,0.2,0.3,0.4l0.1,0.4h2.1c2,0,2.3,0,2.3-0.2
		c0-0.1-0.1-0.2-0.2-0.2s-0.2-0.1-0.2-0.2s-0.1-0.2-0.2-0.3c-0.1-0.1-0.2-0.3-0.2-0.3c0-0.1-0.1-0.2-0.2-0.2s-0.2-0.1-0.2-0.2
		s-0.1-0.2-0.2-0.3c-0.1-0.1-0.2-0.3-0.3-0.4c0-0.1-0.1-0.2-0.2-0.2s-0.2-0.1-0.2-0.3c-0.1-0.2-0.2-0.3-0.2-0.3s0-0.3,0-0.4
		c0-0.1-0.1-0.2-0.2-0.2s-0.2-0.2-0.3-0.4s-0.2-0.3-0.2-0.3c-0.1,0-0.1-0.1-0.1-0.1c0-0.1-0.2-0.4-0.4-0.6c-0.2-0.3-0.4-0.6-0.4-0.6
		c0-0.1-0.1-0.1-0.1-0.1c-0.1,0-0.2-0.1-0.2-0.3c-0.1-0.2-0.1-0.3-0.2-0.3s-0.2-0.1-0.2-0.3c-0.1-0.2-0.2-0.3-0.2-0.3
		c-0.1,0-0.1-0.1-0.1-0.2s-0.1-0.2-0.1-0.2c-0.1,0-0.3-0.3-0.5-0.6c-0.2-0.3-0.4-0.5-0.5-0.6c-0.3-0.2-0.3-0.6,0-0.7
		c0.1-0.1,0.2-0.2,0.2-0.3c0-0.1,0.1-0.2,0.2-0.3s0.2-0.3,0.2-0.3c0-0.1,0.1-0.2,0.2-0.2s0.2-0.1,0.2-0.2s0.1-0.2,0.2-0.2
		s0.2-0.2,0.3-0.4c0.1-0.2,0.2-0.3,0.3-0.4c0.1,0,0.2-0.1,0.2-0.2s0.1-0.2,0.1-0.2c0.1,0,0.2-0.1,0.2-0.3c0.1-0.2,0.3-0.4,0.4-0.6
		c0.4-0.4,0.7-0.8,0.7-0.9s0.1-0.2,0.2-0.2c0.1-0.1,0.2-0.2,0.2-0.3s0.2-0.5,0.6-0.8c0.1-0.1,0.2-0.2,0.2-0.3c0,0,0.1-0.2,0.2-0.3
		c0.1-0.1,0.2-0.3,0.2-0.3s0.1-0.2,0.2-0.3c0.1-0.1,0.2-0.2,0.2-0.2c0-0.1,0.1-0.2,0.2-0.3c0.5-0.6,0.4-0.6-1.8-0.6
		c-2.1,0-2.4,0.1-2.4,0.5c0,0.1-0.1,0.2-0.1,0.2c-0.1,0-0.2,0.2-0.3,0.4c-0.1,0.2-0.3,0.4-0.4,0.5s-0.3,0.4-0.4,0.5
		c-0.1,0.2-0.2,0.4-0.3,0.4c-0.1,0-0.1,0.1-0.1,0.2c0,0.1-0.1,0.2-0.2,0.3c-0.3,0.4-0.6,0.7-0.6,0.8s-0.1,0.2-0.2,0.2
		s-0.2,0.1-0.2,0.2c0,0.1-0.1,0.2-0.1,0.3c-0.2,0.1-0.6,0.8-0.6,0.9s-0.1,0.1-0.2,0.2c-0.1,0-0.2,0.1-0.2,0.2s-0.1,0.2-0.2,0.3
		c-0.1,0.1-0.2,0.3-0.3,0.4c0,0.1-0.1,0.2-0.2,0.2c0,0-0.1,0.2-0.2,0.4c-0.3,0.7-0.3,0.3-0.3-3.5v-3.8h-1.6
		C-132,776.2-132.8,776.2-132.8,776.2 M-110.4,784.9v8.8h4.7h4.7v-1.5v-1.5h-3h-3v-2.2v-2.2h2.8h2.8v-1.5v-1.5h-2.8h-2.8v-2v-2h3h3
		v-1.5v-1.5h-4.7h-4.7V784.9 M-90.4,784.9v8.8h1.7h1.7v-5.3c0-3.4,0-5.3-0.1-5.3s-0.1-0.3-0.1-0.6c0-0.6,0.1-0.8,0.3-0.3
		c0,0.2,0.1,0.3,0.2,0.3s0.1,0.1,0.1,0.1c0,0.1,0.6,1.3,0.7,1.4c0,0,0.1,0.2,0.2,0.3c0,0.2,0.3,0.6,0.5,1c0.2,0.4,0.4,0.8,0.4,0.8
		c0,0.1,0,0.1,0.1,0.1s0.2,0.2,0.2,0.4c0.1,0.2,0.2,0.4,0.2,0.4s0.1,0.1,0.1,0.2s0.1,0.2,0.2,0.2s0.2,0.3,0.3,0.5
		c0.1,0.3,0.2,0.5,0.3,0.5c0.1,0,0.2,0.1,0.2,0.2s0,0.2,0.1,0.2s0.2,0.2,0.2,0.4c0.1,0.2,0.2,0.5,0.3,0.5c0.1,0,0.1,0.1,0.1,0.2
		c0,0.1,0,0.2,0.1,0.2s0.1,0.1,0.2,0.3c0,0.2,0.1,0.4,0.2,0.4s0.2,0.3,0.3,0.5c0.1,0.2,0.2,0.5,0.3,0.5c0.1,0.1,0.2,0.2,0.2,0.3
		s0,0.2,0.1,0.2s0.1,0.1,0.1,0.1c0,0.1,0.1,0.3,0.3,0.6l0.3,0.5h2.2h2.2v-8.8v-8.8h-1.7h-1.7v5.9c0,3.2,0,5.8,0,5.7
		c0-0.1-0.1-0.2-0.1-0.2c-0.1,0-0.2-0.2-0.2-0.4c-0.1-0.2-0.2-0.4-0.2-0.4s-0.1-0.1-0.2-0.3c0-0.2-0.1-0.3-0.2-0.3s-0.2-0.2-0.2-0.4
		c-0.1-0.2-0.2-0.4-0.2-0.4s-0.1-0.2-0.2-0.4s-0.2-0.4-0.2-0.4l-0.1-0.1c0-0.1-0.1-0.3-0.2-0.4c-0.1-0.1-0.3-0.4-0.3-0.5
		c0-0.1-0.1-0.3-0.2-0.3s-0.1-0.1-0.1-0.1c0-0.1-0.1-0.3-0.2-0.4c-0.1-0.1-0.2-0.4-0.3-0.6c0-0.2-0.1-0.3-0.2-0.4
		c-0.1,0-0.2-0.1-0.2-0.2c0-0.1,0-0.2-0.1-0.2s-0.1-0.1-0.2-0.3c0-0.2-0.1-0.4-0.2-0.4s-0.2-0.3-0.3-0.5c-0.1-0.2-0.2-0.4-0.2-0.4
		s-0.2-0.3-0.4-0.6c-0.2-0.3-0.3-0.6-0.4-0.6c0,0-0.1-0.1-0.2-0.3c0-0.2-0.1-0.3-0.2-0.3c0,0-0.1-0.2-0.2-0.4
		c-0.1-0.2-0.2-0.4-0.2-0.4s-0.1-0.1-0.2-0.3c-0.1-0.5-0.2-0.5-2.5-0.5h-2.2L-90.4,784.9 M-64.9,776.2c0,0-0.1,4-0.1,8.8v8.7h1.8
		h1.8V790v-3.7h3.5h3.5v3.7v3.7h1.8h1.8v-8.6c0-4.7,0-8.7-0.1-8.8c-0.1-0.1-0.3-0.2-1.8-0.2h-1.7v3.5v3.5h-3.5h-3.5v-3.5v-3.5h-1.7
		C-64.1,776.1-64.8,776.2-64.9,776.2 M-39.7,776.3c-0.1,0.3,0,13.1,0.1,13.2c0.1,0,0.2,0.3,0.2,0.6c0.1,0.6,0.5,1.4,0.6,1.4
		s0.1,0.1,0.1,0.2c0,0.2,1,1.3,1.2,1.3c0.1,0,0.2,0.1,0.4,0.2c0.1,0.1,0.3,0.2,0.4,0.2c0.1,0,0.2,0,0.2,0.1c0.1,0.4,4.1,0.6,5.8,0.3
		c1.4-0.2,3.6-1.6,3.6-2.2c0-0.1,0.1-0.1,0.2-0.2c0.1,0,0.2-0.2,0.2-0.4c0-0.2,0.1-0.3,0.2-0.3c0,0,0.1-0.2,0.2-0.4
		c0-0.2,0.1-0.5,0.2-0.5c0.2-0.3,0.3-2,0.3-7.6v-6h-1.6c-1.1,0-1.7,0-1.8,0.1s-0.1,1.6-0.1,6.1c0,6.1,0,6.8-0.4,7.4
		c-0.2,0.4-0.7,0.8-0.8,0.8s-0.1,0.1-0.2,0.2c-0.2,0.4-3.6,0.4-3.7,0.1c0-0.1-0.1-0.1-0.2-0.1s-0.2-0.1-0.2-0.2s-0.2-0.2-0.3-0.2
		s-0.2-0.1-0.2-0.2s-0.1-0.2-0.2-0.2c-0.1,0-0.2-0.2-0.2-0.4c0-0.2-0.1-0.4-0.2-0.4c-0.1-0.1-0.1-1.9-0.2-6.4v-6.4h-1.7
		C-39.3,776.1-39.6,776.2-39.7,776.3 M-14.7,776.2c0,0-0.1,4-0.1,8.8v8.7h1.8h1.8v-8.8v-8.8h-1.7C-13.8,776.1-14.6,776.2-14.7,776.2
		"/>
</g>
</svg>
